<?xml version="1.0" encoding="UTF-8"?>
<svg xmlns="http://www.w3.org/2000/svg" version="1.1" xmlns:xlink="http://www.w3.org/1999/xlink" viewBox="0 0 512 512">
  <!-- Generator: Adobe Illustrator 29.3.1, SVG Export Plug-In . SVG Version: 2.1.0 Build 151)  -->
  <defs>
    <style>
      .st0 {
        fill: #fff;
      }

      .st1 {
        fill: #6f4fa1;
      }

      .st2 {
        fill: #8fc44b;
      }

      .st3 {
        fill: #15141e;
      }
    </style>
  </defs>
  <g id="Layer_2">
    <rect class="st3" x="-12.1" y="-11.1" width="562.4" height="542.6"/>
  </g>
  <g id="Layer_3">
    <ellipse class="st2" cx="295.6" cy="481.3" rx="34.9" ry="22.7"/>
  </g>
  <g id="Layer_1">
    <path class="st0" d="M30.4,192.8c.2,0,1.7,0,1.9,0,2.5,0,3.6,0,3.9-2.6,2.2-22.4,7.6-42.2,7.7-42.4.7-2.7-.8-5.4-3.5-6.2-2.7-.7-5.4.8-6.2,3.5-.2.8-5.7,20.9-8,44.2-.3,2.8,1.4,3.3,4.2,3.5Z"/>
    <path class="st0" d="M475.8,190.2c.2,2.6,4.7,5,5.9,2.7s1.6,1,1.8,1c2.7-.3,2.6-1.9,2.3-4.7-2.2-23.3-7.7-43.3-8-44.2-.7-2.7-3.5-4.2-6.2-3.5-2.7.7-4.2,3.5-3.5,6.2,0,.2,5.5,20,7.7,42.4Z"/>
    <path class="st0" d="M459.8,157c-.8,0-1.6-.2-2.3-.6-1.3-.7-2.3-1.9-2.6-3.4-3.3-15.1-10.3-28.7-20.9-40.5-13.5-15.1-32.8-27.7-57.4-37.4-2.6-1-3.8-3.9-2.8-6.5,1-2.6,3.9-3.8,6.5-2.8,26,10.3,46.6,23.8,61.2,40,10.4,11.6,17.7,24.8,21.8,39.3l20.5-8.6c-5.1-16.6-13.8-31.8-25.9-45.4-17.1-19.1-40.8-34.6-70.4-46.2-2.6-1-3.8-3.9-2.8-6.5,1-2.6,3.9-3.8,6.5-2.8,31.1,12.2,56.1,28.6,74.2,48.9,14.2,15.9,24.1,34,29.3,53.7.6,2.4-.6,4.9-2.9,5.9l-30,12.5c-.6.3-1.3.4-1.9.4Z"/>
    <path class="st1" d="M23.7,262.7c-2.4,0-4.6-1.8-4.9-4.3l-9.4-65.5c-.4-2.7,1.5-5.3,4.2-5.7l36.7-5.3c2.4-.4,4.7,1.1,5.5,3.4l13.3,42.1c.8,2.6-.6,5.4-3.3,6.3-2.6.8-5.4-.6-6.3-3.3l-12-38.1-27.5,3.9,8.7,60.5c.4,2.7-1.5,5.3-4.2,5.7-.2,0-.5,0-.7,0Z"/>
    <path class="st0" d="M344.8,283.9c1.7,1.3,3.6,1.9,5.6,1.9s2.8-.3,4.2-1c3.2-1.6,5.2-4.8,5.2-8.3v-10c3.8-3.9,6-9.1,6-14.6v-66.7c0-11.6-9.4-21-21-21h-105.5c-11.6,0-21,9.4-21,21v30.2c0,2.8,2.2,5,5,5s5-2.2,5-5v-30.2c0-6.1,4.9-11,11-11h105.5c6.1,0,11,4.9,11,11v66.7c0,3.3-1.5,6.5-4.1,8.6-1.2.9-1.9,2.4-1.9,3.9v10.8l-14.8-11.2c-.9-.7-1.9-1-3-1h-26c-2.8,0-5,2.2-5,5s2.2,5,5,5h24.4l14.6,11Z"/>
    <path class="st1" d="M272.8,227.3h-105.5c-11.6,0-21,9.4-21,21v66.7c0,5.5,2.1,10.7,6,14.6v10c0,3.6,2,6.8,5.2,8.3,1.3.7,2.7,1,4.2,1s4-.6,5.6-1.9l14.6-11h91c11.6,0,21-9.4,21-21v-66.7c0-11.6-9.4-21-21-21Z"/>
    <path class="st0" d="M64.4,389.1l-20.2,2.9c-1.8.3-3.7-.2-5.2-1.3s-2.5-2.8-2.7-4.6l-16.6-115.7c-.3-1.8.2-3.7,1.3-5.2,1.1-1.5,2.8-2.5,4.6-2.7l20.2-2.9c2.7-.4,4.6-2.9,4.2-5.7-.4-2.7-2.9-4.6-5.7-4.2l-20.2,2.9c-4.5.6-8.5,3-11.2,6.6-2.7,3.6-3.9,8.1-3.2,12.6l16.6,115.7c.6,4.5,3,8.5,6.6,11.2,3,2.2,6.5,3.4,10.2,3.4s1.6,0,2.4-.2l20.2-2.9c2.7-.4,4.6-2.9,4.2-5.7-.4-2.7-2.9-4.6-5.7-4.2Z"/>
    <path class="st0" d="M52.2,157c-.7,0-1.3-.1-1.9-.4l-30-12.5c-2.3-1-3.5-3.5-2.9-5.9,5.2-19.7,15.1-37.8,29.3-53.7,18.1-20.3,43.1-36.7,74.2-48.9,2.6-1,5.5.3,6.5,2.8,1,2.6-.3,5.5-2.8,6.5-29.6,11.6-53.3,27.1-70.4,46.2-12.2,13.6-20.9,28.8-25.9,45.4l20.5,8.6c4.1-14.5,11.4-27.7,21.8-39.3,14.6-16.2,35.1-29.7,61.2-40,2.6-1,5.5.2,6.5,2.8,1,2.6-.2,5.5-2.8,6.5-24.6,9.7-43.9,22.3-57.4,37.4-10.6,11.8-17.6,25.5-20.9,40.5-.3,1.5-1.3,2.7-2.6,3.4-.7.4-1.5.6-2.3.6Z"/>
    <path class="st2" d="M251.7,269.1h-66.3c-2.8,0-5-2.2-5-5s2.2-5,5-5h66.3c2.8,0,5,2.2,5,5s-2.2,5-5,5Z"/>
    <path class="st2" d="M251.7,300.6h-12.9c-2.8,0-5-2.2-5-5s2.2-5,5-5h12.9c2.8,0,5,2.2,5,5s-2.2,5-5,5Z"/>
    <path class="st2" d="M210,300.6h-24.7c-2.8,0-5-2.2-5-5s2.2-5,5-5h24.7c2.8,0,5,2.2,5,5s-2.2,5-5,5Z"/>
    <path class="st2" d="M323.5,205.8h-66.3c-2.8,0-5-2.2-5-5s2.2-5,5-5h66.3c2.8,0,5,2.2,5,5s-2.2,5-5,5Z"/>
    <path class="st2" d="M323.5,237.4h-12.9c-2.8,0-5-2.2-5-5s2.2-5,5-5h12.9c2.8,0,5,2.2,5,5s-2.2,5-5,5Z"/>
    <path class="st1" d="M488.3,262.7c-.2,0-.5,0-.7,0-2.7-.4-4.6-2.9-4.2-5.7l8.7-60.5-27.5-3.9-12,38.1c-.8,2.6-3.6,4.1-6.3,3.3-2.6-.8-4.1-3.6-3.3-6.3l13.3-42.1c.7-2.3,3.1-3.8,5.5-3.4l36.7,5.3c2.7.4,4.6,2.9,4.2,5.7l-9.4,65.5c-.4,2.5-2.5,4.3-4.9,4.3Z"/>
    <path class="st2" d="M124.9,260.7c-3.5-24.6-26.4-41.7-50.9-38.2l-8.4,1.2c-7.8,1.1-14.8,5.2-19.5,11.6s-6.8,14.2-5.7,22l19.3,134.5c1.1,7.8,5.2,14.8,11.6,19.5,5.2,3.9,11.4,6,17.8,6s2.8-.1,4.2-.3l8.4-1.2c24.6-3.5,41.7-26.4,38.2-50.9l-14.9-104.3Z"/>
    <path class="st0" d="M499,259.2c-2.7-3.6-6.7-6-11.2-6.6l-20.2-2.9c-2.7-.4-5.3,1.5-5.7,4.2-.4,2.7,1.5,5.3,4.2,5.7l20.2,2.9c1.8.3,3.5,1.2,4.6,2.7,1.1,1.5,1.6,3.3,1.3,5.2l-16.6,115.7c-.3,1.8-1.2,3.5-2.7,4.6-1.5,1.1-3.4,1.6-5.2,1.3l-20.2-2.9c-2.7-.4-5.3,1.5-5.7,4.2-.4,2.7,1.5,5.3,4.2,5.7l9.1,1.3c-1.7,7.2-6.4,21.6-18.1,35.9-22.1,26.9-57.5,40.5-105.3,40.5s-5,2.2-5,5,2.2,5,5,5c63.8,0,96.9-24.3,113.4-44.7,13.1-16.2,18.1-32.4,19.9-40.3,1.2.2,2.5.4,3.7.4,3.6,0,7.2-1.2,10.2-3.4,3.6-2.7,6-6.7,6.6-11.2l16.6-115.7c.6-4.5-.5-9-3.2-12.6Z"/>
    <path class="st2" d="M465.9,235.4c-4.8-6.4-11.7-10.5-19.5-11.6l-8.4-1.2c-24.6-3.5-47.4,13.6-50.9,38.2l-14.9,104.3c-3.5,24.6,13.6,47.4,38.2,50.9l8.4,1.2c1.4.2,2.8.3,4.2.3,6.4,0,12.6-2.1,17.8-6,6.4-4.8,10.5-11.7,11.6-19.5l19.3-134.5c1.1-7.8-.9-15.6-5.7-22Z"/>
    <path class="st2" d="M256,62.1c35.9,0,72.2,5.3,102.2,14.9,2.9.9,5.8,1.4,8.8,1.4,12.7,0,23.8-8.1,27.6-20.2,2.4-7.4,1.7-15.2-1.9-22.1-3.6-6.9-9.6-12-17-14.3-45.6-14.5-90.4-17.6-119.9-17.6s-74.3,3.1-119.9,17.6c-7.4,2.4-13.4,7.4-17,14.3-3.6,6.9-4.2,14.7-1.9,22.1,3.9,12.1,15,20.2,27.6,20.2s5.9-.5,8.8-1.4c30-9.6,66.3-14.9,102.2-14.9ZM144.9,68.4c-8.3,0-15.6-5.3-18.1-13.2-1.5-4.8-1.1-10,1.2-14.5,2.3-4.5,6.3-7.8,11.1-9.4,44.4-14.2,88-17.1,116.8-17.1s72.4,3,116.8,17.1c4.8,1.5,8.8,4.9,11.1,9.4,2.3,4.5,2.8,9.7,1.2,14.5-2.5,7.9-9.8,13.2-18.1,13.2s-3.9-.3-5.8-.9c-31-9.9-68.4-15.3-105.3-15.3s-74.3,5.4-105.3,15.3c-1.9.6-3.8.9-5.8.9Z"/>
    <path class="st2" d="M310.7,507.9h-32.4c-14.4,0-26.1-11.7-26.1-26.1s11.7-26.1,26.1-26.1h32.4c14.4,0,26.1,11.7,26.1,26.1s-11.7,26.1-26.1,26.1ZM278.3,465.6c-8.9,0-16.1,7.2-16.1,16.1s7.2,16.1,16.1,16.1h32.4c8.9,0,16.1-7.2,16.1-16.1s-7.2-16.1-16.1-16.1h-32.4Z"/>
  </g>
</svg>