<svg width="178" height="66" viewBox="0 0 178 66" fill="none" xmlns="http://www.w3.org/2000/svg">
<g clip-path="url(#clip0_2010_32627)">
<path d="M49.5675 22.7674L39.2805 19.3536V4.56051L49.5801 7.595L49.5675 22.7674Z" fill="#F68D11"/>
<path d="M52.2505 7.595L62.5501 4.56051L62.5142 19.3434L52.2505 22.7674V7.595Z" fill="#F68D11"/>
<path d="M60.4519 2.95869L50.8527 0.0087924L41.3787 2.95869L50.8665 5.48755L60.4519 2.95869Z" fill="#F68D11"/>
<path d="M75.5072 22.7674L65.2202 19.3536V4.56051L75.5198 7.595L75.5072 22.7674Z" fill="#F68D11"/>
<path d="M78.1899 7.595L88.4895 4.56051L88.4537 19.3434L78.1899 22.7674V7.595Z" fill="#F68D11"/>
<path d="M86.3916 2.95869L76.7924 0.0087924L67.3184 2.95869L76.8062 5.48755L86.3916 2.95869Z" fill="#F68D11"/>
<path d="M10.6707 29.2157L0.371094 26.1812V40.9743L10.6582 44.3881L10.6707 29.2157Z" fill="#F68D11"/>
<path d="M13.3408 29.2157L23.6404 26.1812L23.6046 40.9644L13.3408 44.3881V29.2157Z" fill="#F68D11"/>
<path d="M21.5425 24.5794L11.9433 21.6295L2.46924 24.5794L11.9572 27.1082L21.5425 24.5794Z" fill="#F68D11"/>
<path d="M36.5978 44.3881L26.3108 40.9743V26.1812L36.6104 29.2157L36.5978 44.3881Z" fill="#F68D11"/>
<path d="M39.2805 29.2157L49.5801 26.1812L49.5442 40.9644L39.2805 44.3881V29.2157Z" fill="#F68D11"/>
<path d="M47.482 24.5794L37.8827 21.6295L28.4087 24.5794L37.8966 27.1082L47.482 24.5794Z" fill="#F68D11"/>
<path d="M23.6279 66.0088L13.3408 62.595V47.8019L23.6404 50.8364L23.6279 66.0088Z" fill="#F68D11"/>
<path d="M26.3108 50.8364L36.6104 47.8019L36.5746 62.5851L26.3108 66.0088V50.8364Z" fill="#F68D11"/>
<path d="M34.5122 46.2001L24.913 43.2502L15.439 46.2001L24.9269 48.729L34.5122 46.2001Z" fill="#F68D11"/>
<path d="M69.1835 52.9321L68.4267 52.9347C68.149 52.9347 67.795 53.1213 67.708 53.4237L65.412 61.467L63.1411 53.4412C63.0728 53.1896 62.8344 52.9347 62.5102 52.9347H61.6141C61.2914 52.9347 61.056 53.193 60.9908 53.4464L58.8783 61.3888L56.6955 53.4218C56.6093 53.1304 56.2465 52.9347 55.962 52.9347L54.8729 52.9328C54.6402 52.9328 54.4239 53.0322 54.3079 53.1922C54.2293 53.3007 54.2076 53.4237 54.2438 53.5307L57.616 65.4015C57.6904 65.6511 57.9078 65.9026 58.2259 65.9026H59.3089C59.6015 65.9026 59.8579 65.6905 59.9319 65.3897L62.0074 57.4823L64.2661 65.3988C64.334 65.6412 64.5526 65.9026 64.8722 65.9026H65.9377C66.2341 65.9026 66.4835 65.6978 66.5568 65.3977L69.8027 53.5356C69.8408 53.4213 69.8187 53.2943 69.7412 53.1873C69.6272 53.0299 69.4136 52.9321 69.1835 52.9321Z" fill="#100F0D"/>
<path d="M78.548 57.972H72.8268C72.9584 56.3755 74.0009 54.7202 75.7671 54.6565C77.6466 54.7175 78.5064 56.3349 78.548 57.972ZM75.7629 52.8472C71.8983 52.8472 70.1382 56.2445 70.1382 59.4008C70.1382 63.34 72.3263 65.8851 75.7125 65.8851C78.136 65.8851 79.9834 64.6676 80.7814 62.5403C80.8242 62.4187 80.8108 62.2867 80.7441 62.1683C80.6628 62.0246 80.5087 61.9161 80.3264 61.8762L79.2537 61.6722C78.9657 61.6273 78.6357 61.797 78.5266 62.0431C78.0055 63.225 77.0557 63.8956 75.8636 63.9306C74.7165 63.8953 73.6633 63.2178 73.1808 62.2054C72.7886 61.3786 72.7306 60.5634 72.7241 59.7346L80.4912 59.732C80.654 59.732 80.8226 59.6607 80.9417 59.5408C81.0412 59.4414 81.0954 59.3178 81.0942 59.1941C81.0752 56.1255 79.6649 52.8472 75.7629 52.8472Z" fill="#100F0D"/>
<path d="M90.6496 59.4198C90.6496 60.1465 90.5172 63.7755 87.9244 63.8684C87.0554 63.8353 86.1773 63.3274 85.6867 62.5765C85.3255 62.0086 85.1145 61.2234 85.0603 60.252V58.1169C85.1027 56.4813 86.2604 54.6864 87.916 54.6169C90.5176 54.719 90.6496 58.6353 90.6496 59.4198ZM88.331 52.7371H88.1254C86.8425 52.7371 85.8343 53.2669 85.0603 54.353L85.0592 49.3488C85.0592 49.0677 84.7674 48.8117 84.445 48.8117H83.3281C83.0363 48.8117 82.7097 49.0415 82.709 49.3488V64.9703C82.7101 65.254 83.002 65.5118 83.3239 65.5118L83.652 65.5101C83.9617 65.5101 84.1822 65.2619 84.2566 65.0313L84.606 63.9287C85.4178 65.0749 86.6404 65.7482 87.9488 65.7482H88.1491C91.5956 65.7482 93.1383 62.4148 93.1383 59.1114C93.1383 57.4671 92.7305 55.8948 92.0198 54.7979C91.1985 53.5268 89.7848 52.7371 88.331 52.7371Z" fill="#100F0D"/>
<path d="M105.368 59.0682C104.642 58.5493 103.769 58.3759 102.894 58.2022L101.217 57.893C100.013 57.6963 99.3167 57.3753 99.3167 56.3193C99.3167 55.203 100.48 54.7763 101.467 54.7498C102.671 54.78 103.577 55.3145 104.017 56.2544C104.122 56.476 104.353 56.625 104.594 56.625C104.635 56.625 104.677 56.6204 104.717 56.6118L105.763 56.3819C105.934 56.3444 106.094 56.2279 106.179 56.0765C106.247 55.9563 106.262 55.8251 106.222 55.7079C105.581 53.8527 103.955 52.8722 101.495 52.8722C99.272 52.8771 96.8966 53.8599 96.8966 56.6049C96.8966 58.481 98.0822 59.6724 100.423 60.1465L102.3 60.5023C103.331 60.6984 104.385 61.0474 104.385 62.1478C104.385 63.7769 102.479 63.943 101.902 63.9549C100.609 63.9272 99.145 63.3536 98.7895 62.1391C98.7181 61.8721 98.3802 61.6832 98.0838 61.7445L96.989 61.9691C96.8242 62.0037 96.6735 62.1102 96.5857 62.2541C96.5121 62.3739 96.4911 62.5082 96.5251 62.6307C97.09 64.6459 99.0466 65.8612 101.759 65.8817L101.819 65.8821C104.241 65.8821 106.83 64.8507 106.83 61.9574C106.83 60.7797 106.297 59.7266 105.368 59.0682Z" fill="#100F0D"/>
<path d="M116.442 57.9837H110.719C110.85 56.3857 111.892 54.7297 113.658 54.6689C115.537 54.7282 116.398 56.3454 116.442 57.9837ZM113.655 52.8581C109.79 52.8581 108.03 56.2556 108.03 59.4118C108.03 63.3507 110.218 65.8954 113.605 65.8954C116.028 65.8954 117.876 64.6778 118.675 62.551C118.717 62.4292 118.704 62.2969 118.637 62.1782C118.555 62.0343 118.401 61.9259 118.219 61.8868L117.145 61.6827C116.893 61.6421 116.543 61.7715 116.419 62.054C115.898 63.2352 114.947 63.9058 113.756 63.9423C112.608 63.9058 111.555 63.2284 111.075 62.2164C110.682 61.3915 110.624 60.5756 110.618 59.7448L118.384 59.7429C118.546 59.7429 118.713 59.6721 118.832 59.553C118.932 59.4531 118.986 59.3295 118.985 59.2051C118.967 56.1368 117.558 52.8581 113.655 52.8581Z" fill="#100F0D"/>
<path d="M126.319 53.0026C126.168 52.986 126.022 52.978 125.88 52.978C124.577 52.978 123.518 53.6827 122.784 55.0289L122.786 53.85C122.785 53.5645 122.499 53.3136 122.173 53.3136H121.203C120.885 53.3136 120.604 53.5655 120.602 53.8546L120.601 65.3071C120.601 65.5945 120.881 65.8468 121.202 65.8468L122.334 65.8464C122.628 65.8464 122.96 65.6166 122.962 65.3071L122.963 59.5332C122.963 58.5811 123.052 57.8639 123.51 57.0153C124.163 55.8065 125.076 55.2135 126.299 55.2041C126.606 55.2019 126.875 54.9356 126.875 54.6341V53.5628C126.875 53.2825 126.631 53.0364 126.319 53.0026Z" fill="#100F0D"/>
<path d="M138.202 52.7777L137.308 52.7781C137.028 52.7781 136.669 52.978 136.582 53.2712L133.685 62.3256L130.727 53.2803C130.639 52.9799 130.279 52.7781 129.998 52.7781L128.722 52.7769C128.487 52.7769 128.261 52.8808 128.145 53.0413C128.067 53.1487 128.046 53.2705 128.084 53.3841L132.133 65.3282C132.211 65.5646 132.418 65.8408 132.744 65.8408H134.289C134.572 65.8408 134.804 65.6489 134.911 65.3272L138.838 53.388C138.878 53.2746 138.857 53.1524 138.779 53.0447C138.663 52.8827 138.436 52.7777 138.202 52.7777Z" fill="#100F0D"/>
<path d="M141.139 48.1865C140.315 48.1865 139.646 48.854 139.646 49.6753C139.646 50.4965 140.315 51.1637 141.139 51.1637C141.962 51.1637 142.632 50.4965 142.632 49.6753C142.632 48.854 141.962 48.1865 141.139 48.1865Z" fill="#100F0D"/>
<path d="M141.753 52.7049L140.528 52.7037C140.194 52.7037 139.891 52.9719 139.891 53.2659L139.885 65.4262C139.885 65.5733 139.961 65.7194 140.093 65.8279C140.214 65.9264 140.368 65.9833 140.523 65.9833L141.758 65.9852H141.759C142.097 65.9823 142.394 65.7213 142.394 65.4269V53.2659C142.394 52.967 142.094 52.7049 141.753 52.7049Z" fill="#100F0D"/>
<path d="M153.208 60.9511L152.184 60.9549C151.898 60.9549 151.659 61.1256 151.552 61.4221C151.179 63.0259 150.332 63.8569 149.048 63.8937C146.547 63.8198 146.353 60.3536 146.353 59.2931C146.353 57.1781 147.089 54.8957 149.146 54.8354C150.387 54.8734 151.29 55.7584 151.561 57.2005C151.612 57.4947 151.839 57.7174 152.15 57.7561L153.245 57.7668C153.572 57.7315 153.829 57.4853 153.827 57.1799C153.439 54.5738 151.623 52.8892 149.196 52.8892L149.112 52.8915L149.017 52.8892C145.487 52.8892 143.906 56.1652 143.906 59.4117C143.906 62.3883 145.239 65.8639 148.997 65.8639H149.177C151.544 65.8639 153.33 64.2143 153.842 61.5398C153.853 61.4123 153.809 61.2849 153.718 61.1813C153.6 61.0471 153.413 60.961 153.208 60.9511Z" fill="#100F0D"/>
<path d="M163.316 57.9837H157.592C157.723 56.3853 158.766 54.7297 160.533 54.6689C162.412 54.7282 163.273 56.3454 163.316 57.9837ZM160.529 52.8581C156.664 52.8581 154.904 56.2556 154.904 59.4118C154.904 63.3507 157.093 65.8954 160.479 65.8954C162.902 65.8954 164.749 64.6785 165.548 62.5514C165.59 62.4289 165.576 62.2961 165.509 62.1782C165.427 62.0333 165.277 61.9273 165.092 61.8868L164.019 61.6827C163.767 61.6421 163.417 61.7715 163.294 62.054C162.771 63.2352 161.82 63.9058 160.63 63.9427C159.482 63.9058 158.429 63.2284 157.949 62.2164C157.555 61.3902 157.497 60.5744 157.491 59.7448L165.258 59.7437C165.421 59.7437 165.59 59.6721 165.709 59.5518C165.808 59.4513 165.862 59.3276 165.86 59.2051C165.842 56.1368 164.433 52.8581 160.529 52.8581Z" fill="#100F0D"/>
<path d="M175.59 59.0682C174.862 58.5488 173.988 58.3756 173.115 58.2022L171.438 57.893C170.235 57.6963 169.539 57.3753 169.539 56.3193C169.539 54.8794 171.336 54.7591 171.687 54.7498C172.893 54.78 173.799 55.3145 174.238 56.2549C174.343 56.4764 174.575 56.625 174.816 56.625C174.858 56.625 174.899 56.6204 174.94 56.6118L175.986 56.3819C176.157 56.3444 176.316 56.2275 176.401 56.0762C176.469 55.9559 176.484 55.8251 176.443 55.7079C175.804 53.8527 174.177 52.8722 171.716 52.8722C169.494 52.8771 167.119 53.8599 167.119 56.6049C167.119 58.4814 168.304 59.6728 170.645 60.1465L172.523 60.5023C173.554 60.6984 174.608 61.0474 174.608 62.1478C174.608 63.7769 172.701 63.943 172.125 63.9549C170.926 63.9294 169.391 63.437 169.012 62.1406C168.943 61.8721 168.605 61.6835 168.304 61.7445L167.211 61.9691C167.045 62.0041 166.894 62.1114 166.806 62.2555C166.733 62.3757 166.712 62.5089 166.747 62.6307C167.31 64.6459 169.266 65.8612 171.979 65.8817L172.039 65.8821C174.462 65.8821 177.051 64.8507 177.051 61.9574C177.051 60.7789 176.518 59.7256 175.59 59.0682Z" fill="#100F0D"/>
<path fill-rule="evenodd" clip-rule="evenodd" d="M125.764 29.2923V26.5309C125.766 26.1122 126.086 25.8311 126.469 25.8315L138.911 25.8311C139.308 25.8311 139.628 26.119 139.628 26.5279V28.8959C139.625 29.2923 139.288 29.8106 138.691 30.6337L132.247 39.7829C134.638 39.7265 137.17 40.0825 139.342 41.2972C139.833 41.571 139.964 41.9772 140.004 42.3739V45.3204C140.004 45.7266 139.557 46.1962 139.088 45.9516C135.258 43.9565 130.176 43.7387 125.94 45.9747C125.508 46.2042 125.055 45.7419 125.055 45.3356V42.5359C125.055 42.0891 125.064 41.3218 125.518 40.6383L132.985 29.9879L126.484 29.9864C126.086 29.9864 125.768 29.7049 125.764 29.2923Z" fill="#100F0D"/>
<path fill-rule="evenodd" clip-rule="evenodd" d="M80.3816 46.5327H76.5955C76.2358 46.5093 75.9478 46.2395 75.9192 45.8954L75.9219 26.578C75.9219 26.1914 76.2492 25.8827 76.652 25.8827L80.1771 25.8808C80.5464 25.9013 80.8416 26.1782 80.8668 26.5294V29.0535H80.937C81.8548 26.6132 83.5863 25.4768 85.9178 25.4768C88.2848 25.4768 89.7691 26.6132 90.8292 29.0535C91.7485 26.6132 93.8324 25.4768 96.0602 25.4768C97.6501 25.4768 99.3793 26.1262 100.439 27.5888C101.641 29.2157 101.393 31.5718 101.393 33.6459L101.391 45.8367C101.391 46.2221 101.064 46.5327 100.661 46.5327H96.8811C96.5004 46.5093 96.2009 46.2073 96.2009 45.8385V35.5968C96.2009 34.7843 96.2708 32.751 96.0945 31.9793C95.8111 30.6774 94.9627 30.3136 93.8691 30.3136C92.9493 30.3136 91.9949 30.9233 91.6062 31.8968C91.2179 32.8739 91.2537 34.4998 91.2537 35.5968V45.8367C91.2537 46.2221 90.9268 46.5327 90.5236 46.5327H86.7425C86.3637 46.5093 86.0635 46.2073 86.0635 45.8385L86.0585 35.5968C86.0585 33.4422 86.4129 30.2729 83.7282 30.2729C81.0076 30.2729 81.1136 33.3614 81.1136 35.5968L81.1113 45.8367C81.1128 46.2221 80.7855 46.5327 80.3816 46.5327Z" fill="#100F0D"/>
<path fill-rule="evenodd" clip-rule="evenodd" d="M150.374 29.4184C147.582 29.4184 147.406 33.1984 147.406 35.557C147.406 37.9142 147.371 42.9543 150.34 42.9543C153.273 42.9543 153.414 38.8893 153.414 36.41C153.414 34.7843 153.344 32.8337 152.849 31.2888C152.424 29.9469 151.577 29.4184 150.374 29.4184ZM150.34 25.4768C155.958 25.4768 158.997 30.2729 158.997 36.368C158.997 42.2635 155.639 46.9385 150.34 46.9385C144.828 46.9385 141.823 42.1411 141.823 36.1658C141.823 30.1499 144.861 25.4768 150.34 25.4768Z" fill="#100F0D"/>
<path fill-rule="evenodd" clip-rule="evenodd" d="M166.283 46.5327H162.511C162.131 46.5093 161.832 46.2073 161.832 45.8385L161.826 26.5123C161.858 26.1603 162.172 25.8827 162.552 25.8827L166.064 25.8808C166.395 25.899 166.667 26.1228 166.736 26.4221V29.3779H166.808C167.867 26.7354 169.352 25.4768 171.965 25.4768C173.661 25.4768 175.323 26.0849 176.382 27.7519C177.371 29.296 177.371 31.8968 177.371 33.767V45.9235C177.329 46.2661 177.022 46.5327 176.648 46.5327H172.852C172.501 46.51 172.22 46.2528 172.177 45.9235V35.4343C172.177 33.3207 172.425 30.2306 169.81 30.2306C168.892 30.2306 168.045 30.8418 167.62 31.7756C167.089 32.954 167.019 34.1326 167.019 35.4343V45.8367C167.013 46.2221 166.686 46.5327 166.283 46.5327Z" fill="#100F0D"/>
<path fill-rule="evenodd" clip-rule="evenodd" d="M119.663 46.4838C119.412 46.7065 119.052 46.7213 118.769 46.5714C117.512 45.5324 117.286 45.0507 116.599 44.0626C114.522 46.167 113.05 46.7982 110.36 46.7982C107.172 46.7982 104.694 44.8425 104.694 40.9318C104.694 37.8773 106.357 35.7995 108.73 34.7804C110.784 33.884 113.652 33.7208 115.847 33.4755V32.9873C115.847 32.0916 115.918 31.0319 115.386 30.2583C114.927 29.5658 114.042 29.2813 113.262 29.2813C111.818 29.2813 110.535 30.0173 110.219 31.5419C110.155 31.8805 109.905 32.2168 109.562 32.2331L105.894 31.838C105.583 31.7686 105.24 31.5224 105.329 31.0522C106.172 26.6258 110.192 25.2883 113.794 25.2883C115.634 25.2883 118.043 25.7769 119.495 27.1617C121.335 28.8734 121.158 31.1545 121.158 33.6397V39.5033C121.158 41.2671 121.895 42.0413 122.588 42.9919C122.828 43.3348 122.883 43.741 122.574 43.9925C121.801 44.6366 120.428 45.8219 119.673 46.4921L119.663 46.4838ZM115.847 37.306C115.847 38.7728 115.882 39.9961 115.138 41.2987C114.536 42.3588 113.58 43.01 112.517 43.01C111.067 43.01 110.217 41.9104 110.217 40.2801C110.217 37.0753 113.11 36.4918 115.847 36.4918V37.306Z" fill="#100F0D"/>
<path fill-rule="evenodd" clip-rule="evenodd" d="M70.0439 46.4838C69.7936 46.7065 69.4316 46.7213 69.1486 46.5714C67.8917 45.5324 67.6666 45.0507 66.9788 44.0626C64.9021 46.167 63.43 46.7982 60.738 46.7982C57.5513 46.7982 55.0725 44.8425 55.0725 40.9318C55.0725 37.8773 56.7376 35.7995 59.1099 34.7804C61.1641 33.884 64.0324 33.7208 66.2273 33.4755V32.9873C66.2273 32.0916 66.2987 31.0319 65.7669 30.2583C65.3068 29.5658 64.4207 29.2813 63.6429 29.2813C62.1991 29.2813 60.9147 30.0173 60.5999 31.5419C60.5343 31.8805 60.2852 32.2168 59.9427 32.2331L56.2734 31.838C55.9636 31.7686 55.6195 31.5224 55.7084 31.0522C56.5515 26.6258 60.571 25.2883 64.1728 25.2883C66.0152 25.2883 68.4223 25.7769 69.8745 27.1617C71.7159 28.8734 71.5381 31.1545 71.5381 33.6397V39.5033C71.5381 41.2671 72.2758 42.0413 72.9671 42.9919C73.2081 43.3348 73.2627 43.741 72.9552 43.9925C72.1816 44.6366 70.8072 45.8219 70.0527 46.4921L70.0439 46.4838ZM66.2273 37.306C66.2273 38.7728 66.262 39.9961 65.5197 41.2987C64.9181 42.3588 63.9607 43.01 62.8998 43.01C61.4464 43.01 60.5973 41.9104 60.5973 40.2801C60.5973 37.0753 63.4888 36.4918 66.2273 36.4918V37.306Z" fill="#100F0D"/>
</g>
<defs>
<clipPath id="clip0_2010_32627">
<rect width="177" height="66" fill="white" transform="translate(0.371094 0.00878906)"/>
</clipPath>
</defs>
</svg>
