<svg width="178" height="178" viewBox="0 0 178 178" fill="none" xmlns="http://www.w3.org/2000/svg">
<path d="M175.848 116.096C176.892 114.488 178.19 112.487 177.742 109.946C177.466 108.382 176.624 107.082 175.88 105.935C175.401 105.196 174.858 104.358 174.765 103.83C174.672 103.301 174.896 102.328 175.093 101.469C175.47 99.8326 175.897 97.9773 175.209 96.0803C174.505 94.1397 172.892 92.9204 171.596 91.9401C170.912 91.4234 170.138 90.8378 169.895 90.4167C169.636 89.9682 169.513 88.9872 169.405 88.1215C169.205 86.5264 168.957 84.5412 167.648 82.9843C166.332 81.4177 164.408 80.8278 162.862 80.3536C162.035 80.0999 161.097 79.8122 160.715 79.4914C160.328 79.1681 159.88 78.2924 159.484 77.5195C158.749 76.0835 157.834 74.2957 156.069 73.2748C154.308 72.2563 152.304 72.3559 150.695 72.4351C149.825 72.4786 148.839 72.5272 148.361 72.3527C148.143 72.2731 147.869 72.0822 147.575 71.8431C147.159 52.7984 139.526 34.9563 125.99 21.4788C112.143 7.69194 93.7567 0.0996094 74.2171 0.0996094C33.7529 0.0996094 0.833191 33.0193 0.833191 73.4835C0.833191 113.947 33.7529 146.867 74.2168 146.867C84.4112 146.867 94.2578 144.816 103.511 140.779C103.652 140.843 103.794 140.903 103.936 140.96L93.5701 163.223C93.1212 164.187 93.2454 165.321 93.8923 166.165C94.5393 167.009 95.6017 167.423 96.6494 167.241L108.65 165.143L114.771 175.677C115.283 176.559 116.225 177.097 117.239 177.097C117.282 177.097 117.326 177.096 117.369 177.094C118.431 177.046 119.379 176.411 119.827 175.447L130.018 153.56C130.738 153.341 131.421 153.054 132.069 152.781C132.877 152.441 133.793 152.055 134.306 152.054H134.307C134.784 152.054 135.673 152.43 136.457 152.761C137.769 153.316 139.361 153.989 141.107 153.907L148.475 171.013C148.896 171.99 149.825 172.652 150.885 172.73C150.956 172.736 151.027 172.738 151.098 172.738C152.08 172.738 153 172.232 153.523 171.389L159.947 161.038L171.881 163.482C172.923 163.697 173.997 163.312 174.668 162.487C175.339 161.662 175.496 160.532 175.076 159.556L166.612 139.904C166.982 139.63 167.332 139.312 167.646 138.938C168.955 137.376 169.204 135.383 169.403 133.782C169.511 132.92 169.633 131.943 169.885 131.507C170.135 131.074 170.919 130.483 171.609 129.961C172.9 128.988 174.506 127.775 175.207 125.854C175.904 123.943 175.458 121.993 175.1 120.426C174.906 119.575 174.686 118.611 174.775 118.1C174.861 117.616 175.385 116.809 175.848 116.096ZM6.54278 73.4835C6.54278 36.1674 36.9014 5.8092 74.2171 5.8092C109.643 5.8092 138.896 33.2994 141.672 68.0669C139.76 67.795 138.054 68.5112 136.543 69.1478C135.735 69.4882 134.819 69.874 134.305 69.8744C134.305 69.8744 134.304 69.8744 134.304 69.8744C133.827 69.8744 132.938 69.4989 132.155 69.1678C130.656 68.5344 128.791 67.745 126.749 68.1054C124.708 68.4655 123.225 69.8447 122.033 70.9528C121.409 71.5326 120.702 72.1899 120.254 72.3527C119.771 72.5272 118.779 72.4786 117.904 72.4344C116.211 72.3505 114.292 72.2549 112.541 73.2655C110.762 74.2932 109.845 76.0896 109.108 77.5331C108.716 78.3003 108.272 79.1699 107.894 79.4882C107.505 79.8158 106.562 80.107 105.729 80.3643C105.099 80.5588 104.406 80.7743 103.717 81.0662C98.9396 76.1139 93.0477 72.4886 86.5987 70.4464C92.4817 66.4629 96.3557 59.7266 96.3557 52.1025C96.3557 39.8954 86.4242 29.964 74.2171 29.964C62.01 29.964 52.0785 39.8954 52.0785 52.1025C52.0785 59.7256 55.9518 66.4611 61.8334 70.445C45.2624 75.7074 33.2215 91.2368 33.2215 109.527C33.2215 111.104 34.4998 112.382 36.0763 112.382H90.9598C91.297 113.769 92.0535 114.947 92.7322 115.994C93.2111 116.733 93.7542 117.57 93.8474 118.099C93.9409 118.628 93.7168 119.601 93.5194 120.46C93.143 122.096 92.7165 123.951 93.4038 125.848C94.1075 127.789 95.7208 129.008 97.0169 129.988C97.7003 130.505 98.475 131.09 98.7187 131.512C98.9774 131.96 99.1002 132.942 99.2087 133.807C99.3022 134.555 99.4078 135.387 99.6266 136.221C91.5653 139.495 83.0338 141.158 74.2175 141.158C36.9014 141.157 6.54278 110.799 6.54278 73.4835ZM93.5119 101.503C93.7064 102.354 93.9266 103.318 93.8367 103.828C93.751 104.312 93.2272 105.119 92.7647 105.832C92.5902 106.1 92.4089 106.381 92.2298 106.672H39.0453C40.5031 88.5443 55.7209 74.2404 74.2171 74.2404C83.9134 74.2404 93.1251 78.2139 99.7775 85.2035C99.4503 86.2109 99.3211 87.2415 99.2083 88.1475C99.1009 89.0093 98.9789 89.9857 98.7269 90.4214C98.4775 90.8528 97.6949 91.4437 97.0044 91.9647C95.7137 92.9393 94.1072 94.1522 93.4056 96.0746C92.7083 97.9844 93.154 99.9353 93.5119 101.503ZM74.2171 68.5312C65.1581 68.5312 57.7881 61.1612 57.7881 52.1022C57.7881 43.0432 65.1581 35.6732 74.2171 35.6732C83.2761 35.6732 90.6461 43.0432 90.6461 52.1022C90.6461 61.1612 83.2761 68.5312 74.2171 68.5312ZM116.96 168.079L112.588 160.554C111.987 159.521 110.805 158.972 109.628 159.177L101.055 160.675L108.865 143.9C108.954 144.07 109.042 144.242 109.128 144.409C109.863 145.845 110.778 147.633 112.544 148.654C114.306 149.672 116.309 149.573 117.918 149.493C118.788 149.451 119.773 149.401 120.251 149.576C120.715 149.745 121.43 150.411 122.06 150.997C122.659 151.555 123.333 152.182 124.114 152.712L116.96 168.079ZM159.143 155.045C157.972 154.804 156.775 155.32 156.145 156.336L151.556 163.731L146.21 151.318C146.336 151.202 146.46 151.088 146.58 150.976C147.203 150.396 147.91 149.739 148.359 149.576C148.842 149.401 149.834 149.45 150.71 149.494C152.402 149.578 154.322 149.674 156.072 148.663C157.852 147.635 158.769 145.838 159.506 144.394C159.897 143.628 160.341 142.758 160.718 142.441C160.862 142.32 161.08 142.205 161.339 142.095L167.669 156.791L159.143 155.045ZM172.119 110.937C172.177 111.265 171.45 112.386 171.059 112.988C170.3 114.157 169.44 115.481 169.153 117.108C168.862 118.757 169.219 120.32 169.534 121.698C169.694 122.398 169.962 123.57 169.844 123.896C169.721 124.234 168.75 124.967 168.17 125.405C167.046 126.253 165.772 127.215 164.943 128.65C164.112 130.088 163.914 131.675 163.739 133.075C163.649 133.795 163.499 134.998 163.271 135.27C163.044 135.539 161.889 135.896 161.198 136.109C159.849 136.526 158.319 136.999 157.045 138.07C155.781 139.132 155.058 140.549 154.42 141.799C154.089 142.448 153.534 143.535 153.217 143.718C152.905 143.886 151.708 143.827 150.994 143.791C149.58 143.721 147.976 143.641 146.413 144.209C144.873 144.767 143.715 145.844 142.693 146.794C142.119 147.327 141.252 148.133 140.872 148.2C140.492 148.266 139.402 147.806 138.68 147.501C137.397 146.958 135.942 146.344 134.307 146.344C134.305 146.344 134.303 146.344 134.301 146.344C132.637 146.346 131.158 146.969 129.853 147.519C129.193 147.797 128.087 148.259 127.739 148.211C127.378 148.147 126.485 147.315 125.951 146.819C124.925 145.862 123.761 144.778 122.21 144.212C121.178 143.835 120.13 143.741 119.131 143.741C118.617 143.741 118.116 143.766 117.636 143.79C116.915 143.826 115.707 143.886 115.402 143.71C115.094 143.532 114.541 142.452 114.211 141.807C113.568 140.551 112.839 139.128 111.566 138.061C110.296 136.996 108.77 136.528 107.424 136.116C106.73 135.903 105.567 135.546 105.335 135.271C105.112 135.002 104.963 133.81 104.874 133.098C104.698 131.695 104.5 130.104 103.663 128.655C102.841 127.233 101.576 126.277 100.46 125.433C99.8764 124.992 98.8989 124.253 98.7719 123.902C98.6613 123.576 98.9261 122.426 99.0838 121.74C99.4032 120.351 99.7654 118.778 99.4706 117.107C99.1762 115.437 98.2984 114.083 97.5236 112.888C97.0979 112.231 96.568 111.414 96.4938 110.992C96.4356 110.663 97.1632 109.542 97.554 108.941C98.3126 107.772 99.1723 106.448 99.4596 104.821C99.7504 103.173 99.3935 101.61 99.0788 100.232C98.9189 99.5321 98.6513 98.3606 98.7694 98.0323C98.8929 97.694 99.8642 96.9606 100.445 96.5224C101.568 95.6746 102.841 94.7132 103.67 93.2794C104.501 91.8416 104.699 90.2551 104.874 88.8555C104.964 88.1358 105.114 86.931 105.342 86.6588C105.569 86.3897 106.725 86.0328 107.414 85.8194C108.764 85.4026 110.294 84.9298 111.568 83.8586C112.831 82.7962 113.555 81.3795 114.193 80.1295C114.524 79.48 115.079 78.3934 115.395 78.2107C115.707 78.0419 116.904 78.1015 117.619 78.1372C119.033 78.2075 120.636 78.2871 122.2 77.7204C123.74 77.1619 124.898 76.085 125.92 75.1347C126.493 74.6015 127.36 73.7958 127.741 73.7287C128.123 73.6669 129.211 74.1226 129.932 74.4274C131.216 74.9702 132.67 75.5846 134.304 75.5846H134.312C135.975 75.5829 137.454 74.9598 138.759 74.4099C139.419 74.1323 140.52 73.6677 140.874 73.7183C141.235 73.7822 142.128 74.614 142.662 75.1111C143.689 76.0675 144.853 77.1512 146.403 77.7168C147.966 78.2878 149.565 78.2086 150.976 78.139C151.698 78.1029 152.905 78.0433 153.211 78.2189C153.519 78.397 154.072 79.4772 154.402 80.1227C155.045 81.3785 155.774 82.8019 157.047 83.8686C158.316 84.9327 159.842 85.4005 161.188 85.8134C161.882 86.0264 163.045 86.3833 163.277 86.6584C163.5 86.9257 163.65 88.119 163.739 88.8316C163.914 90.2344 164.113 91.8242 164.95 93.273C165.771 94.6954 167.036 95.6517 168.152 96.4953C168.774 96.9653 169.714 97.6761 169.841 98.0276C169.952 98.3541 169.687 99.5028 169.529 100.189C169.209 101.578 168.847 103.151 169.142 104.823C169.437 106.493 170.314 107.847 171.089 109.041C171.515 109.697 172.045 110.514 172.119 110.937ZM134.306 80.3939C117.45 80.3939 103.736 94.1076 103.736 110.964C103.736 127.82 117.45 141.534 134.306 141.534C151.163 141.534 164.876 127.82 164.876 110.964C164.876 94.1073 151.163 80.3939 134.306 80.3939ZM134.306 135.824C120.598 135.824 109.446 124.672 109.446 110.964C109.446 97.2561 120.598 86.1035 134.306 86.1035C148.014 86.1035 159.167 97.2561 159.167 110.964C159.167 124.672 148.014 135.824 134.306 135.824ZM140.981 101.389L136.949 91.5212C136.51 90.4478 135.466 89.7462 134.306 89.7462C133.147 89.7462 132.102 90.4478 131.664 91.5212L127.631 101.389L117 102.175C115.844 102.26 114.854 103.037 114.496 104.14C114.137 105.242 114.482 106.452 115.367 107.201L123.506 114.086L120.968 124.439C120.692 125.565 121.125 126.746 122.063 127.428C123.001 128.11 124.258 128.156 125.244 127.545L134.307 121.933L143.369 127.545C143.831 127.832 144.352 127.973 144.872 127.973C145.462 127.973 146.052 127.79 146.55 127.428C147.489 126.746 147.921 125.565 147.645 124.439L145.107 114.086L153.246 107.201C154.132 106.452 154.476 105.242 154.118 104.14C153.76 103.037 152.77 102.26 151.613 102.175L140.981 101.389ZM140.069 110.868C139.242 111.568 138.882 112.675 139.14 113.728L140.436 119.013L135.809 116.148C134.888 115.577 133.724 115.577 132.803 116.148L128.176 119.013L129.472 113.728C129.73 112.676 129.37 111.568 128.543 110.868L124.388 107.354L129.815 106.952C130.895 106.872 131.837 106.188 132.247 105.185L134.306 100.148L136.364 105.185C136.774 106.188 137.716 106.873 138.796 106.952L144.223 107.354L140.069 110.868Z" fill="#8FC44C" fill-opacity="0.5"/>
</svg>
