<svg width="444" height="216" viewBox="0 0 444 216" fill="none" xmlns="http://www.w3.org/2000/svg">
<path style="mix-blend-mode:multiply" d="M108.553 215.251C168.001 215.251 216.192 167.11 216.192 107.725C216.192 48.3398 168.001 0.19873 108.553 0.19873C49.106 0.19873 0.914368 48.3398 0.914368 107.725C0.914368 167.11 49.106 215.251 108.553 215.251Z" fill="url(#paint0_radial_3494_7260)" fill-opacity="0.5"/>
<path d="M182.913 30.0159C201.383 49.323 215.732 77.803 215.732 106.617C215.732 166.001 167.539 214.144 108.093 214.144C79.2487 214.144 50.0903 200.457 30.763 182.007C50.3622 202.484 77.9727 215.272 108.574 215.272C168.021 215.272 216.213 167.13 216.213 107.746C216.213 77.1762 203.412 49.5946 182.913 30.0159Z" fill="white" fill-opacity="0.75"/>
<path d="M108.554 206.643C163.242 206.643 207.575 162.356 207.575 107.725C207.575 53.0946 163.242 8.80778 108.554 8.80778C53.8659 8.80778 9.53259 53.0946 9.53259 107.725C9.53259 162.356 53.8659 206.643 108.554 206.643Z" fill="white" fill-opacity="0.75"/>
<path d="M149.761 197.699C136.374 203.822 121.376 207.06 105.584 206.58C52.5176 205.013 9.63768 160.882 9.57493 107.83C9.51218 63.72 38.3568 26.3386 78.2246 13.5299C93.243 8.70318 108.575 20.0492 108.575 35.8041C108.575 45.9591 101.986 54.8605 92.3227 58.0156C69.6277 65.4125 53.7517 87.9165 56.5755 113.638C59.2319 137.751 78.7057 157.1 102.865 159.67C112.78 160.715 122.234 158.981 130.496 155.157C139.072 151.187 149.154 152.65 155.827 159.336L156.622 160.13C168.105 171.601 164.507 190.929 149.74 197.678L149.761 197.699Z" fill="#8FC44C" fill-opacity="0.5"/>
<path d="M207.575 107.746C207.575 136.164 195.568 161.802 176.345 179.834L108.574 112.134V8.8289C163.251 8.8289 207.575 53.1056 207.575 107.725V107.746Z" fill="white" fill-opacity="0.75"/>
<g filter="url(#filter0_d_3494_7260)">
<path d="M108.554 159.984C137.446 159.984 160.868 136.587 160.868 107.725C160.868 78.8634 137.446 55.4664 108.554 55.4664C79.6624 55.4664 56.2408 78.8634 56.2408 107.725C56.2408 136.587 79.6624 159.984 108.554 159.984Z" fill="white" fill-opacity="0.75"/>
</g>
<path d="M97.1752 108.498C97.1752 111.403 94.9162 113.304 91.8623 113.304C87.6789 113.304 85.4617 110.295 85.4617 105.322C85.4617 99.9312 88.3273 97.1521 92.5316 97.1521C93.8912 97.1521 95.1672 97.382 96.1503 97.967L95.6692 98.9073C94.8534 98.3849 93.7448 98.176 92.5316 98.176C88.9548 98.176 86.6121 100.516 86.6121 105.134C86.6121 105.615 86.633 106.325 86.7585 107.035C87.407 104.946 89.415 103.755 91.8414 103.755C95.0208 103.755 97.1543 105.615 97.1543 108.477L97.1752 108.498ZM96.0248 108.519C96.0248 106.241 94.3932 104.779 91.695 104.779C88.9967 104.779 87.2815 106.43 87.2815 108.582C87.2815 110.441 88.8502 112.322 91.8414 112.322C94.3305 112.322 96.0248 110.838 96.0248 108.54V108.519Z" fill="black" fill-opacity="0.5"/>
<path d="M99.1835 105.218C99.1835 100.245 101.756 97.1521 105.417 97.1521C109.077 97.1521 111.65 100.245 111.65 105.218C111.65 110.191 109.077 113.283 105.417 113.283C101.756 113.283 99.1835 110.191 99.1835 105.218ZM110.5 105.218C110.5 100.788 108.429 98.2178 105.417 98.2178C102.405 98.2178 100.334 100.788 100.334 105.218C100.334 109.647 102.405 112.217 105.417 112.217C108.429 112.217 110.5 109.647 110.5 105.218Z" fill="black" fill-opacity="0.5"/>
<path d="M113.93 101.478C113.93 98.8866 115.373 97.1732 117.444 97.1732C119.515 97.1732 120.979 98.8866 120.979 101.478C120.979 104.069 119.515 105.782 117.444 105.782C115.373 105.782 113.93 104.069 113.93 101.478ZM120.101 101.478C120.101 99.2627 119.034 97.9463 117.444 97.9463C115.855 97.9463 114.809 99.2836 114.809 101.478C114.809 103.672 115.875 105.009 117.444 105.009C119.013 105.009 120.101 103.693 120.101 101.478ZM127.15 97.2777H128.133L117.256 113.2H116.273L127.15 97.2777ZM123.447 108.979C123.447 106.388 124.912 104.675 126.982 104.675C129.053 104.675 130.496 106.388 130.496 108.979C130.496 111.57 129.053 113.283 126.982 113.283C124.912 113.283 123.447 111.57 123.447 108.979ZM129.618 108.979C129.618 106.806 128.551 105.448 126.982 105.448C125.414 105.448 124.326 106.764 124.326 108.979C124.326 111.194 125.393 112.51 126.982 112.51C128.572 112.51 129.618 111.173 129.618 108.979Z" fill="black" fill-opacity="0.5"/>
<g style="mix-blend-mode:multiply">
<path d="M337.878 215.251C397.326 215.251 445.517 167.11 445.517 107.725C445.517 48.3398 397.326 0.19873 337.878 0.19873C278.431 0.19873 230.239 48.3398 230.239 107.725C230.239 167.11 278.431 215.251 337.878 215.251Z" fill="white" fill-opacity="0.75"/>
</g>
<path d="M412.218 30.0159C430.687 49.323 445.036 77.803 445.036 106.617C445.036 166.001 396.844 214.144 337.397 214.144C308.553 214.144 279.395 200.457 260.067 182.007C279.667 202.484 307.277 215.272 337.879 215.272C397.325 215.272 445.518 167.13 445.518 107.746C445.518 77.1762 432.716 49.5946 412.218 30.0159Z" fill="white" fill-opacity="0.75"/>
<path d="M422.3 107.746C422.3 155.407 382.683 193.854 334.553 192.016C290.794 190.344 255.152 154.718 253.499 111.026C251.721 64.2003 288.18 25.4817 334.155 23.4967C336.163 23.4131 337.837 25.0011 337.837 26.9861C337.837 28.8458 336.372 30.392 334.511 30.4756C293.304 32.2099 260.423 66.1436 260.423 107.746C260.423 151.458 296.735 186.687 340.828 185.016C380.486 183.511 413.012 151.584 415.125 111.987C416.275 90.2983 408.494 70.427 395.107 55.7169C393.852 54.3378 393.936 52.2274 395.233 50.9319C396.655 49.5111 398.956 49.5737 400.316 51.0573C413.933 66.0182 422.258 85.9312 422.258 107.746H422.3Z" fill="#8FC44C" fill-opacity="0.5"/>
<g filter="url(#filter1_d_3494_7260)">
<path d="M337.879 162.198C367.995 162.198 392.41 137.81 392.41 107.725C392.41 77.64 367.995 53.2513 337.879 53.2513C307.762 53.2513 283.348 77.64 283.348 107.725C283.348 137.81 307.762 162.198 337.879 162.198Z" fill="white" fill-opacity="0.75"/>
</g>
<path d="M325.997 105.134C325.997 110.525 323.132 113.304 318.927 113.304C317.568 113.304 316.292 113.074 315.309 112.489L315.79 111.548C316.606 112.071 317.714 112.28 318.927 112.28C322.504 112.28 324.847 109.94 324.847 105.322C324.847 104.841 324.826 104.131 324.701 103.42C324.052 105.51 322.044 106.701 319.618 106.701C316.438 106.701 314.305 104.841 314.305 101.979C314.305 99.1159 316.564 97.1727 319.597 97.1727C323.78 97.1727 325.997 100.182 325.997 105.155V105.134ZM324.199 101.874C324.199 100.014 322.63 98.1547 319.639 98.1547C317.15 98.1547 315.455 99.6383 315.455 101.937C315.455 104.235 317.087 105.698 319.785 105.698C322.483 105.698 324.199 104.047 324.199 101.895V101.874Z" fill="black" fill-opacity="0.5"/>
<path d="M339.008 108.581C339.008 111.235 337.168 113.283 333.423 113.283C331.102 113.283 328.947 112.426 327.818 111.151L328.403 110.274C329.365 111.381 331.248 112.238 333.382 112.238C336.31 112.238 337.816 110.754 337.816 108.644C337.816 106.366 336.435 104.987 332.106 104.987H328.884L329.721 97.2771H338.172V98.3219H330.704L330.098 103.943H332.378C337.23 103.943 339.008 105.781 339.008 108.602V108.581Z" fill="black" fill-opacity="0.5"/>
<path d="M340.744 101.477C340.744 98.8861 342.187 97.1727 344.258 97.1727C346.329 97.1727 347.793 98.8861 347.793 101.477C347.793 104.068 346.329 105.781 344.258 105.781C342.187 105.781 340.744 104.068 340.744 101.477ZM346.914 101.477C346.914 99.2622 345.848 97.9458 344.258 97.9458C342.668 97.9458 341.622 99.2831 341.622 101.477C341.622 103.671 342.689 105.008 344.258 105.008C345.827 105.008 346.914 103.692 346.914 101.477ZM353.963 97.2771H354.946L344.07 113.199H343.086L353.963 97.2771ZM350.261 108.978C350.261 106.387 351.725 104.674 353.796 104.674C355.867 104.674 357.31 106.387 357.31 108.978C357.31 111.569 355.867 113.283 353.796 113.283C351.725 113.283 350.261 111.569 350.261 108.978ZM356.432 108.978C356.432 106.805 355.365 105.447 353.796 105.447C352.227 105.447 351.14 106.764 351.14 108.978C351.14 111.193 352.206 112.51 353.796 112.51C355.386 112.51 356.432 111.172 356.432 108.978Z" fill="black" fill-opacity="0.5"/>
<defs>
<filter id="filter0_d_3494_7260" x="53.2408" y="52.4664" width="124.627" height="124.517" filterUnits="userSpaceOnUse" color-interpolation-filters="sRGB">
<feFlood flood-opacity="0" result="BackgroundImageFix"/>
<feColorMatrix in="SourceAlpha" type="matrix" values="0 0 0 0 0 0 0 0 0 0 0 0 0 0 0 0 0 0 127 0" result="hardAlpha"/>
<feOffset dx="7" dy="7"/>
<feGaussianBlur stdDeviation="5"/>
<feColorMatrix type="matrix" values="0 0 0 0 0.403922 0 0 0 0 0.431373 0 0 0 0 0.454902 0 0 0 0.45 0"/>
<feBlend mode="normal" in2="BackgroundImageFix" result="effect1_dropShadow_3494_7260"/>
<feBlend mode="normal" in="SourceGraphic" in2="effect1_dropShadow_3494_7260" result="shape"/>
</filter>
<filter id="filter1_d_3494_7260" x="280.348" y="50.2513" width="129.061" height="128.947" filterUnits="userSpaceOnUse" color-interpolation-filters="sRGB">
<feFlood flood-opacity="0" result="BackgroundImageFix"/>
<feColorMatrix in="SourceAlpha" type="matrix" values="0 0 0 0 0 0 0 0 0 0 0 0 0 0 0 0 0 0 127 0" result="hardAlpha"/>
<feOffset dx="7" dy="7"/>
<feGaussianBlur stdDeviation="5"/>
<feColorMatrix type="matrix" values="0 0 0 0 0.403922 0 0 0 0 0.431373 0 0 0 0 0.454902 0 0 0 0.45 0"/>
<feBlend mode="normal" in2="BackgroundImageFix" result="effect1_dropShadow_3494_7260"/>
<feBlend mode="normal" in="SourceGraphic" in2="effect1_dropShadow_3494_7260" result="shape"/>
</filter>
<radialGradient id="paint0_radial_3494_7260" cx="0" cy="0" r="1" gradientUnits="userSpaceOnUse" gradientTransform="translate(115.728 113.199) scale(115.127 115.007)">
<stop offset="0.79" stop-color="white"/>
<stop offset="0.85" stop-color="#F7F7F7"/>
<stop offset="0.94" stop-color="#E2E3E4"/>
<stop offset="1" stop-color="#D2D3D4"/>
</radialGradient>
</defs>
</svg>
