<svg width="23" height="23" viewBox="0 0 23 23" fill="none" xmlns="http://www.w3.org/2000/svg">
<g clip-path="url(#clip0_3786_973)">
<path d="M21.9754 11.4068C21.9754 17.5052 16.8458 22.402 10.6645 22.0192C5.36837 21.691 1.05784 17.3805 0.730038 12.0844C0.346871 5.9031 5.2437 0.773438 11.3421 0.773438C13.017 0.773438 14.6029 1.1599 16.0134 1.8518C16.3915 2.03734 16.5301 2.50814 16.3214 2.87407L16.32 2.87664C16.1271 3.2147 15.7062 3.34047 15.3571 3.1685C13.9572 2.47917 12.3567 2.14367 10.6674 2.2643C6.23077 2.58074 2.60737 6.13924 2.21247 10.5697C1.72114 16.084 6.1402 20.7124 11.5856 20.5701C16.2488 20.4484 20.1414 16.7502 20.4827 12.0979C20.5715 10.8894 20.4259 9.71937 20.0798 8.64064C19.9701 8.29854 20.1296 7.9293 20.4508 7.7687C20.852 7.56814 21.3437 7.7687 21.4797 8.19587C21.8016 9.20824 21.9754 10.287 21.9754 11.4068Z" fill="#AEE090"/>
<path d="M5.99226 8.6465L11.7907 16.4921C12.2285 17.0846 13.1195 17.0333 13.4888 16.3945L21.8678 1.88993C22.3042 1.1346 21.3087 0.375232 20.715 1.01103L11.9854 10.3618L6.92029 7.55823C6.23572 7.17946 5.52439 8.01326 5.99226 8.6465Z" fill="#8FC44C"/>
</g>
<defs>
<clipPath id="clip0_3786_973">
<rect width="22" height="22" fill="white" transform="translate(0.341797 0.407227)"/>
</clipPath>
</defs>
</svg>
