<svg width="186" height="187" viewBox="0 0 186 187" fill="none" xmlns="http://www.w3.org/2000/svg">
<path d="M164.88 109.011C167.097 98.7861 167.097 88.2043 164.88 77.979C186.011 45.3205 191.557 18.784 179.669 6.86166C169.146 -3.63047 147.062 -0.574091 119.074 15.2529L122.088 20.5817C147.127 6.42372 167.036 2.90797 175.338 11.192C184.247 20.1253 179.231 42.8522 162.672 69.992C156.909 52.8744 145.041 38.4807 129.335 29.5617C113.629 20.6427 95.1874 17.824 77.5345 21.6443C44.8729 0.537595 18.318 -5.0239 6.41098 6.86778C-4.12095 17.4273 -1.00946 39.5937 14.9492 67.7105L20.278 64.6847C5.99142 39.5294 2.42973 19.5343 10.7414 11.1982C19.6839 2.28628 42.4107 7.30878 69.5414 23.8647C54.9661 28.7758 42.2996 38.137 33.3268 50.6288C24.3541 63.1207 19.5276 78.1133 19.5276 93.4937C19.5276 108.874 24.3541 123.867 33.3268 136.359C42.2996 148.85 54.9661 158.212 69.5414 163.123C42.3831 179.682 19.6563 184.701 10.7414 175.795C2.47261 167.49 5.96386 147.593 20.1126 122.566L14.7839 119.552C-1.02783 147.525 -4.08114 169.6 6.41711 180.126C8.752 182.261 11.4915 183.907 14.4735 184.965C17.4556 186.024 20.6196 186.473 23.7784 186.287C37.5076 186.287 56.2164 179.106 77.5161 165.331C95.1718 169.157 113.618 166.341 129.328 157.421C145.038 148.502 156.91 134.105 162.672 116.983C179.231 144.135 184.247 166.862 175.345 175.783C166.831 184.278 146.33 180.432 120.526 165.499L117.463 170.797C135.174 181.06 150.575 186.287 162.311 186.287C165.47 186.473 168.635 186.023 171.617 184.965C174.6 183.906 177.34 182.259 179.675 180.123C191.557 168.219 186.005 141.67 164.88 109.011ZM143.88 112.267L141.394 108.959C144.405 105.488 147.296 102.002 150.067 98.5008C152.994 102.413 155.751 106.306 158.335 110.181C156.5 117.32 153.499 124.106 149.454 130.268L145.105 125.926V115.942C145.099 114.618 144.669 113.33 143.88 112.267ZM135.918 101.671V91.7787C135.908 90.1517 135.264 88.5928 134.123 87.433L130.249 83.5895C129.454 82.7787 128.449 82.2044 127.347 81.9303C126.244 81.6562 125.088 81.6931 124.005 82.0368L117.408 84.1806L107.804 81.8562L105.51 72.6227L110.009 65.9312H119.687L125.68 69.9124C133.067 77.5932 139.988 85.5312 146.245 93.4937C143.497 96.989 140.627 100.472 137.636 103.943L135.918 101.671ZM147.421 53.7761C149.724 56.9207 151.751 60.2591 153.478 63.7537L144.573 68.8375L130.997 66.1057L129.6 65.187C128.253 63.7935 126.905 62.394 125.527 61.0189C122.93 58.4188 120.284 55.8892 117.623 53.3963C118.285 53.465 118.954 53.4194 119.601 53.2616L129.438 50.8116L139.078 55.6197C140.042 56.1016 141.116 56.3209 142.191 56.2553C143.267 56.1897 144.306 55.8416 145.203 55.2461L147.421 53.7761ZM155.947 69.3949C156.882 71.818 157.676 74.2936 158.323 76.8092C155.753 80.6781 152.997 84.5706 150.054 88.4865C146.104 83.513 141.914 78.5579 137.514 73.6701L143.458 74.8614C144.887 75.105 146.357 74.8487 147.62 74.1356L155.947 69.3949ZM153.95 93.4937C156.008 90.7803 158.014 88.0669 159.91 85.3658C160.587 90.7642 160.587 96.2262 159.91 101.625C158.014 98.9204 156.008 96.207 153.95 93.4937ZM143.574 48.9863L141.832 50.147L132.243 45.3665C130.927 44.6702 129.398 44.489 127.955 44.8581L118.119 47.3081L112.606 43.6576L116.134 38.3687H128.874C129.625 38.3515 130.367 38.1947 131.061 37.9062C135.672 41.0712 139.874 44.7926 143.574 48.9863ZM121.059 32.2437H116.134C115.122 32.2454 114.125 32.4964 113.233 32.9744C112.34 33.4524 111.579 34.1428 111.017 34.9846L107.473 40.2797C106.866 41.221 106.528 42.311 106.497 43.431C104.365 41.6119 102.227 39.8356 100.084 38.1022C100.223 36.5643 99.7752 35.0305 98.8298 33.8095C97.8843 32.5885 96.5116 31.7708 94.9877 31.5209L90.7002 30.7951C88.7728 29.3659 86.8486 27.9766 84.9274 26.627C87.62 26.2954 90.33 26.1256 93.043 26.1187C102.714 26.1136 112.272 28.2031 121.059 32.2437ZM75.2039 28.535L77.3722 32.3754C77.8023 33.2019 78.4204 33.916 79.1767 34.4601C79.9331 35.0043 80.8066 35.3633 81.727 35.5083L88.1889 36.5893C89.6099 37.6551 91.034 38.7331 92.455 39.8387L91.1381 41.7987L81.0319 44.3252C79.6974 44.6745 78.522 45.4685 77.6999 46.5762L69.5965 57.4052L58.3602 63.0218L45.905 65.4963C44.516 65.7739 43.2661 66.5244 42.3682 67.62C41.4703 68.7155 40.9799 70.0884 40.9805 71.5049V76.5274C40.984 77.5416 41.2373 78.5394 41.718 79.4325C42.1987 80.3256 42.8921 81.0865 43.7367 81.6479L50.168 85.9599V91.6163L36.8492 84.937L28.4977 74.2183C31.7902 63.2783 37.8007 53.3508 45.9681 45.3622C54.1355 37.3736 64.1937 31.5845 75.2039 28.535ZM25.668 93.4937C25.6734 89.5984 26.0157 85.7109 26.6909 81.8745L31.9767 88.6519C32.5414 89.3903 33.2659 89.9913 34.096 90.4097L47.4332 97.1013C48.2832 97.5198 49.2175 97.7387 50.1649 97.7414C50.1925 97.7414 50.22 97.7414 50.2476 97.7414C50.21 97.9439 50.1834 98.1484 50.168 98.3539V107.566C50.1805 109.18 50.8248 110.724 51.9626 111.869L56.8381 116.744C57.3037 117.21 57.8415 117.598 58.4306 117.893L62.4119 119.886V129.784C62.4071 130.442 62.5105 131.096 62.7181 131.72L68.1847 148.11C68.49 149.014 69.001 149.835 69.6775 150.508C70.3541 151.181 71.1776 151.687 72.0832 151.987L75.8072 153.212C76.7278 153.517 77.7075 153.598 78.6657 153.45C79.6239 153.302 80.5333 152.929 81.3191 152.361C82.1048 151.793 82.7445 151.046 83.1855 150.183C83.6264 149.319 83.856 148.363 83.8555 147.394V138.261L92.7184 133.824C93.7325 133.322 94.5866 132.548 95.185 131.587C95.7833 130.627 96.1021 129.519 96.1055 128.388L96.1392 123.273L101.468 121.503C102.448 121.18 103.331 120.613 104.033 119.856C104.734 119.098 105.232 118.175 105.48 117.173L107.195 110.288C107.42 109.386 107.436 108.444 107.243 107.533C107.05 106.623 106.652 105.769 106.079 105.036C105.506 104.303 104.774 103.71 103.938 103.302C103.102 102.894 102.184 102.681 101.254 102.681H97.6796L93.4472 96.2499C92.8906 95.4013 92.1312 94.7048 91.2377 94.2235C90.3441 93.7422 89.3447 93.4914 88.3298 93.4937H79.0075L72.4232 86.8327C71.4529 85.8528 70.1803 85.229 68.8114 85.0623C67.4425 84.8955 66.0574 85.1956 64.8802 85.914L56.293 91.1509V85.9446C56.2895 84.9304 56.0362 83.9326 55.5555 83.0395C55.0747 82.1464 54.3814 81.3856 53.5367 80.8241L47.1055 76.5274V71.5049L59.6617 69.009C60.1642 68.8958 60.6507 68.7209 61.1103 68.4883L72.3405 62.8687C73.1956 62.4506 73.9326 61.8252 74.4842 61.0495L82.5784 50.2389L92.5928 47.7338C94.0927 47.4019 95.4011 46.4918 96.2341 45.2011L97.257 43.6698C103.425 48.7015 109.553 54.0824 115.531 59.7909H110.018C109.006 59.7928 108.01 60.0436 107.118 60.521C106.226 60.9984 105.464 61.6879 104.901 62.5287L100.372 69.2999C99.9241 70.0062 99.6248 70.796 99.4916 71.6214C99.3584 72.4469 99.3942 73.2907 99.5967 74.1019L101.863 83.3445C102.141 84.4269 102.708 85.4133 103.503 86.1987C104.298 86.984 105.291 87.5387 106.377 87.8035L115.856 90.1035C116.993 90.4171 118.198 90.383 119.316 90.0055L125.891 87.8893L129.793 91.7787V101.671C129.8 102.995 130.229 104.282 131.018 105.346L133.492 108.638C129.545 113.042 125.45 117.396 121.197 121.647C107.499 135.459 92.4801 147.894 76.3554 158.774C61.8662 155.05 49.0251 146.617 39.8501 134.8C30.6752 122.984 25.6865 108.454 25.668 93.4937ZM65.1742 114.407L61.193 112.414L56.293 107.538V98.3263L68.0714 91.1417L74.668 97.7995C75.8167 98.9564 77.3773 99.6106 79.0075 99.6187H88.3298L92.5652 106.05C93.1232 106.897 93.883 107.593 94.7762 108.074C95.6694 108.555 96.6681 108.807 97.6827 108.806H101.25L99.5355 115.694L94.2129 117.458C92.9974 117.86 91.9388 118.634 91.1856 119.669C90.4325 120.705 90.0228 121.95 90.0142 123.231L89.9805 128.345L81.1176 132.782C80.097 133.287 79.2385 134.068 78.6397 135.037C78.0409 136.006 77.7259 137.123 77.7305 138.261V147.394L74.0095 146.169L68.543 129.784V119.886C68.5489 118.75 68.2365 117.634 67.6411 116.666C67.0458 115.697 66.1912 114.915 65.1742 114.407ZM93.043 160.869C90.3249 160.862 87.6097 160.692 84.912 160.36C99.4083 150.081 112.996 138.578 125.527 125.978C129.566 121.941 133.474 117.81 137.244 113.633L138.98 115.942V125.926C138.984 127.544 139.625 129.096 140.766 130.244L145.825 135.303C139.528 143.272 131.508 149.713 122.367 154.14C113.225 158.568 103.2 160.868 93.043 160.869Z" fill="#8FC44C" fill-opacity="0.5"/>
</svg>
