<svg width="196" height="197" viewBox="0 0 196 197" fill="none" xmlns="http://www.w3.org/2000/svg">
<g clip-path="url(#clip0_4048_157)">
<path d="M98.2863 32.9493C89.6597 32.9493 82.6413 40.0037 82.6413 48.6745C82.6413 57.3454 89.6597 64.3998 98.2863 64.3998C106.913 64.3998 113.931 57.3454 113.931 48.6745C113.931 40.0037 106.913 32.9493 98.2863 32.9493ZM98.2863 58.11C93.1108 58.11 88.8994 53.8766 88.8994 48.6749C88.8994 43.4732 93.1112 39.2398 98.2863 39.2398C103.462 39.2398 107.673 43.4732 107.673 48.6749C107.673 53.8766 103.462 58.11 98.2863 58.11Z" fill="#8FC44C" fill-opacity="0.5"/>
<path d="M163.995 67.5455C163.995 37.4944 139.551 12.2551 106.959 8.34564C105.845 7.21656 104.706 6.10968 103.504 5.05602L98.2848 0.463867L93.0655 5.05563C91.8671 6.10929 90.7251 7.21617 89.611 8.34526C57.0189 12.2548 32.5751 37.497 32.5751 67.5455C32.5751 88.2243 44.5153 107.548 63.8655 118.398V158.753C63.8655 162.222 66.6721 165.043 70.1236 165.043H71.6225L90.7971 192.575C92.5055 195.028 95.303 196.494 98.2848 196.494C101.267 196.494 104.064 195.028 105.773 192.575L124.947 165.043H126.446C129.898 165.043 132.704 162.222 132.704 158.753V118.398C152.054 107.547 163.995 88.2243 163.995 67.5455ZM97.1866 9.78907L98.2848 8.82346L99.383 9.78907C102.985 12.9562 106.154 16.5195 108.88 20.3689H87.69C90.4155 16.5195 93.582 12.9592 97.1866 9.78907ZM107.306 83.2708H114.108L111.761 89.5609H106.523L107.306 83.2708ZM122.169 79.5814C122.513 78.6568 122.772 77.7069 123.076 76.7727C125.257 80.9241 126.446 85.5695 126.446 90.3248V92.6932C123.937 91.2747 121.186 90.35 118.32 89.8971L122.169 79.5814ZM116.436 76.9806H107.193C106.02 73.3448 102.656 70.6904 98.6505 70.6904H97.9184C93.913 70.6904 90.5526 73.3448 89.3759 76.9806H80.1326C77.6543 70.1999 76.3809 63.1015 76.3809 55.8706C76.3809 45.5484 78.9876 35.5314 83.781 26.6591H112.784C117.581 35.5314 120.187 45.5484 120.187 55.8706C120.188 63.1011 118.915 70.1999 116.436 76.9806ZM101.414 79.7575C101.414 79.8709 101.408 79.9838 101.392 80.1002L98.6974 101.776C98.644 102.195 97.9245 102.195 97.8711 101.776L95.1769 80.0971C95.1613 79.9838 95.1552 79.8709 95.1552 79.7575C95.1552 78.226 96.3943 76.9806 97.918 76.9806H98.6501C100.175 76.9806 101.414 78.226 101.414 79.7575ZM74.4009 79.5814L78.2497 89.8971C75.3837 90.35 72.6331 91.2747 70.1236 92.6932V90.3248C70.1236 85.5695 71.3125 80.9272 73.4936 76.7727C73.7972 77.7069 74.0535 78.6537 74.4009 79.5814ZM84.808 89.5609L82.4611 83.2708H89.2636L90.046 89.5609H84.808ZM70.1236 139.882H126.446V146.172H70.1236V139.882ZM95.9254 188.971L92.4054 183.916H104.164L100.644 188.971C99.5677 190.518 97.0019 190.518 95.9254 188.971ZM108.545 177.623H88.0244L79.263 165.043H117.309L108.545 177.623ZM70.1236 158.753V152.462H126.446V158.753H70.1236ZM128.13 113.734L126.446 114.614V133.592H101.414V114.721H95.156V133.592H70.1236V114.614L68.4403 113.734C50.1761 104.163 38.8335 86.4662 38.8335 67.5451C38.8335 42.9254 57.4105 21.9226 83.1875 15.8713C74.7765 27.3667 70.124 41.3529 70.124 55.8706C70.124 60.1607 70.5525 64.4033 71.3475 68.58C66.5319 74.7821 63.8659 82.4277 63.8659 90.3251V98.996C63.8659 100.267 64.6293 101.415 65.7964 101.902C66.1845 102.062 66.591 102.141 66.9948 102.141C67.8084 102.141 68.6095 101.82 69.2071 101.219C72.6521 97.7567 77.23 95.8507 82.105 95.8507H90.8318L91.6641 102.556C92.0804 105.905 94.9278 108.431 98.2852 108.431C101.643 108.431 104.49 105.906 104.906 102.556L105.739 95.8507H114.465C119.337 95.8507 123.918 97.7567 127.363 101.219C127.961 101.82 128.762 102.141 129.576 102.141C129.979 102.141 130.386 102.062 130.774 101.902C131.941 101.415 132.704 100.266 132.704 98.996V90.3251C132.704 82.4311 130.038 74.7821 125.223 68.58C126.018 64.4033 126.446 60.1607 126.446 55.8706C126.446 41.3529 121.794 27.3667 113.383 15.8713C139.16 21.9226 157.737 42.9254 157.737 67.5451C157.736 86.4662 146.394 104.164 128.13 113.734Z" fill="#8FC44C" fill-opacity="0.5"/>
<path d="M107.672 102.141H113.93V127.302H107.672V102.141Z" fill="#8FC44C" fill-opacity="0.5"/>
<path d="M82.6413 102.141H88.8994V127.302H82.6413V102.141Z" fill="#8FC44C" fill-opacity="0.5"/>
<path d="M20.0594 117.867C20.0594 112.664 15.8476 108.431 10.6725 108.431C5.49734 108.431 1.28516 112.664 1.28516 117.867C1.28516 123.069 5.49696 127.302 10.6721 127.302C15.8472 127.302 20.0594 123.069 20.0594 117.867ZM7.54325 117.867C7.54325 116.131 8.94807 114.722 10.6721 114.722C12.3961 114.722 13.801 116.131 13.801 117.867C13.801 119.602 12.3961 121.011 10.6721 121.011C8.94807 121.011 7.54325 119.603 7.54325 117.867Z" fill="#8FC44C" fill-opacity="0.5"/>
<path d="M26.3182 149.317C26.3182 144.115 22.1064 139.882 16.9312 139.882C11.7561 139.882 7.54391 144.115 7.54391 149.317C7.54391 154.52 11.7557 158.753 16.9309 158.753C22.106 158.753 26.3182 154.52 26.3182 149.317ZM13.802 149.317C13.802 147.582 15.2068 146.173 16.9309 146.173C18.6549 146.173 20.0597 147.582 20.0597 149.317C20.0597 151.053 18.6549 152.462 16.9309 152.462C15.2068 152.462 13.802 151.053 13.802 149.317Z" fill="#8FC44C" fill-opacity="0.5"/>
<path d="M23.1896 171.333C18.0141 171.333 13.8027 175.566 13.8027 180.768C13.8027 185.97 18.0145 190.203 23.1896 190.203C28.3648 190.203 32.5766 185.97 32.5766 180.768C32.5766 175.566 28.3648 171.333 23.1896 171.333ZM23.1896 183.913C21.4656 183.913 20.0608 182.504 20.0608 180.768C20.0608 179.032 21.4656 177.624 23.1896 177.624C24.9137 177.624 26.3185 179.032 26.3185 180.768C26.3185 182.504 24.9137 183.913 23.1896 183.913Z" fill="#8FC44C" fill-opacity="0.5"/>
<path d="M45.0925 114.722H26.3183V121.012H38.8344V139.882H57.6087V133.592H45.0925V114.722Z" fill="#8FC44C" fill-opacity="0.5"/>
<path d="M32.5751 146.172H57.6074V152.462H32.5751V146.172Z" fill="#8FC44C" fill-opacity="0.5"/>
<path d="M45.0919 177.623H38.8338V183.913H51.35V165.043H57.6081V158.753H45.0919V177.623Z" fill="#8FC44C" fill-opacity="0.5"/>
<path d="M185.898 108.431C180.722 108.431 176.511 112.665 176.511 117.867C176.511 123.068 180.723 127.302 185.898 127.302C191.073 127.302 195.285 123.068 195.285 117.867C195.285 112.665 191.073 108.431 185.898 108.431ZM185.898 121.012C184.174 121.012 182.769 119.603 182.769 117.867C182.769 116.131 184.174 114.722 185.898 114.722C187.622 114.722 189.027 116.131 189.027 117.867C189.027 119.602 187.622 121.012 185.898 121.012Z" fill="#8FC44C" fill-opacity="0.5"/>
<path d="M179.639 139.882C174.464 139.882 170.252 144.115 170.252 149.317C170.252 154.519 174.464 158.752 179.639 158.752C184.814 158.752 189.026 154.519 189.026 149.317C189.026 144.115 184.815 139.882 179.639 139.882ZM179.639 152.462C177.915 152.462 176.51 151.053 176.51 149.317C176.51 147.582 177.915 146.173 179.639 146.173C181.363 146.173 182.768 147.582 182.768 149.317C182.768 151.053 181.364 152.462 179.639 152.462Z" fill="#8FC44C" fill-opacity="0.5"/>
<path d="M173.382 171.333C168.207 171.333 163.995 175.566 163.995 180.768C163.995 185.97 168.207 190.203 173.382 190.203C178.558 190.203 182.769 185.97 182.769 180.768C182.769 175.566 178.558 171.333 173.382 171.333ZM173.382 183.913C171.658 183.913 170.254 182.504 170.254 180.768C170.254 179.032 171.658 177.624 173.382 177.624C175.106 177.624 176.511 179.032 176.511 180.768C176.512 182.504 175.107 183.913 173.382 183.913Z" fill="#8FC44C" fill-opacity="0.5"/>
<path d="M170.253 114.722H151.478V133.592H138.962V139.882H157.737V121.012H170.253V114.722Z" fill="#8FC44C" fill-opacity="0.5"/>
<path d="M138.962 146.172H163.995V152.462H138.962V146.172Z" fill="#8FC44C" fill-opacity="0.5"/>
<path d="M151.478 158.753H138.962V165.043H145.22V183.913H157.737V177.623H151.478V158.753Z" fill="#8FC44C" fill-opacity="0.5"/>
</g>
<defs>
<clipPath id="clip0_4048_157">
<rect width="195" height="196" fill="white" transform="translate(0.771484 0.463867)"/>
</clipPath>
</defs>
</svg>
