<svg width="106" height="21" viewBox="0 0 106 21" fill="none" xmlns="http://www.w3.org/2000/svg">
<path d="M56.9765 5.38998C56.0854 4.90934 55.0646 4.66797 53.9142 4.66797C52.7637 4.66797 51.7053 4.91773 50.7954 5.41726C50.0235 5.84123 49.3772 6.42471 48.8543 7.16561V5.01218H45.9216V19.7294H48.8543V11.5354C48.8543 10.7274 49.0216 10.0201 49.3584 9.41559C49.693 8.80902 50.1721 8.34307 50.7954 8.01565C51.4187 7.68823 52.1425 7.52452 52.9666 7.52452C54.1359 7.52452 55.0751 7.88552 55.7842 8.60753C56.4933 9.32953 56.8489 10.2866 56.8489 11.4788V19.7315H59.7815V10.5259C59.7815 9.37151 59.5368 8.34727 59.0494 7.45315C58.5599 6.55904 57.8697 5.87061 56.9786 5.38998H56.9765Z" fill="#586B7C"/>
<path d="M41.0956 5.47591C40.2045 4.99528 39.1838 4.75391 38.0333 4.75391C36.8829 4.75391 35.8244 5.00367 34.9145 5.5032C34.1427 5.92717 33.4963 6.51065 32.9734 7.25155V5.09812H30.0408V19.8153H32.9734V11.6214C32.9734 10.8133 33.1407 10.106 33.4775 9.50152C33.8122 8.89496 34.2912 8.42901 34.9145 8.10159C35.5379 7.77416 36.2616 7.61045 37.0858 7.61045C38.255 7.61045 39.1942 7.97146 39.9033 8.69346C40.6124 9.41547 40.968 10.3726 40.968 11.5647V19.8174H43.9007V10.6118C43.9007 9.45745 43.6559 8.43321 43.1685 7.53909C42.6791 6.64498 41.9888 5.95655 41.0977 5.47591H41.0956Z" fill="#586B7C"/>
<path d="M17.0489 19.278C17.94 19.7586 18.9608 20 20.1112 20C21.2617 20 22.3201 19.7502 23.23 19.2507C24.0019 18.8267 24.6482 18.2433 25.1711 17.5024L25.1711 19.6558L28.1038 19.6558L28.1038 4.93859L25.1711 4.93859L25.1711 13.1325C25.1711 13.9406 25.0038 14.6479 24.667 15.2524C24.3323 15.859 23.8533 16.3249 23.23 16.6523C22.6067 16.9797 21.8829 17.1435 21.0588 17.1435C19.8895 17.1435 18.9503 16.7825 18.2412 16.0604C17.5321 15.3384 17.1765 14.3814 17.1765 13.1892L17.1765 4.93649L14.2439 4.93649L14.2439 14.1421C14.2439 15.2965 14.4886 16.3207 14.976 17.2148C15.4655 18.1089 16.1557 18.7974 17.0468 19.278L17.0489 19.278Z" fill="#586B7C"/>
<path d="M73.7183 5.23611C72.5198 4.56238 71.1832 4.22656 69.7085 4.22656C68.2338 4.22656 66.9244 4.56238 65.7258 5.23611C64.5272 5.90985 63.588 6.83335 62.9082 8.00661C62.2284 9.17987 61.8875 10.4875 61.8875 11.9315C61.8875 13.3755 62.2284 14.6831 62.9082 15.8542C63.588 17.0275 64.5272 17.951 65.7258 18.6247C66.9244 19.2985 68.2505 19.6343 69.7085 19.6343C71.5095 19.6343 73.0825 19.1767 74.4233 18.2637C75.7641 17.3507 76.7137 16.1439 77.2701 14.6432H74.0488C73.6849 15.3547 73.118 15.9172 72.3524 16.3307C71.5848 16.7442 70.7125 16.9519 69.7357 16.9519C68.8341 16.9519 68.0142 16.7358 67.2779 16.3034C66.5395 15.871 65.9601 15.2687 65.5375 14.5005C65.3033 14.0744 65.138 13.6232 65.0334 13.1446H77.4688C77.5253 12.8172 77.5546 12.4142 77.5546 11.9336C77.5546 10.4917 77.2136 9.18407 76.5338 8.00871C75.854 6.83544 74.9127 5.91195 73.7163 5.23821L73.7183 5.23611ZM65.0732 10.5441C65.1778 10.1286 65.3326 9.73397 65.5375 9.36037C65.958 8.59219 66.5332 7.98982 67.2632 7.55745C67.9912 7.12509 68.8153 6.9089 69.7357 6.9089C70.656 6.9089 71.4216 7.11669 72.1516 7.53017C72.8796 7.94364 73.4548 8.51663 73.8773 9.24703C74.1116 9.65211 74.281 10.0866 74.3919 10.5462H65.0753L65.0732 10.5441Z" fill="#586B7C"/>
<path d="M84.9737 7.70227C85.7016 7.2888 86.5174 7.08101 87.4168 7.08101C88.4711 7.08101 89.4019 7.36016 90.2051 7.91845C91.0104 8.47675 91.5857 9.22604 91.9308 10.1684H95.037C94.7881 9.01406 94.3049 7.98562 93.5854 7.08101C92.8658 6.1764 91.9747 5.47538 90.9121 4.97585C89.8474 4.47633 88.6844 4.22656 87.4189 4.22656C85.9631 4.22656 84.6348 4.56238 83.4362 5.23611C82.2377 5.90985 81.2985 6.83335 80.6187 8.00661C79.9389 9.17987 79.5979 10.4875 79.5979 11.9315C79.5979 13.3755 79.9389 14.6831 80.6187 15.8542C81.2985 17.0275 82.2377 17.951 83.4362 18.6247C84.6348 19.2985 85.961 19.6343 87.4189 19.6343C88.6844 19.6343 89.8495 19.3845 90.9121 18.885C91.9768 18.3855 92.8679 17.6823 93.5854 16.7798C94.3049 15.8752 94.7881 14.8468 95.037 13.6924H91.9308C91.5857 14.6348 91.0104 15.3841 90.2051 15.9424C89.3998 16.5007 88.4711 16.7798 87.4168 16.7798C86.5153 16.7798 85.7016 16.5741 84.9737 16.1586C84.2457 15.7451 83.6705 15.1637 83.248 14.4123C82.8255 13.663 82.6163 12.8361 82.6163 11.9315C82.6163 11.0269 82.8275 10.1999 83.248 9.45062C83.6684 8.70133 84.2437 8.11995 84.9737 7.70437V7.70227Z" fill="#586B7C"/>
<path d="M105.676 7.25628V4.57394H101.738V0.246094H98.8049V4.57394H96.0166V7.25628H98.8049V19.2869H105.676V16.6046H101.738V7.25628H105.676Z" fill="#586B7C"/>
<path d="M0.000976562 15.5576V19.8897L2.65726 16.6713L5.31353 13.4528L10.0335 19.8897H13.5071L7.37726 10.9803L12.6476 4.91016H8.99016L0.000976562 15.5576Z" fill="#8FC44C"/>
<path d="M0.000976562 4.91016V13.3822L2.94777 9.8219V4.91016H0.000976562Z" fill="#8FC44C"/>
<rect x="0.000976562" width="2.9468" height="2.9468" rx="1.4734" fill="#8FC44C"/>
<path d="M2.94751 20.0156L2.94751 13.5081L0.000711899 17.0684L0.000712156 20.0156L2.94751 20.0156Z" fill="#8FC44C"/>
</svg>
