<svg width="115" height="22" viewBox="0 0 115 22" fill="none" xmlns="http://www.w3.org/2000/svg">
<path d="M62.0032 5.98103C61.0335 5.45798 59.9227 5.19531 58.6707 5.19531C57.4187 5.19531 56.2669 5.46712 55.2767 6.01072C54.4368 6.4721 53.7334 7.10707 53.1643 7.91334V5.5699H49.9729V21.5857H53.1643V12.6687C53.1643 11.7894 53.3464 11.0197 53.7129 10.3619C54.0771 9.70176 54.5984 9.1947 55.2767 8.83838C55.9551 8.48207 56.7427 8.30392 57.6395 8.30392C58.912 8.30392 59.934 8.69677 60.7057 9.48249C61.4774 10.2682 61.8644 11.3097 61.8644 12.6071V21.588H65.0558V11.5701C65.0558 10.3139 64.7894 9.19927 64.259 8.22626C63.7264 7.25325 62.9752 6.50408 62.0055 5.98103H62.0032Z" fill="white"/>
<path d="M44.722 6.07478C43.7523 5.55173 42.6414 5.28906 41.3894 5.28906C40.1375 5.28906 38.9857 5.56087 37.9955 6.10447C37.1555 6.56585 36.4521 7.20082 35.883 8.00709V5.66365H32.6917V21.6795H35.883V12.7625C35.883 11.8831 36.0651 11.1134 36.4316 10.4556C36.7958 9.79551 37.3171 9.28845 37.9955 8.93213C38.6738 8.57582 39.4614 8.39766 40.3583 8.39766C41.6307 8.39766 42.6528 8.79052 43.4245 9.57624C44.1961 10.362 44.5831 11.4035 44.5831 12.7008V21.6817H47.7745V11.6639C47.7745 10.4076 47.5082 9.29302 46.9778 8.32001C46.4451 7.347 45.694 6.59783 44.7242 6.07478H44.722Z" fill="white"/>
<path d="M18.5522 21.0971C19.5219 21.6201 20.6328 21.8828 21.8847 21.8828C23.1367 21.8828 24.2885 21.611 25.2787 21.0674C26.1187 20.606 26.822 19.9711 27.3911 19.1648L27.3911 21.5082L30.5825 21.5082L30.5825 5.49242L27.3911 5.49242L27.3911 14.4094C27.3911 15.2887 27.209 16.0585 26.8425 16.7163C26.4783 17.3764 25.9571 17.8834 25.2787 18.2397C24.6004 18.5961 23.8128 18.7742 22.9159 18.7742C21.6434 18.7742 20.6214 18.3814 19.8497 17.5956C19.078 16.8099 18.6911 15.7684 18.6911 14.471L18.6911 5.49013L15.4997 5.49013L15.4997 15.508C15.4997 16.7642 15.766 17.8789 16.2964 18.8519C16.829 19.8249 17.5802 20.574 18.5499 21.0971L18.5522 21.0971Z" fill="white"/>
<path d="M80.2225 5.81738C78.9182 5.0842 77.4636 4.71875 75.8588 4.71875C74.254 4.71875 72.829 5.0842 71.5247 5.81738C70.2204 6.55056 69.1983 7.55555 68.4585 8.83234C67.7187 10.1091 67.3477 11.5321 67.3477 13.1035C67.3477 14.675 67.7187 16.0979 68.4585 17.3724C69.1983 18.6492 70.2204 19.6542 71.5247 20.3874C72.829 21.1206 74.2722 21.486 75.8588 21.486C77.8187 21.486 79.5305 20.9881 80.9896 19.9945C82.4487 19.001 83.4822 17.6876 84.0877 16.0545H80.5821C80.1861 16.8288 79.5692 17.441 78.736 17.8909C77.9006 18.3409 76.9514 18.567 75.8884 18.567C74.9073 18.567 74.015 18.3317 73.2137 17.8612C72.4102 17.3907 71.7796 16.7352 71.3198 15.8992C71.0649 15.4355 70.885 14.9445 70.7712 14.4237H84.3039C84.3654 14.0674 84.3972 13.6289 84.3972 13.1058C84.3972 11.5367 84.0262 10.1137 83.2864 8.83462C82.5466 7.55783 81.5223 6.55285 80.2202 5.81967L80.2225 5.81738ZM70.8145 11.5938C70.9283 11.1415 71.0967 10.7121 71.3198 10.3056C71.7774 9.46959 72.4033 8.81406 73.1978 8.34355C73.9899 7.87303 74.8868 7.63778 75.8884 7.63778C76.89 7.63778 77.7231 7.8639 78.5175 8.31386C79.3097 8.76382 79.9357 9.38736 80.3955 10.1822C80.6504 10.623 80.8348 11.0958 80.9555 11.596H70.8168L70.8145 11.5938Z" fill="white"/>
<path d="M92.4715 8.50115C93.2636 8.05119 94.1514 7.82507 95.1302 7.82507C96.2775 7.82507 97.2904 8.12885 98.1645 8.73641C99.0409 9.34397 99.6669 10.1594 100.042 11.1849H103.423C103.152 9.92869 102.626 8.8095 101.843 7.82507C101.06 6.84064 100.09 6.07776 98.9339 5.53416C97.7753 4.99055 96.5096 4.71875 95.1325 4.71875C93.5482 4.71875 92.1027 5.0842 90.7984 5.81738C89.494 6.55056 88.472 7.55555 87.7322 8.83234C86.9924 10.1091 86.6213 11.5321 86.6213 13.1035C86.6213 14.675 86.9924 16.0979 87.7322 17.3724C88.472 18.6492 89.494 19.6542 90.7984 20.3874C92.1027 21.1206 93.5459 21.486 95.1325 21.486C96.5096 21.486 97.7775 21.2142 98.9339 20.6706C100.093 20.127 101.062 19.3618 101.843 18.3797C102.626 17.3953 103.152 16.2761 103.423 15.0198H100.042C99.6669 16.0454 99.0409 16.8608 98.1645 17.4684C97.2881 18.0759 96.2775 18.3797 95.1302 18.3797C94.1491 18.3797 93.2636 18.1559 92.4715 17.7036C91.6793 17.2537 91.0533 16.621 90.5935 15.8033C90.1337 14.9879 89.9061 14.088 89.9061 13.1035C89.9061 12.1191 90.136 11.2192 90.5935 10.4038C91.051 9.58836 91.677 8.95568 92.4715 8.50343V8.50115Z" fill="white"/>
<path d="M115 8.01156V5.09254H110.714V0.382812H107.522V5.09254H104.488V8.01156H107.522V21.1038H115V18.1848H110.714V8.01156H115Z" fill="white"/>
<path d="M0 17.0479V21.7623L2.89066 18.2598L5.78133 14.7574L10.9178 21.7623H14.6979L8.02715 12.0667L13.7626 5.46094H9.78237L0 17.0479Z" fill="#8FC44C"/>
<path d="M0 5.46094V14.6805L3.20682 10.8061V5.46094H0Z" fill="#8FC44C"/>
<rect y="0.117188" width="3.20682" height="3.20682" rx="1.60341" fill="#8FC44C"/>
<path d="M3.20679 21.8984L3.20679 14.8167L-2.98443e-05 18.6912L-2.95639e-05 21.8984L3.20679 21.8984Z" fill="#8FC44C"/>
</svg>
