<svg width="365" height="292" viewBox="0 0 365 292" fill="none" xmlns="http://www.w3.org/2000/svg">
<g clip-path="url(#clip0_3494_7299)">
<g filter="url(#filter0_d_3494_7299)">
<path d="M278.589 22.5318H49.8644C34.5412 22.5318 22.1193 34.9116 22.1193 50.1828V402.854C22.1193 418.125 34.5412 430.505 49.8644 430.505H278.589C293.912 430.505 306.334 418.125 306.334 402.854V50.1828C306.334 34.9116 293.912 22.5318 278.589 22.5318Z" fill="#8FC44C" fill-opacity="0.5"/>
</g>
<path d="M245.382 63.4363H86.2623C66.2511 63.4363 50.0176 79.6148 50.0176 99.5581C50.0176 119.501 66.2511 135.68 86.2623 135.68H245.382C265.393 135.68 281.627 119.501 281.627 99.5581C281.627 79.6148 265.393 63.4363 245.382 63.4363ZM245.382 130.898H86.2623C68.9057 130.898 54.7907 116.83 54.7907 99.5327C54.7907 82.2349 68.9057 68.1677 86.2623 68.1677H245.382C262.739 68.1677 276.854 82.2349 276.854 99.5327C276.854 116.83 262.739 130.898 245.382 130.898Z" fill="white" fill-opacity="0.5"/>
<path d="M78.9411 91.271H85.7811C87.5571 91.271 89.1251 91.631 90.4851 92.351C91.8451 93.055 92.9011 94.047 93.6531 95.327C94.4051 96.591 94.7811 98.039 94.7811 99.671C94.7811 101.303 94.4051 102.759 93.6531 104.039C92.9011 105.303 91.8451 106.295 90.4851 107.015C89.1251 107.719 87.5571 108.071 85.7811 108.071H78.9411V91.271ZM85.6851 106.535C87.1571 106.535 88.4451 106.247 89.5491 105.671C90.6531 105.079 91.5091 104.271 92.1171 103.247C92.7251 102.207 93.0291 101.015 93.0291 99.671C93.0291 98.327 92.7251 97.143 92.1171 96.119C91.5091 95.079 90.6531 94.271 89.5491 93.695C88.4451 93.103 87.1571 92.807 85.6851 92.807H80.7171V106.535H85.6851ZM102.825 95.351C104.473 95.351 105.737 95.767 106.617 96.599C107.497 97.415 107.937 98.631 107.937 100.247V108.071H106.305V106.103C105.921 106.759 105.353 107.271 104.601 107.639C103.865 108.007 102.985 108.191 101.961 108.191C100.553 108.191 99.4332 107.855 98.6012 107.183C97.7692 106.511 97.3532 105.623 97.3532 104.519C97.3532 103.447 97.7372 102.583 98.5052 101.927C99.2892 101.271 100.529 100.943 102.225 100.943H106.233V100.175C106.233 99.087 105.929 98.263 105.321 97.703C104.713 97.127 103.825 96.839 102.657 96.839C101.857 96.839 101.089 96.975 100.353 97.247C99.6172 97.503 98.9852 97.863 98.4572 98.327L97.6892 97.055C98.3292 96.511 99.0972 96.095 99.9932 95.807C100.889 95.503 101.833 95.351 102.825 95.351ZM102.225 106.847C103.185 106.847 104.009 106.631 104.697 106.199C105.385 105.751 105.897 105.111 106.233 104.279V102.215H102.273C100.113 102.215 99.0332 102.967 99.0332 104.471C99.0332 105.207 99.3132 105.791 99.8732 106.223C100.433 106.639 101.217 106.847 102.225 106.847ZM115.949 108.191C114.925 108.191 113.941 108.047 112.997 107.759C112.069 107.455 111.341 107.079 110.813 106.631L111.581 105.287C112.109 105.703 112.773 106.047 113.573 106.319C114.373 106.575 115.205 106.703 116.069 106.703C117.221 106.703 118.069 106.527 118.613 106.175C119.173 105.807 119.453 105.295 119.453 104.639C119.453 104.175 119.301 103.815 118.997 103.559C118.693 103.287 118.309 103.087 117.845 102.959C117.381 102.815 116.765 102.679 115.997 102.551C114.973 102.359 114.149 102.167 113.525 101.975C112.901 101.767 112.365 101.423 111.917 100.943C111.485 100.463 111.269 99.799 111.269 98.951C111.269 97.895 111.709 97.031 112.589 96.359C113.469 95.687 114.693 95.351 116.261 95.351C117.077 95.351 117.893 95.463 118.709 95.687C119.525 95.895 120.197 96.175 120.725 96.527L119.981 97.895C118.941 97.175 117.701 96.815 116.261 96.815C115.173 96.815 114.349 97.007 113.789 97.391C113.245 97.775 112.973 98.279 112.973 98.903C112.973 99.383 113.125 99.767 113.429 100.055C113.749 100.343 114.141 100.559 114.605 100.703C115.069 100.831 115.709 100.967 116.525 101.111C117.533 101.303 118.341 101.495 118.949 101.687C119.557 101.879 120.077 102.207 120.509 102.671C120.941 103.135 121.157 103.775 121.157 104.591C121.157 105.695 120.693 106.575 119.765 107.231C118.853 107.871 117.581 108.191 115.949 108.191ZM130.74 95.351C132.324 95.351 133.58 95.815 134.508 96.743C135.452 97.655 135.924 98.991 135.924 100.751V108.071H134.22V100.919C134.22 99.607 133.892 98.607 133.236 97.919C132.58 97.231 131.644 96.887 130.428 96.887C129.068 96.887 127.988 97.295 127.188 98.111C126.404 98.911 126.012 100.023 126.012 101.447V108.071H124.308V90.263H126.012V97.655C126.476 96.919 127.116 96.351 127.932 95.951C128.748 95.551 129.684 95.351 130.74 95.351ZM147.054 95.351C148.238 95.351 149.31 95.623 150.27 96.167C151.23 96.695 151.982 97.447 152.526 98.423C153.07 99.399 153.342 100.511 153.342 101.759C153.342 103.007 153.07 104.119 152.526 105.095C151.982 106.071 151.23 106.831 150.27 107.375C149.31 107.919 148.238 108.191 147.054 108.191C145.998 108.191 145.046 107.967 144.198 107.519C143.366 107.071 142.694 106.423 142.182 105.575V108.071H140.55V90.263H142.254V97.847C142.782 97.031 143.454 96.415 144.27 95.999C145.102 95.567 146.03 95.351 147.054 95.351ZM146.934 106.679C147.814 106.679 148.614 106.479 149.334 106.079C150.054 105.663 150.614 105.079 151.014 104.327C151.43 103.575 151.638 102.719 151.638 101.759C151.638 100.799 151.43 99.943 151.014 99.191C150.614 98.439 150.054 97.863 149.334 97.463C148.614 97.047 147.814 96.839 146.934 96.839C146.038 96.839 145.23 97.047 144.51 97.463C143.806 97.863 143.246 98.439 142.83 99.191C142.43 99.943 142.23 100.799 142.23 101.759C142.23 102.719 142.43 103.575 142.83 104.327C143.246 105.079 143.806 105.663 144.51 106.079C145.23 106.479 146.038 106.679 146.934 106.679ZM161.975 108.191C160.759 108.191 159.663 107.919 158.687 107.375C157.711 106.815 156.943 106.047 156.383 105.071C155.823 104.095 155.543 102.991 155.543 101.759C155.543 100.527 155.823 99.423 156.383 98.447C156.943 97.471 157.711 96.711 158.687 96.167C159.663 95.623 160.759 95.351 161.975 95.351C163.191 95.351 164.287 95.623 165.263 96.167C166.239 96.711 166.999 97.471 167.543 98.447C168.103 99.423 168.383 100.527 168.383 101.759C168.383 102.991 168.103 104.095 167.543 105.071C166.999 106.047 166.239 106.815 165.263 107.375C164.287 107.919 163.191 108.191 161.975 108.191ZM161.975 106.679C162.871 106.679 163.671 106.479 164.375 106.079C165.095 105.663 165.655 105.079 166.055 104.327C166.455 103.575 166.655 102.719 166.655 101.759C166.655 100.799 166.455 99.943 166.055 99.191C165.655 98.439 165.095 97.863 164.375 97.463C163.671 97.047 162.871 96.839 161.975 96.839C161.079 96.839 160.271 97.047 159.551 97.463C158.847 97.863 158.287 98.439 157.871 99.191C157.471 99.943 157.271 100.799 157.271 101.759C157.271 102.719 157.471 103.575 157.871 104.327C158.287 105.079 158.847 105.663 159.551 106.079C160.271 106.479 161.079 106.679 161.975 106.679ZM176.208 95.351C177.856 95.351 179.12 95.767 180 96.599C180.88 97.415 181.32 98.631 181.32 100.247V108.071H179.688V106.103C179.304 106.759 178.736 107.271 177.984 107.639C177.248 108.007 176.368 108.191 175.344 108.191C173.936 108.191 172.816 107.855 171.984 107.183C171.152 106.511 170.736 105.623 170.736 104.519C170.736 103.447 171.12 102.583 171.888 101.927C172.672 101.271 173.912 100.943 175.608 100.943H179.616V100.175C179.616 99.087 179.312 98.263 178.704 97.703C178.096 97.127 177.208 96.839 176.04 96.839C175.24 96.839 174.472 96.975 173.736 97.247C173 97.503 172.368 97.863 171.84 98.327L171.072 97.055C171.712 96.511 172.48 96.095 173.376 95.807C174.272 95.503 175.216 95.351 176.208 95.351ZM175.608 106.847C176.568 106.847 177.392 106.631 178.08 106.199C178.768 105.751 179.28 105.111 179.616 104.279V102.215H175.656C173.496 102.215 172.416 102.967 172.416 104.471C172.416 105.207 172.696 105.791 173.256 106.223C173.816 106.639 174.6 106.847 175.608 106.847ZM187.58 97.919C187.98 97.071 188.572 96.431 189.356 95.999C190.156 95.567 191.14 95.351 192.308 95.351V97.007L191.9 96.983C190.572 96.983 189.532 97.391 188.78 98.207C188.028 99.023 187.652 100.167 187.652 101.639V108.071H185.948V95.447H187.58V97.919ZM206.796 90.263V108.071H205.164V105.575C204.652 106.423 203.972 107.071 203.124 107.519C202.292 107.967 201.348 108.191 200.292 108.191C199.108 108.191 198.036 107.919 197.076 107.375C196.116 106.831 195.364 106.071 194.82 105.095C194.276 104.119 194.004 103.007 194.004 101.759C194.004 100.511 194.276 99.399 194.82 98.423C195.364 97.447 196.116 96.695 197.076 96.167C198.036 95.623 199.108 95.351 200.292 95.351C201.316 95.351 202.236 95.567 203.052 95.999C203.884 96.415 204.564 97.031 205.092 97.847V90.263H206.796ZM200.436 106.679C201.316 106.679 202.108 106.479 202.812 106.079C203.532 105.663 204.092 105.079 204.492 104.327C204.908 103.575 205.116 102.719 205.116 101.759C205.116 100.799 204.908 99.943 204.492 99.191C204.092 98.439 203.532 97.863 202.812 97.463C202.108 97.047 201.316 96.839 200.436 96.839C199.54 96.839 198.732 97.047 198.012 97.463C197.308 97.863 196.748 98.439 196.332 99.191C195.932 99.943 195.732 100.799 195.732 101.759C195.732 102.719 195.932 103.575 196.332 104.327C196.748 105.079 197.308 105.663 198.012 106.079C198.732 106.479 199.54 106.679 200.436 106.679Z" fill="white" fill-opacity="0.5"/>
<path d="M92.9808 170.395V187.195H91.5168L80.7168 173.563V187.195H78.9408V170.395H80.4048L91.2288 184.027V170.395H92.9808ZM103.264 187.315C102.048 187.315 100.952 187.043 99.9763 186.499C99.0003 185.939 98.2323 185.171 97.6723 184.195C97.1123 183.219 96.8323 182.115 96.8323 180.883C96.8323 179.651 97.1123 178.547 97.6723 177.571C98.2323 176.595 99.0003 175.835 99.9763 175.291C100.952 174.747 102.048 174.475 103.264 174.475C104.48 174.475 105.576 174.747 106.552 175.291C107.528 175.835 108.288 176.595 108.832 177.571C109.392 178.547 109.672 179.651 109.672 180.883C109.672 182.115 109.392 183.219 108.832 184.195C108.288 185.171 107.528 185.939 106.552 186.499C105.576 187.043 104.48 187.315 103.264 187.315ZM103.264 185.803C104.16 185.803 104.96 185.603 105.664 185.203C106.384 184.787 106.944 184.203 107.344 183.451C107.744 182.699 107.944 181.843 107.944 180.883C107.944 179.923 107.744 179.067 107.344 178.315C106.944 177.563 106.384 176.987 105.664 176.587C104.96 176.171 104.16 175.963 103.264 175.963C102.368 175.963 101.56 176.171 100.84 176.587C100.136 176.987 99.5763 177.563 99.1603 178.315C98.7603 179.067 98.5603 179.923 98.5603 180.883C98.5603 181.843 98.7603 182.699 99.1603 183.451C99.5763 184.203 100.136 184.787 100.84 185.203C101.56 185.603 102.368 185.803 103.264 185.803ZM119.799 186.427C119.479 186.715 119.079 186.939 118.599 187.099C118.135 187.243 117.647 187.315 117.135 187.315C115.951 187.315 115.039 186.995 114.399 186.355C113.759 185.715 113.439 184.811 113.439 183.643V176.011H111.183V174.571H113.439V171.811H115.143V174.571H118.983V176.011H115.143V183.547C115.143 184.299 115.327 184.875 115.695 185.275C116.079 185.659 116.623 185.851 117.327 185.851C117.679 185.851 118.015 185.795 118.335 185.683C118.671 185.571 118.959 185.411 119.199 185.203L119.799 186.427ZM122.901 174.571H124.605V187.195H122.901V174.571ZM123.765 171.811C123.413 171.811 123.117 171.691 122.877 171.451C122.637 171.211 122.517 170.923 122.517 170.587C122.517 170.267 122.637 169.987 122.877 169.747C123.117 169.507 123.413 169.387 123.765 169.387C124.117 169.387 124.413 169.507 124.653 169.747C124.893 169.971 125.013 170.243 125.013 170.563C125.013 170.915 124.893 171.211 124.653 171.451C124.413 171.691 124.117 171.811 123.765 171.811ZM133.522 170.707C132.786 170.707 132.226 170.907 131.842 171.307C131.474 171.707 131.29 172.299 131.29 173.083V174.571H135.178V176.011H131.338V187.195H129.634V176.011H127.378V174.571H129.634V173.011C129.634 171.859 129.962 170.947 130.618 170.275C131.29 169.603 132.234 169.267 133.45 169.267C133.93 169.267 134.394 169.339 134.842 169.483C135.29 169.611 135.666 169.803 135.97 170.059L135.394 171.331C134.898 170.915 134.274 170.707 133.522 170.707ZM139.402 174.571H141.106V187.195H139.402V174.571ZM140.266 171.811C139.914 171.811 139.618 171.691 139.378 171.451C139.138 171.211 139.018 170.923 139.018 170.587C139.018 170.267 139.138 169.987 139.378 169.747C139.618 169.507 139.914 169.387 140.266 169.387C140.618 169.387 140.914 169.507 141.154 169.747C141.394 169.971 141.514 170.243 141.514 170.563C141.514 170.915 141.394 171.211 141.154 171.451C140.914 171.691 140.618 171.811 140.266 171.811ZM151.102 187.315C149.854 187.315 148.734 187.043 147.742 186.499C146.766 185.955 145.998 185.195 145.438 184.219C144.878 183.227 144.598 182.115 144.598 180.883C144.598 179.651 144.878 178.547 145.438 177.571C145.998 176.595 146.766 175.835 147.742 175.291C148.734 174.747 149.854 174.475 151.102 174.475C152.19 174.475 153.158 174.691 154.006 175.123C154.87 175.539 155.55 176.155 156.046 176.971L154.774 177.835C154.358 177.211 153.83 176.747 153.19 176.443C152.55 176.123 151.854 175.963 151.102 175.963C150.19 175.963 149.366 176.171 148.63 176.587C147.91 176.987 147.342 177.563 146.926 178.315C146.526 179.067 146.326 179.923 146.326 180.883C146.326 181.859 146.526 182.723 146.926 183.475C147.342 184.211 147.91 184.787 148.63 185.203C149.366 185.603 150.19 185.803 151.102 185.803C151.854 185.803 152.55 185.651 153.19 185.347C153.83 185.043 154.358 184.579 154.774 183.955L156.046 184.819C155.55 185.635 154.87 186.259 154.006 186.691C153.142 187.107 152.174 187.315 151.102 187.315ZM163.809 174.475C165.457 174.475 166.721 174.891 167.601 175.723C168.481 176.539 168.921 177.755 168.921 179.371V187.195H167.289V185.227C166.905 185.883 166.337 186.395 165.585 186.763C164.849 187.131 163.969 187.315 162.945 187.315C161.537 187.315 160.417 186.979 159.585 186.307C158.753 185.635 158.337 184.747 158.337 183.643C158.337 182.571 158.721 181.707 159.489 181.051C160.273 180.395 161.513 180.067 163.209 180.067H167.217V179.299C167.217 178.211 166.913 177.387 166.305 176.827C165.697 176.251 164.809 175.963 163.641 175.963C162.841 175.963 162.073 176.099 161.337 176.371C160.601 176.627 159.969 176.987 159.441 177.451L158.673 176.179C159.313 175.635 160.081 175.219 160.977 174.931C161.873 174.627 162.817 174.475 163.809 174.475ZM163.209 185.971C164.169 185.971 164.993 185.755 165.681 185.323C166.369 184.875 166.881 184.235 167.217 183.403V181.339H163.257C161.097 181.339 160.017 182.091 160.017 183.595C160.017 184.331 160.297 184.915 160.857 185.347C161.417 185.763 162.201 185.971 163.209 185.971ZM180.198 186.427C179.878 186.715 179.478 186.939 178.998 187.099C178.534 187.243 178.046 187.315 177.534 187.315C176.35 187.315 175.438 186.995 174.798 186.355C174.158 185.715 173.838 184.811 173.838 183.643V176.011H171.582V174.571H173.838V171.811H175.542V174.571H179.382V176.011H175.542V183.547C175.542 184.299 175.726 184.875 176.094 185.275C176.478 185.659 177.022 185.851 177.726 185.851C178.078 185.851 178.414 185.795 178.734 185.683C179.07 185.571 179.358 185.411 179.598 185.203L180.198 186.427ZM183.3 174.571H185.004V187.195H183.3V174.571ZM184.164 171.811C183.812 171.811 183.516 171.691 183.276 171.451C183.036 171.211 182.916 170.923 182.916 170.587C182.916 170.267 183.036 169.987 183.276 169.747C183.516 169.507 183.812 169.387 184.164 169.387C184.516 169.387 184.812 169.507 185.052 169.747C185.292 169.971 185.412 170.243 185.412 170.563C185.412 170.915 185.292 171.211 185.052 171.451C184.812 171.691 184.516 171.811 184.164 171.811ZM194.905 187.315C193.689 187.315 192.593 187.043 191.617 186.499C190.641 185.939 189.873 185.171 189.313 184.195C188.753 183.219 188.473 182.115 188.473 180.883C188.473 179.651 188.753 178.547 189.313 177.571C189.873 176.595 190.641 175.835 191.617 175.291C192.593 174.747 193.689 174.475 194.905 174.475C196.121 174.475 197.217 174.747 198.193 175.291C199.169 175.835 199.929 176.595 200.473 177.571C201.033 178.547 201.313 179.651 201.313 180.883C201.313 182.115 201.033 183.219 200.473 184.195C199.929 185.171 199.169 185.939 198.193 186.499C197.217 187.043 196.121 187.315 194.905 187.315ZM194.905 185.803C195.801 185.803 196.601 185.603 197.305 185.203C198.025 184.787 198.585 184.203 198.985 183.451C199.385 182.699 199.585 181.843 199.585 180.883C199.585 179.923 199.385 179.067 198.985 178.315C198.585 177.563 198.025 176.987 197.305 176.587C196.601 176.171 195.801 175.963 194.905 175.963C194.009 175.963 193.201 176.171 192.481 176.587C191.777 176.987 191.217 177.563 190.801 178.315C190.401 179.067 190.201 179.923 190.201 180.883C190.201 181.843 190.401 182.699 190.801 183.451C191.217 184.203 191.777 184.787 192.481 185.203C193.201 185.603 194.009 185.803 194.905 185.803ZM211.224 174.475C212.808 174.475 214.064 174.939 214.992 175.867C215.936 176.779 216.408 178.115 216.408 179.875V187.195H214.704V180.043C214.704 178.731 214.376 177.731 213.72 177.043C213.064 176.355 212.128 176.011 210.912 176.011C209.552 176.011 208.472 176.419 207.672 177.235C206.888 178.035 206.496 179.147 206.496 180.571V187.195H204.792V174.571H206.424V176.899C206.888 176.131 207.528 175.539 208.344 175.123C209.176 174.691 210.136 174.475 211.224 174.475Z" fill="white" fill-opacity="0.5"/>
<path d="M96.3888 244.954V261.754H94.6848V248.314L88.0848 259.618H87.2448L80.6448 248.386V261.754H78.9408V244.954H80.4048L87.7008 257.41L94.9248 244.954H96.3888ZM112.495 255.97H101.935C102.031 257.282 102.535 258.346 103.447 259.162C104.359 259.962 105.511 260.362 106.903 260.362C107.687 260.362 108.407 260.226 109.063 259.954C109.719 259.666 110.287 259.25 110.767 258.706L111.727 259.81C111.167 260.482 110.463 260.994 109.615 261.346C108.783 261.698 107.863 261.874 106.855 261.874C105.559 261.874 104.407 261.602 103.399 261.058C102.407 260.498 101.631 259.73 101.071 258.754C100.511 257.778 100.231 256.674 100.231 255.442C100.231 254.21 100.495 253.106 101.023 252.13C101.567 251.154 102.303 250.394 103.231 249.85C104.175 249.306 105.231 249.034 106.399 249.034C107.567 249.034 108.615 249.306 109.543 249.85C110.471 250.394 111.199 251.154 111.727 252.13C112.255 253.09 112.519 254.194 112.519 255.442L112.495 255.97ZM106.399 250.498C105.183 250.498 104.159 250.89 103.327 251.674C102.511 252.442 102.047 253.45 101.935 254.698H110.887C110.775 253.45 110.303 252.442 109.471 251.674C108.655 250.89 107.631 250.498 106.399 250.498ZM119.371 261.874C118.347 261.874 117.363 261.73 116.419 261.442C115.491 261.138 114.763 260.762 114.235 260.314L115.003 258.97C115.531 259.386 116.195 259.73 116.995 260.002C117.795 260.258 118.627 260.386 119.491 260.386C120.643 260.386 121.491 260.21 122.035 259.858C122.595 259.49 122.875 258.978 122.875 258.322C122.875 257.858 122.723 257.498 122.419 257.242C122.115 256.97 121.731 256.77 121.267 256.642C120.803 256.498 120.187 256.362 119.419 256.234C118.395 256.042 117.571 255.85 116.947 255.658C116.323 255.45 115.787 255.106 115.339 254.626C114.907 254.146 114.691 253.482 114.691 252.634C114.691 251.578 115.131 250.714 116.011 250.042C116.891 249.37 118.115 249.034 119.683 249.034C120.499 249.034 121.315 249.146 122.131 249.37C122.947 249.578 123.619 249.858 124.147 250.21L123.403 251.578C122.363 250.858 121.123 250.498 119.683 250.498C118.595 250.498 117.771 250.69 117.211 251.074C116.667 251.458 116.395 251.962 116.395 252.586C116.395 253.066 116.547 253.45 116.851 253.738C117.171 254.026 117.563 254.242 118.027 254.386C118.491 254.514 119.131 254.65 119.947 254.794C120.955 254.986 121.763 255.178 122.371 255.37C122.979 255.562 123.499 255.89 123.931 256.354C124.363 256.818 124.579 257.458 124.579 258.274C124.579 259.378 124.115 260.258 123.187 260.914C122.275 261.554 121.003 261.874 119.371 261.874ZM131.113 261.874C130.089 261.874 129.105 261.73 128.161 261.442C127.233 261.138 126.505 260.762 125.977 260.314L126.745 258.97C127.273 259.386 127.937 259.73 128.737 260.002C129.537 260.258 130.369 260.386 131.233 260.386C132.385 260.386 133.233 260.21 133.777 259.858C134.337 259.49 134.617 258.978 134.617 258.322C134.617 257.858 134.465 257.498 134.161 257.242C133.857 256.97 133.473 256.77 133.009 256.642C132.545 256.498 131.929 256.362 131.161 256.234C130.137 256.042 129.313 255.85 128.689 255.658C128.065 255.45 127.529 255.106 127.081 254.626C126.649 254.146 126.433 253.482 126.433 252.634C126.433 251.578 126.873 250.714 127.753 250.042C128.633 249.37 129.857 249.034 131.425 249.034C132.241 249.034 133.057 249.146 133.873 249.37C134.689 249.578 135.361 249.858 135.889 250.21L135.145 251.578C134.105 250.858 132.865 250.498 131.425 250.498C130.337 250.498 129.513 250.69 128.953 251.074C128.409 251.458 128.137 251.962 128.137 252.586C128.137 253.066 128.289 253.45 128.593 253.738C128.913 254.026 129.305 254.242 129.769 254.386C130.233 254.514 130.873 254.65 131.689 254.794C132.697 254.986 133.505 255.178 134.113 255.37C134.721 255.562 135.241 255.89 135.673 256.354C136.105 256.818 136.321 257.458 136.321 258.274C136.321 259.378 135.857 260.258 134.929 260.914C134.017 261.554 132.745 261.874 131.113 261.874ZM143.887 249.034C145.535 249.034 146.799 249.45 147.679 250.282C148.559 251.098 148.999 252.314 148.999 253.93V261.754H147.367V259.786C146.983 260.442 146.415 260.954 145.663 261.322C144.927 261.69 144.047 261.874 143.023 261.874C141.615 261.874 140.495 261.538 139.663 260.866C138.831 260.194 138.415 259.306 138.415 258.202C138.415 257.13 138.799 256.266 139.567 255.61C140.351 254.954 141.591 254.626 143.287 254.626H147.295V253.858C147.295 252.77 146.991 251.946 146.383 251.386C145.775 250.81 144.887 250.522 143.719 250.522C142.919 250.522 142.151 250.658 141.415 250.93C140.679 251.186 140.047 251.546 139.519 252.01L138.751 250.738C139.391 250.194 140.159 249.778 141.055 249.49C141.951 249.186 142.895 249.034 143.887 249.034ZM143.287 260.53C144.247 260.53 145.071 260.314 145.759 259.882C146.447 259.434 146.959 258.794 147.295 257.962V255.898H143.335C141.175 255.898 140.095 256.65 140.095 258.154C140.095 258.89 140.375 259.474 140.935 259.906C141.495 260.322 142.279 260.53 143.287 260.53ZM165.363 249.13V260.218C165.363 262.362 164.835 263.946 163.779 264.97C162.739 266.01 161.163 266.53 159.051 266.53C157.883 266.53 156.771 266.354 155.715 266.002C154.675 265.666 153.827 265.194 153.171 264.586L154.035 263.29C154.643 263.834 155.379 264.258 156.243 264.562C157.123 264.866 158.043 265.018 159.003 265.018C160.603 265.018 161.779 264.642 162.531 263.89C163.283 263.154 163.659 262.002 163.659 260.434V258.826C163.131 259.626 162.435 260.234 161.571 260.65C160.723 261.066 159.779 261.274 158.739 261.274C157.555 261.274 156.475 261.018 155.499 260.506C154.539 259.978 153.779 259.25 153.219 258.322C152.675 257.378 152.403 256.314 152.403 255.13C152.403 253.946 152.675 252.89 153.219 251.962C153.779 251.034 154.539 250.314 155.499 249.802C156.459 249.29 157.539 249.034 158.739 249.034C159.811 249.034 160.779 249.25 161.643 249.682C162.507 250.114 163.203 250.738 163.731 251.554V249.13H165.363ZM158.907 259.762C159.819 259.762 160.643 259.57 161.379 259.186C162.115 258.786 162.683 258.234 163.083 257.53C163.499 256.826 163.707 256.026 163.707 255.13C163.707 254.234 163.499 253.442 163.083 252.754C162.683 252.05 162.115 251.506 161.379 251.122C160.659 250.722 159.835 250.522 158.907 250.522C157.995 250.522 157.171 250.714 156.435 251.098C155.715 251.482 155.147 252.026 154.731 252.73C154.331 253.434 154.131 254.234 154.131 255.13C154.131 256.026 154.331 256.826 154.731 257.53C155.147 258.234 155.715 258.786 156.435 259.186C157.171 259.57 157.995 259.762 158.907 259.762ZM181.12 255.97H170.56C170.656 257.282 171.16 258.346 172.072 259.162C172.984 259.962 174.136 260.362 175.528 260.362C176.312 260.362 177.032 260.226 177.688 259.954C178.344 259.666 178.912 259.25 179.392 258.706L180.352 259.81C179.792 260.482 179.088 260.994 178.24 261.346C177.408 261.698 176.488 261.874 175.48 261.874C174.184 261.874 173.032 261.602 172.024 261.058C171.032 260.498 170.256 259.73 169.696 258.754C169.136 257.778 168.856 256.674 168.856 255.442C168.856 254.21 169.12 253.106 169.648 252.13C170.192 251.154 170.928 250.394 171.856 249.85C172.8 249.306 173.856 249.034 175.024 249.034C176.192 249.034 177.24 249.306 178.168 249.85C179.096 250.394 179.824 251.154 180.352 252.13C180.88 253.09 181.144 254.194 181.144 255.442L181.12 255.97ZM175.024 250.498C173.808 250.498 172.784 250.89 171.952 251.674C171.136 252.442 170.672 253.45 170.56 254.698H179.512C179.4 253.45 178.928 252.442 178.096 251.674C177.28 250.89 176.256 250.498 175.024 250.498ZM187.996 261.874C186.972 261.874 185.988 261.73 185.044 261.442C184.116 261.138 183.388 260.762 182.86 260.314L183.628 258.97C184.156 259.386 184.82 259.73 185.62 260.002C186.42 260.258 187.252 260.386 188.116 260.386C189.268 260.386 190.116 260.21 190.66 259.858C191.22 259.49 191.5 258.978 191.5 258.322C191.5 257.858 191.348 257.498 191.044 257.242C190.74 256.97 190.356 256.77 189.892 256.642C189.428 256.498 188.812 256.362 188.044 256.234C187.02 256.042 186.196 255.85 185.572 255.658C184.948 255.45 184.412 255.106 183.964 254.626C183.532 254.146 183.316 253.482 183.316 252.634C183.316 251.578 183.756 250.714 184.636 250.042C185.516 249.37 186.74 249.034 188.308 249.034C189.124 249.034 189.94 249.146 190.756 249.37C191.572 249.578 192.244 249.858 192.772 250.21L192.028 251.578C190.988 250.858 189.748 250.498 188.308 250.498C187.22 250.498 186.396 250.69 185.836 251.074C185.292 251.458 185.02 251.962 185.02 252.586C185.02 253.066 185.172 253.45 185.476 253.738C185.796 254.026 186.188 254.242 186.652 254.386C187.116 254.514 187.756 254.65 188.572 254.794C189.58 254.986 190.388 255.178 190.996 255.37C191.604 255.562 192.124 255.89 192.556 256.354C192.988 256.818 193.204 257.458 193.204 258.274C193.204 259.378 192.74 260.258 191.812 260.914C190.9 261.554 189.628 261.874 187.996 261.874Z" fill="white" fill-opacity="0.5"/>
<path d="M240.021 110.7L229.862 100.601L233.257 97.2175L240.021 103.959L246.785 97.2175L250.18 100.601L240.021 110.7Z" fill="white" fill-opacity="0.5"/>
</g>
<defs>
<filter id="filter0_d_3494_7299" x="19.1193" y="19.5318" width="304.215" height="427.973" filterUnits="userSpaceOnUse" color-interpolation-filters="sRGB">
<feFlood flood-opacity="0" result="BackgroundImageFix"/>
<feColorMatrix in="SourceAlpha" type="matrix" values="0 0 0 0 0 0 0 0 0 0 0 0 0 0 0 0 0 0 127 0" result="hardAlpha"/>
<feOffset dx="7" dy="7"/>
<feGaussianBlur stdDeviation="5"/>
<feColorMatrix type="matrix" values="0 0 0 0 0.603922 0 0 0 0 0.560784 0 0 0 0 0.560784 0 0 0 0.35 0"/>
<feBlend mode="normal" in2="BackgroundImageFix" result="effect1_dropShadow_3494_7299"/>
<feBlend mode="normal" in="SourceGraphic" in2="effect1_dropShadow_3494_7299" result="shape"/>
</filter>
<clipPath id="clip0_3494_7299">
<rect width="365" height="291" fill="white" transform="translate(0.00976562 0.36792)"/>
</clipPath>
</defs>
</svg>
