<svg width="181" height="39" viewBox="0 0 181 39" fill="none" xmlns="http://www.w3.org/2000/svg">
<g clip-path="url(#clip0_2010_32666)">
<path d="M75.2289 8.53848V31.3385H71.2301V13.4468H71.1768L64.0322 31.3385H61.3663L54.0618 13.4468H54.0085V31.3385H50.3296V8.53848H56.0879L62.6993 25.4274H62.8059L69.7905 8.53848H75.2289ZM78.5346 10.2802C78.5346 9.64682 78.7478 9.11904 79.2277 8.69682C79.7076 8.27459 80.2407 8.06348 80.8805 8.06348C81.5737 8.06348 82.1602 8.27459 82.5867 8.69682C83.0132 9.11904 83.2798 9.64682 83.2798 10.2802C83.2798 10.9135 83.0666 11.4413 82.5867 11.8635C82.1068 12.2857 81.5737 12.4968 80.8805 12.4968C80.1874 12.4968 79.6542 12.2857 79.2277 11.8635C78.8012 11.3885 78.5346 10.8607 78.5346 10.2802ZM82.8533 14.9774V31.3385H78.9611V14.9774H82.8533ZM94.6365 28.5413C95.223 28.5413 95.8628 28.4357 96.5559 28.119C97.249 27.8552 97.8888 27.4857 98.4753 27.0635V30.6524C97.8355 31.0218 97.1424 31.2857 96.3426 31.444C95.5429 31.6024 94.6898 31.7079 93.7301 31.7079C91.2775 31.7079 89.3047 30.969 87.8118 29.4385C86.2656 27.9079 85.5192 25.9552 85.5192 23.6329C85.5192 20.994 86.3189 18.8301 87.8651 17.1413C89.4113 15.4524 91.5974 14.6079 94.4765 14.6079C95.223 14.6079 95.9694 14.7135 96.6625 14.8718C97.409 15.0301 97.9955 15.294 98.422 15.5052V19.1996C97.8355 18.7774 97.1957 18.4079 96.6092 18.1968C95.9694 17.9857 95.3296 17.8274 94.6898 17.8274C93.1436 17.8274 91.9173 18.3024 90.9576 19.3051C89.9978 20.3079 89.5713 21.6274 89.5713 23.3163C89.5713 24.9524 90.0512 26.2718 90.9576 27.169C91.8639 28.0663 93.0903 28.5413 94.6365 28.5413ZM109.512 14.7135C109.832 14.7135 110.099 14.7135 110.365 14.7663C110.632 14.819 110.845 14.8718 111.005 14.9246V18.8302C110.792 18.6718 110.525 18.5135 110.099 18.4079C109.672 18.3024 109.245 18.1968 108.659 18.1968C107.699 18.1968 106.899 18.619 106.26 19.4107C105.62 20.2024 105.247 21.4163 105.247 23.1052V31.3385H101.354V14.9774H105.247V17.5635H105.3C105.673 16.6663 106.206 15.9801 106.899 15.4524C107.646 14.9774 108.499 14.7135 109.512 14.7135ZM111.218 23.4218C111.218 20.7301 112.018 18.5663 113.511 16.9829C115.057 15.3996 117.19 14.6079 119.909 14.6079C122.468 14.6079 124.494 15.3468 125.934 16.8774C127.373 18.4079 128.12 20.4663 128.12 23.0524C128.12 25.6913 127.32 27.8024 125.827 29.3857C124.281 30.969 122.202 31.7607 119.536 31.7607C116.977 31.7607 114.95 31.0218 113.458 29.544C111.965 28.0135 111.218 25.9551 111.218 23.4218ZM115.27 23.2635C115.27 24.9524 115.644 26.2718 116.443 27.169C117.243 28.0663 118.363 28.5413 119.802 28.5413C121.189 28.5413 122.308 28.119 123.055 27.169C123.801 26.2718 124.174 24.9524 124.174 23.1579C124.174 21.4163 123.801 20.0968 123.055 19.1468C122.308 18.2496 121.189 17.7746 119.856 17.7746C118.416 17.7746 117.35 18.2496 116.55 19.1996C115.644 20.2024 115.27 21.5218 115.27 23.2635ZM133.931 19.3051C133.931 19.8329 134.091 20.3079 134.465 20.6246C134.838 20.9413 135.584 21.3107 136.811 21.7857C138.357 22.419 139.477 23.1052 140.063 23.844C140.703 24.6357 141.023 25.5329 141.023 26.6413C141.023 28.1718 140.436 29.3857 139.21 30.3357C138.037 31.2857 136.384 31.7079 134.358 31.7079C133.665 31.7079 132.918 31.6024 132.065 31.444C131.212 31.2857 130.519 31.0746 129.933 30.8107V27.0107C130.626 27.4857 131.426 27.9079 132.225 28.1718C133.025 28.4357 133.772 28.594 134.465 28.594C135.318 28.594 136.011 28.4885 136.384 28.2246C136.811 27.9607 137.024 27.5913 137.024 27.0107C137.024 26.4829 136.811 26.0607 136.384 25.6385C135.958 25.269 135.104 24.8468 133.931 24.3718C132.492 23.7913 131.479 23.1051 130.892 22.3663C130.306 21.6274 129.986 20.6774 129.986 19.5163C129.986 18.0385 130.572 16.8246 131.745 15.8746C132.918 14.9246 134.465 14.4496 136.331 14.4496C136.917 14.4496 137.557 14.5024 138.25 14.6607C138.943 14.819 139.583 14.9774 140.063 15.1357V18.8829C139.53 18.5663 138.943 18.2496 138.25 17.9857C137.557 17.7218 136.864 17.6163 136.224 17.6163C135.478 17.6163 134.891 17.7746 134.518 18.0385C134.145 18.4079 133.931 18.7774 133.931 19.3051ZM142.676 23.4218C142.676 20.7301 143.475 18.5663 144.968 16.9829C146.514 15.3996 148.647 14.6079 151.366 14.6079C153.926 14.6079 155.952 15.3468 157.391 16.8774C158.831 18.4079 159.577 20.4663 159.577 23.0524C159.577 25.6913 158.777 27.8024 157.285 29.3857C155.738 30.969 153.659 31.7607 150.993 31.7607C148.434 31.7607 146.408 31.0218 144.915 29.544C143.475 28.0135 142.676 25.9551 142.676 23.4218ZM146.728 23.2635C146.728 24.9524 147.101 26.2718 147.901 27.169C148.7 28.0663 149.82 28.5413 151.26 28.5413C152.646 28.5413 153.766 28.119 154.512 27.169C155.259 26.2718 155.632 24.9524 155.632 23.1579C155.632 21.4163 155.259 20.0968 154.512 19.1468C153.766 18.2496 152.646 17.7746 151.313 17.7746C149.873 17.7746 148.807 18.2496 148.007 19.1996C147.154 20.2024 146.728 21.5218 146.728 23.2635ZM172.533 18.144H166.722V31.3385H162.776V18.144H160.004V14.9774H162.776V12.7079C162.776 11.019 163.363 9.59404 164.482 8.48571C165.602 7.37737 167.042 6.84959 168.801 6.84959C169.281 6.84959 169.708 6.90237 170.081 6.90237C170.454 6.90237 170.774 7.00793 171.04 7.11348V10.4385C170.934 10.3857 170.667 10.2801 170.347 10.1746C170.027 10.069 169.654 10.0163 169.228 10.0163C168.428 10.0163 167.788 10.2802 167.362 10.7552C166.935 11.2302 166.722 12.0218 166.722 12.9718V14.9246H172.533V11.2301L176.426 10.069V14.9246H180.371V18.0913H176.426V25.744C176.426 26.7468 176.639 27.4329 176.959 27.8552C177.332 28.2774 177.918 28.4885 178.718 28.4885C178.931 28.4885 179.198 28.4357 179.518 28.3302C179.838 28.2246 180.104 28.119 180.318 27.9607V31.1274C180.051 31.2857 179.678 31.3913 179.091 31.4968C178.505 31.6024 177.972 31.6551 177.385 31.6551C175.732 31.6551 174.506 31.2329 173.706 30.3885C172.907 29.544 172.48 28.2246 172.48 26.4829L172.533 18.144Z" fill="#737373"/>
<path d="M18.6057 0.938477H0.371094V18.9885H18.6057V0.938477Z" fill="#F25022"/>
<path d="M38.7597 0.938477H20.5251V18.9885H38.7597V0.938477Z" fill="#7FBA00"/>
<path d="M18.6057 20.8885H0.371094V38.9385H18.6057V20.8885Z" fill="#00A4EF"/>
<path d="M38.7597 20.8885H20.5251V38.9385H38.7597V20.8885Z" fill="#FFB900"/>
</g>
<defs>
<clipPath id="clip0_2010_32666">
<rect width="180" height="38" fill="white" transform="translate(0.371094 0.938477)"/>
</clipPath>
</defs>
</svg>
