<svg width="178" height="178" viewBox="0 0 178 178" fill="none" xmlns="http://www.w3.org/2000/svg">
<path d="M40.6547 62.803C38.6197 62.803 36.9682 61.1502 36.9682 59.1151C36.9682 57.0801 38.6197 55.4272 40.6547 55.4272C44.7221 55.4272 48.0306 52.12 48.0306 48.0526C48.0306 43.9852 44.7221 40.6781 40.6547 40.6781C36.5873 40.6781 33.2802 43.9852 33.2802 48.0526C33.2802 50.0877 31.6287 51.7406 29.5923 51.7406C27.5572 51.7406 25.9057 50.0877 25.9057 48.0526C25.9057 39.9178 32.5199 33.3022 40.6547 33.3022C48.7895 33.3022 55.4051 39.9178 55.4051 48.0526C55.4051 56.1874 48.7895 62.803 40.6547 62.803Z" fill="#8FC44C" fill-opacity="0.5"/>
<path d="M51.7172 81.2401H29.5923C27.5572 81.2401 25.9057 79.5886 25.9057 77.5522V70.1776C25.9057 62.0428 32.5199 55.4272 40.6547 55.4272C42.6911 55.4272 44.3427 57.0801 44.3427 59.1152C44.3427 61.1502 42.6911 62.8031 40.6547 62.8031C36.5873 62.8031 33.2802 66.1102 33.2802 70.1776V73.8656H51.7172C53.7536 73.8656 55.4051 75.5171 55.4051 77.5522C55.4051 79.5886 53.7536 81.2401 51.7172 81.2401Z" fill="#8FC44C" fill-opacity="0.5"/>
<path d="M77.5311 62.803C69.3963 62.803 62.7807 56.1874 62.7807 48.0526V36.9902C62.7807 34.9551 64.4336 33.3022 66.4686 33.3022C68.5037 33.3022 70.1566 34.9551 70.1566 36.9902V48.0526C70.1566 52.12 73.4637 55.4272 77.5311 55.4272C79.5661 55.4272 81.219 57.0801 81.219 59.1151C81.219 61.1502 79.5661 62.803 77.5311 62.803Z" fill="#8FC44C" fill-opacity="0.5"/>
<path d="M88.5936 81.24C86.5586 81.24 84.9057 79.5885 84.9057 77.5521V36.9902C84.9057 34.9551 86.5586 33.3022 88.5936 33.3022C90.6287 33.3022 92.2816 34.9551 92.2816 36.9902V77.5521C92.2816 79.5885 90.6287 81.24 88.5936 81.24Z" fill="#8FC44C" fill-opacity="0.5"/>
<path d="M157.18 160.889C156.236 160.889 155.292 160.529 154.573 159.809C153.131 158.368 153.131 156.033 154.573 154.595C157.959 151.214 160.827 147.43 163.106 143.349C164.098 141.57 166.339 140.933 168.121 141.924C169.898 142.917 170.536 145.163 169.544 146.94C166.934 151.619 163.648 155.944 159.787 159.805C159.065 160.529 158.121 160.889 157.18 160.889Z" fill="#8FC44C" fill-opacity="0.5"/>
<path d="M173.404 177.114C173.105 177.114 172.807 177.078 172.509 177.004L145.622 170.275C137.156 174.751 127.673 177.114 118.092 177.114C89.9601 177.114 64.6266 156.822 59.1656 129.911C58.7605 127.913 60.0515 125.969 62.046 125.56C64.0257 125.177 65.9878 126.449 66.3929 128.439C71.172 151.988 93.3968 169.74 118.092 169.74C126.906 169.74 135.626 167.458 143.314 163.132C144.143 162.675 145.106 162.542 146.018 162.77L168.334 168.357L162.748 146.04C162.516 145.126 162.648 144.157 163.108 143.337C167.434 135.649 169.717 126.928 169.717 118.115C169.717 93.4194 151.965 71.1959 128.421 66.4169C126.426 66.0104 125.135 64.0631 125.54 62.0686C125.947 60.074 127.875 58.7763 129.891 59.1895C156.799 64.6505 177.092 89.9827 177.092 118.115C177.092 127.695 174.729 137.179 170.252 145.646L176.981 172.531C177.298 173.788 176.926 175.12 176.011 176.034C175.315 176.731 174.371 177.114 173.404 177.114Z" fill="#8FC44C" fill-opacity="0.5"/>
<path d="M20.0061 101.89C19.0621 101.89 18.1169 101.529 17.3985 100.81C13.5336 96.9453 10.2522 92.6159 7.64183 87.9435C6.64524 86.1664 7.28398 83.9207 9.06515 82.9295C10.8423 81.9329 13.088 82.5716 14.0792 84.3528C16.3587 88.427 19.2269 92.2135 22.6123 95.5989C24.0546 97.0412 24.0546 99.3719 22.6123 100.813C21.8939 101.529 20.95 101.89 20.0061 101.89Z" fill="#8FC44C" fill-opacity="0.5"/>
<path d="M3.78114 118.116C2.81425 118.116 1.87438 117.732 1.17352 117.034C0.255248 116.12 -0.109359 114.79 0.203933 113.531L6.93297 86.646C2.4537 78.179 0.0932007 68.6952 0.0932007 59.1155C0.0932007 26.5844 26.5624 0.115234 59.0934 0.115234C75.702 0.115234 91.0857 7.10354 102.406 19.7851C103.763 21.3043 103.631 23.6338 102.112 24.9909C100.595 26.344 98.2617 26.2198 96.9046 24.6965C86.9994 13.6003 73.5738 7.49111 59.0934 7.49111C30.6257 7.49111 7.46772 30.6477 7.46772 59.1155C7.46772 67.9282 9.75395 76.649 14.0766 84.3382C14.5371 85.1606 14.6694 86.1261 14.4412 87.0404L8.85458 109.357L31.1713 103.77C32.0936 103.538 33.0551 103.679 33.8748 104.132C41.5585 108.458 50.2794 110.74 59.0934 110.74C87.5598 110.74 110.718 87.5832 110.718 59.1155C110.718 50.2096 109.674 43.8411 107.336 38.4584C106.522 36.5922 107.381 34.4207 109.25 33.6092C111.123 32.7935 113.288 33.6537 114.099 35.5227C117.639 43.6615 118.092 52.4081 118.092 59.1155C118.092 91.6466 91.6245 118.116 59.0934 118.116C49.5124 118.116 40.0285 115.751 31.5629 111.275L4.67645 118.005C4.38206 118.078 4.07958 118.116 3.78114 118.116Z" fill="#8FC44C" fill-opacity="0.5"/>
<path d="M99.6552 25.9281H84.9048C82.8697 25.9281 81.2182 24.2766 81.2182 22.2402C81.2182 20.2052 82.8697 18.5536 84.9048 18.5536H95.9672V7.49116C95.9672 5.45476 97.6161 3.80322 99.6552 3.80322C101.694 3.80322 103.343 5.45476 103.343 7.49116V22.2402C103.343 24.2766 101.694 25.9281 99.6552 25.9281Z" fill="#8FC44C" fill-opacity="0.5"/>
<path d="M129.164 154.99H107.024C94.5786 154.986 86.329 146.88 85.986 146.535C85.2933 145.845 84.9057 144.909 84.9057 143.927V131.15C84.9057 128.672 86.1346 126.379 88.1953 125.011L107.031 112.455V110.74H114.406V114.428C114.406 115.659 113.791 116.81 112.766 117.496L92.2816 131.15V142.242C94.4935 143.991 99.9289 147.611 107.024 147.615H129.164C136.328 147.611 141.712 144.005 143.906 142.257V131.15L123.422 117.496C122.397 116.81 121.781 115.659 121.781 114.428V110.74H129.156V112.455L147.995 125.015C150.053 126.385 151.28 128.68 151.28 131.15V143.927C151.28 144.909 150.894 145.845 150.2 146.535C149.854 146.88 141.609 154.986 129.164 154.99Z" fill="#8FC44C" fill-opacity="0.5"/>
<path d="M118.092 118.116C111.547 118.116 105.444 114.583 102.174 108.892C101.16 107.126 101.769 104.87 103.531 103.855C105.297 102.845 107.55 103.45 108.568 105.213C110.526 108.624 114.176 110.74 118.092 110.74C124.192 110.74 129.155 105.777 129.155 99.6772V92.3027C129.155 86.203 124.192 81.2402 118.092 81.2402C116.179 81.2402 114.327 81.7601 112.601 82.7892C110.847 83.829 108.587 83.2496 107.547 81.4982C106.51 79.7467 107.085 77.4861 108.837 76.4463C111.683 74.757 114.881 73.8657 118.092 73.8657C128.259 73.8657 136.53 82.1356 136.53 92.3027V99.6772C136.53 109.844 128.259 118.116 118.092 118.116Z" fill="#8FC44C" fill-opacity="0.5"/>
</svg>
