<?xml version="1.0" encoding="UTF-8"?>
<svg id="Layer_1" data-name="Layer 1" xmlns="http://www.w3.org/2000/svg" viewBox="0 0 609.17 555.76">
  <defs>
    <style>
      .cls-1 {
        fill: #fff;
      }

      .cls-2 {
        fill: #6f4fa1;
      }

      .cls-3 {
        fill: #8fc44b;
      }
    </style>
  </defs>
  <path class="cls-2" d="M355.56,69h-105.53c-11.58,0-21,9.42-21,21v66.72c0,5.53,2.15,10.74,5.96,14.65v9.98c0,3.56,1.98,6.75,5.17,8.34,1.32.66,2.75.98,4.16.98,1.98,0,3.95-.64,5.61-1.9l14.6-11.05h91.04c11.58,0,21-9.42,21-21v-66.72c0-11.58-9.42-21-21-21Z"/>
  <path class="cls-3" d="M334.41,110.73h-66.32c-2.76,0-5-2.24-5-5s2.24-5,5-5h66.32c2.76,0,5,2.24,5,5s-2.24,5-5,5Z"/>
  <path class="cls-3" d="M334.41,142.27h-12.91c-2.76,0-5-2.24-5-5s2.24-5,5-5h12.91c2.76,0,5,2.24,5,5s-2.24,5-5,5Z"/>
  <path class="cls-3" d="M292.74,142.27h-24.66c-2.76,0-5-2.24-5-5s2.24-5,5-5h24.66c2.76,0,5,2.24,5,5s-2.24,5-5,5Z"/>
  <path class="cls-3" d="M406.24,47.5h-66.32c-2.76,0-5-2.24-5-5s2.24-5,5-5h66.33c2.76,0,5,2.24,5,5s-2.24,5-5,5Z"/>
  <path class="cls-3" d="M406.24,79.04h-12.91c-2.76,0-5-2.24-5-5s2.24-5,5-5h12.91c2.76,0,5,2.24,5,5s-2.24,5-5,5Z"/>
  <path class="cls-1" d="M433.12,127.43c-1.98,0-3.95-.64-5.61-1.9l-14.6-11.05h-25.35c-2.76,0-5-2.24-5-5s2.24-5,5-5h27.03c1.09,0,2.15.36,3.02,1.01l14.83,11.23v-10.79c0-1.51.68-2.94,1.86-3.89,2.61-2.11,4.1-5.22,4.1-8.56V26.76c0-6.07-4.93-11-11-11h-105.53c-6.07,0-11,4.93-11,11v31.23c0,2.76-2.24,5-5,5s-5-2.24-5-5v-31.23c0-11.58,9.42-21,21-21h105.53c11.58,0,21,9.42,21,21v66.72c0,5.53-2.14,10.74-5.96,14.65v9.98c0,3.56-1.98,6.75-5.17,8.34-1.32.66-2.74.98-4.15.98Z"/>
  <path class="cls-3" d="M205.74,183.95l-2.11-1.16c-1.32-.73-2.65-1.4-3.92-1.99-6.15-2.91-12.66-4.93-19.35-6.01l-7.04-1.13,26.42,138.85,6.14-3.67c6.33-3.79,12.02-8.47,16.91-13.93l1.61-1.8-18.66-109.16Z"/>
  <path class="cls-3" d="M423.91,417.99c-1.14-6.33-3.13-12.48-5.9-18.26-.65-1.36-1.35-2.73-2.09-4.05l-1.17-2.09-108.61-18.57-1.8,1.59c-5.5,4.88-10.22,10.54-14.04,16.83l-3.76,6.2,138.65,25.46-1.28-7.11Z"/>
  <path class="cls-1" d="M355.51,507.99c-1.28,0-2.72,0-4.31,0-4.62-.01-7.25-.02-8.87-.14v.09c-67.67-2.58-130.89-30.9-178-79.73-47.24-48.96-73.25-113.41-73.25-181.46,0-.12,0-.26,0-.39.06-42.74,34.85-77.49,77.61-77.49h0c11.57,0,22.71,2.49,33.1,7.41,2.12.98,4.32,2.15,6.5,3.45,1.26.75,2.12,2.01,2.37,3.45l18.64,109.05c.25,1.45-.15,2.92-1.09,4.05-6.18,7.39-13.8,13.65-22.25,18.29,16.13,34.85,43.82,62.54,78.68,78.67,4.68-8.37,10.96-15.92,18.36-22.05,1.12-.93,2.59-1.33,4.03-1.08l108.51,18.56c1.43.24,2.68,1.1,3.43,2.34,1.28,2.11,2.47,4.32,3.54,6.58,5.01,10.46,7.56,21.72,7.56,33.44,0,38.54-28.69,71.54-66.78,76.85-.26.05-.52.08-.79.08-1.08.04-3.43.05-7,.05ZM342.66,497.94c1.01.01,15.64.11,19.25.01,33.17-4.62,58.17-33.36,58.17-66.94,0-10.21-2.21-20.01-6.58-29.13-.61-1.28-1.26-2.54-1.94-3.76l-103.89-17.77c-6.77,6.01-12.36,13.41-16.24,21.52-1.16,2.42-4.02,3.5-6.48,2.44-40.66-17.44-72.64-49.43-90.07-90.08-1.06-2.48.03-5.35,2.47-6.5,8.19-3.84,15.66-9.4,21.71-16.15l-17.85-104.4c-1.23-.67-2.45-1.29-3.65-1.85-9.08-4.29-18.78-6.46-28.87-6.46-37.28,0-67.61,30.33-67.61,67.61,0,.09,0,.18,0,.27.03,135.7,106.13,246.01,241.58,251.2ZM101.07,246.91s0,0,0,.01c0,0,0,0,0-.01ZM101.07,246.87v.04s0-.03,0-.04Z"/>
</svg>