<?xml version="1.0" encoding="UTF-8"?>
<svg id="Layer_1" data-name="Layer 1" xmlns="http://www.w3.org/2000/svg" xmlns:xlink="http://www.w3.org/1999/xlink" viewBox="0 0 256.36 255.72">
  <defs>
    <style>
      .cls-1 {
        fill: url(#linear-gradient-2);
      }

      .cls-2 {
        fill: #fff;
      }

      .cls-3 {
        fill: #6f4fa1;
      }

      .cls-4 {
        fill: url(#linear-gradient-4);
      }

      .cls-5 {
        fill: url(#linear-gradient-3);
      }

      .cls-6 {
        fill: url(#linear-gradient-5);
      }

      .cls-7 {
        fill: #8fc44b;
      }

      .cls-8 {
        fill: url(#linear-gradient);
      }
    </style>
    <linearGradient id="linear-gradient" x1=".31" y1="240.88" x2="252.37" y2="240.88" gradientUnits="userSpaceOnUse">
      <stop offset="0" stop-color="#9264aa"/>
      <stop offset=".03" stop-color="#d6e591"/>
      <stop offset="1" stop-color="#8fc44b"/>
    </linearGradient>
    <linearGradient id="linear-gradient-2" x1="54.89" y1="213.95" x2="54.89" y2="112.05" gradientUnits="userSpaceOnUse">
      <stop offset="0" stop-color="#9264aa"/>
      <stop offset="1" stop-color="#6f4fa1"/>
    </linearGradient>
    <linearGradient id="linear-gradient-3" x1="106.75" y1="213.89" x2="106.75" y2="82.37" xlink:href="#linear-gradient"/>
    <linearGradient id="linear-gradient-4" x1="158.57" y1="213.95" x2="158.57" y2="119.98" xlink:href="#linear-gradient-2"/>
    <linearGradient id="linear-gradient-5" x1="210.43" y1="213.89" x2="210.43" y2="71.57" xlink:href="#linear-gradient"/>
  </defs>
  <rect class="cls-8" x=".31" y="230.08" width="252.06" height="21.59"/>
  <rect class="cls-1" x="38.7" y="112.05" width="32.38" height="101.9"/>
  <rect class="cls-5" x="90.56" y="82.37" width="32.38" height="131.53"/>
  <rect class="cls-4" x="142.38" y="119.98" width="32.38" height="93.96"/>
  <rect class="cls-6" x="194.24" y="71.57" width="32.38" height="142.32"/>
  <circle class="cls-7" cx="154.14" cy="68.93" r="11.77"/>
  <path class="cls-2" d="M255.18,227.22c-.81-.76-1.78-1.19-2.86-1.19H47.22c-2.21,0-4.05,1.84-4.05,4.05s1.84,4.05,4.05,4.05h201.04v13.49H8.1v-13.49h17.54c2.21,0,4.05-1.78,4.05-4.05s-1.78-3.99-3.99-4.05H4.05c-1.08,0-2.1.43-2.86,1.19s-1.19,1.78-1.19,2.86v21.59c0,1.08.43,2.16,1.19,2.86.76.76,1.78,1.19,2.86,1.19h248.27c1.08,0,2.1-.38,2.86-1.19.76-.76,1.19-1.78,1.19-2.86v-21.59c0-1.08-.43-2.1-1.19-2.86Z"/>
  <circle class="cls-2" cx="36.43" cy="230.08" r="4.05"/>
  <path class="cls-3" d="M38.7,217.94h32.38c2.21,0,4.05-1.84,4.05-4.05v-101.84c0-2.21-1.84-4.05-4.05-4.05h-32.38c-2.21,0-4.05,1.84-4.05,4.05v101.9c0,2.21,1.84,3.99,4.05,3.99ZM42.75,116.1h24.29v93.8h-24.29v-93.8Z"/>
  <path class="cls-7" d="M90.56,78.32c-2.21,0-4.05,1.84-4.05,4.05v131.53c0,2.21,1.84,4.05,4.05,4.05h32.38c2.21,0,4.05-1.84,4.05-4.05V82.37c0-2.21-1.84-4.05-4.05-4.05h-32.38ZM118.9,209.85h-24.29v-123.43h24.29v123.43Z"/>
  <path class="cls-3" d="M142.38,115.94c-2.21,0-4.05,1.84-4.05,4.05v93.96c0,2.21,1.84,4.05,4.05,4.05h32.38c2.21,0,4.05-1.84,4.05-4.05v-93.96c0-2.21-1.84-4.05-4.05-4.05h-32.38ZM170.71,209.85h-24.29v-85.81h24.29v85.81Z"/>
  <path class="cls-7" d="M190.19,71.57v142.32c0,2.21,1.84,4.05,4.05,4.05h32.38c2.21,0,4.05-1.84,4.05-4.05V71.57c0-2.21-1.84-4.05-4.05-4.05h-32.38c-2.27,0-4.05,1.84-4.05,4.05ZM198.29,75.62h24.29v134.23h-24.29V75.62Z"/>
  <path class="cls-2" d="M50.46,76.48c1.08,0,2.1-.43,2.91-1.24l41.02-42.31c2.32,1.35,5.02,2.21,7.88,2.21,3.08,0,5.94-.92,8.37-2.43l29.74,28.55c-1.24,2.27-2.05,4.86-2.05,7.61,0,8.69,7.07,15.81,15.81,15.81s15.81-7.07,15.81-15.81c0-3.51-1.19-6.69-3.13-9.34l36.59-45.77.7,11.39c.11,2.16,1.89,3.83,4.05,3.83h.27c2.21-.11,3.94-2.05,3.78-4.26l-1.24-20.89c-.05-1.08-.54-2.05-1.35-2.81s-1.84-1.08-2.91-1.03l-.86.05h-.38l-19.7,1.19c-2.21.11-3.94,2.05-3.78,4.26.16,2.21,2.05,3.94,4.26,3.78l10.9-.65-36.59,45.77c-1.94-.86-4.1-1.35-6.37-1.35-2.97,0-5.77.86-8.15,2.32l-29.85-28.66c1.19-2.21,1.94-4.75,1.94-7.45,0-8.69-7.07-15.81-15.81-15.81s-15.81,7.07-15.81,15.81c0,2.86.81,5.56,2.21,7.88l-41.13,42.37c-1.57,1.62-1.51,4.16.11,5.72.7.86,1.73,1.24,2.75,1.24ZM161.81,68.93c0,4.26-3.45,7.72-7.72,7.72s-7.72-3.45-7.72-7.72,3.45-7.72,7.72-7.72c4.26,0,7.72,3.45,7.72,7.72ZM102.28,11.66c4.26,0,7.72,3.45,7.72,7.72s-3.45,7.72-7.72,7.72-7.72-3.45-7.72-7.72,3.51-7.72,7.72-7.72Z"/>
</svg>