<?xml version="1.0" encoding="UTF-8"?>
<svg id="Layer_1" data-name="Layer 1" xmlns="http://www.w3.org/2000/svg" viewBox="0 0 440.9 437.8">
  <defs>
    <style>
      .cls-1, .cls-2, .cls-3, .cls-4, .cls-5, .cls-6, .cls-7, .cls-8, .cls-9 {
        stroke: #8fc44b;
      }

      .cls-1, .cls-2, .cls-3, .cls-4, .cls-5, .cls-6, .cls-8, .cls-9 {
        stroke-linecap: round;
      }

      .cls-1, .cls-2, .cls-3, .cls-4, .cls-5, .cls-7, .cls-8, .cls-9 {
        stroke-miterlimit: 10;
      }

      .cls-1, .cls-2, .cls-3, .cls-6, .cls-8 {
        stroke-width: 6px;
      }

      .cls-1, .cls-4, .cls-7, .cls-9 {
        fill: none;
      }

      .cls-2 {
        fill: #c4dea4;
      }

      .cls-10, .cls-3, .cls-5 {
        fill: #fff;
      }

      .cls-4, .cls-5, .cls-7 {
        stroke-width: 5px;
      }

      .cls-6 {
        stroke-linejoin: round;
      }

      .cls-6, .cls-8 {
        fill: #def5c2;
      }

      .cls-9 {
        stroke-width: 3px;
      }
    </style>
  </defs>
  <circle id="Background" class="cls-10" cx="218.6" cy="218.6" r="215.6"/>
  <line id="Right" class="cls-1" x1="22.5" y1="434.8" x2="434.2" y2="434.8"/>
  <line id="Left" class="cls-1" x1="3" y1="434.8" x2="13.3" y2="434.8"/>
  <path id="Line_1" data-name="Line #1" class="cls-4" d="M349.5,229.4c9.8,0,18.1,6.8,20.3,15.9"/>
  <path id="Line_2" data-name="Line #2" class="cls-5" d="M261.8,80.1c0,8.9-3.7,16.9-9.7,22.6"/>
  <path id="Shape" class="cls-8" d="M199.8,434.2h-125v-211.6c0-2,1.6-3.6,3.6-3.6h117.7c2,0,3.6,1.6,3.6,3.6v211.6h.1Z"/>
  <line id="Right-2" data-name="Right" class="cls-9" x1="146.2" y1="384.9" x2="172.9" y2="384.9"/>
  <line id="Left-2" data-name="Left" class="cls-9" x1="127.5" y1="384.9" x2="135.2" y2="384.9"/>
  <path id="Shape-2" data-name="Shape" class="cls-2" d="M369,434.2h-125V44.7c0-2.7,2.2-4.9,4.9-4.9h115.2c2.7,0,4.9,2.2,4.9,4.9v389.5Z"/>
  <line id="Left-3" data-name="Left" class="cls-1" x1="298.9" y1="39.8" x2="298.9" y2="3"/>
  <line id="Right-3" data-name="Right" class="cls-1" x1="313.5" y1="39.7" x2="313.5" y2="20.5"/>
  <path id="Shape-3" data-name="Shape" class="cls-3" d="M278.6,434.2h-119.7c-1.4,0-2.5-1.1-2.5-2.5v-240c0-2.9,1.7-5.6,4.3-6.9l113-54.5c3-1.7,6.9,0,7.3,3.4v297.9c0,1.5-1.1,2.6-2.4,2.6Z"/>
  <rect id="Shape-4" data-name="Shape" class="cls-6" x="236.8" y="179.1" width="20" height="205.3"/>
  <rect id="Shape-5" data-name="Shape" class="cls-6" x="181.7" y="299.5" width="19.9" height="134.6"/>
  <line id="Right-4" data-name="Right" class="cls-9" x1="222" y1="166.1" x2="225" y2="164.7"/>
  <line id="Left-4" data-name="Left" class="cls-9" x1="203.6" y1="175" x2="218" y2="168"/>
  <path id="Shape-6" data-name="Shape" class="cls-7" d="M35.5,339.9c.9,1,1.7,1.9,2.4,3,1.6,2.2,2.9,4.3,4.3,6.4,5.7,8.5,12.1,18.8,14.5,29.3.7,2.9,1.1,5.9,1.1,8.7-.4,14.9-12.6,26.9-27.6,26.9s-27.2-11.9-27.6-26.9c0-2.8.5-5.8,1.1-8.7,2.5-10.6,8.6-20.9,14.3-29.3,1.5-2.2,3.2-4.4,4.8-6.7.7-1,1.5-2,2.4-2.9l.9-1c2.2-2.4,6-2.4,8.2,0l1.2,1.2Z"/>
  <line id="Base_line" data-name="Base line" class="cls-4" x1="30.3" y1="370.6" x2="30.3" y2="432.9"/>
  <line id="Left_line" data-name="Left line" class="cls-4" x1="30.3" y1="402" x2="16.6" y2="386.1"/>
  <line id="Right_line" data-name="Right line" class="cls-4" x1="30.3" y1="386.5" x2="39.1" y2="376.3"/>
  <path id="Shape-7" data-name="Shape" class="cls-7" d="M416.1,341.6c.9,1,1.7,1.9,2.4,3,1.6,2.2,2.9,4.3,4.3,6.4,5.7,8.5,12.1,18.8,14.5,29.3.7,2.9,1.1,5.9,1.1,8.7-.4,14.9-12.6,26.9-27.6,26.9s-27.2-11.9-27.6-26.9c0-2.8.5-5.8,1.1-8.7,2.5-10.6,8.6-20.9,14.3-29.3,1.5-2.2,3.2-4.4,4.8-6.7.7-1,1.5-2,2.4-2.9l.9-1c2.2-2.4,6-2.4,8.2,0l1.2,1.2Z"/>
  <line id="Base_line-2" data-name="Base line" class="cls-4" x1="410.9" y1="372.2" x2="410.9" y2="434.5"/>
  <line id="Left_line-2" data-name="Left line" class="cls-4" x1="410.9" y1="403.6" x2="397.2" y2="387.7"/>
  <line id="Right_line-2" data-name="Right line" class="cls-4" x1="410.9" y1="388.2" x2="419.7" y2="377.9"/>
</svg>