<?xml version="1.0" encoding="UTF-8"?>
<svg xmlns="http://www.w3.org/2000/svg" viewBox="0 0 419.68 440.21">
  <defs>
    <style>
      .cls-1 {
        fill: #fff;
      }

      .cls-2 {
        fill: none;
      }

      .cls-2, .cls-3 {
        fill-rule: evenodd;
      }

      .cls-4 {
        fill: #8fc44b;
      }

      .cls-3 {
        fill: #def5c2;
      }
    </style>
  </defs>
  <g id="Layer_2" data-name="Layer 2">
    <circle class="cls-1" cx="209.84" cy="209.84" r="209.84"/>
  </g>
  <g id="Layer_3" data-name="Layer 3">
    <path class="cls-3" d="M98.41,297.96c63.82.95,111.04.75,126.13,0,.88-.04,8.42-.46,17.87-3.06.45-.12,10.09-2.87,20.43-10.21,3.74-2.66,4.67-3.85,4.6-5.11-.22-3.81-9.46-3.32-15.83-9.19-8.83-8.14-6.84-23.58-6.13-29.11.77-6.01,2.16-16.78,11.23-25.02,11.9-10.8,27.48-8.6,30.13-8.17,14.05,2.26,26.45,12.53,30.64,26.04,4.31,13.91-1.63,26.24-2.55,28.09-6.5,12.99-18.38,16.93-16.85,21.45,1.28,3.78,9.46.59,19.4,5.62,13.3,6.72,18.4,22.38,20.43,28.6,1.63,4.99,2.1,8.94,3.06,16.85,1.81,14.92.08,17.05,1.02,35.74.69,13.82,1.87,17.23,0,25.02-2.48,10.36-7.07,14.81-8.17,15.83-4.69,4.35-10.12,5.75-14.81,6.64-20.87,3.94-29.43-2.05-55.66-1.02-2.47.1-9.14.58-22.47,1.53-10.96.79-18.53,1.39-20.43,1.53-44.97,3.44-75.77-5.99-100.09-1.53,0,0-8.63,1.58-20.94-1.53-2.77-.7-6.03-1.76-7.66-4.6-1.89-3.29-.58-7.24,0-9.19,2.38-8.02.92-16.73,2.04-25.02,1.13-8.34,1.84-21.37,0-41.87"/>
  </g>
  <g id="Layer_1" data-name="Layer 1">
    <path class="cls-2" d="M210.09,18.53c114.52,0,207.36,94.4,207.36,210.84s-92.84,210.84-207.36,210.84S2.73,345.82,2.73,229.37,95.56,18.53,210.09,18.53Z"/>
    <path class="cls-4" d="M50.39,403.07v15.3c.1,2.5,2.2,4.4,4.7,4.3,2.3-.1,4.2-2,4.3-4.3v-15.3h-9Z"/>
    <path class="cls-4" d="M413.99,206.07h0l-72.5-61.3V58.97c0-2.5-2-4.5-4.5-4.5h-55c-2.5,0-4.5,2-4.5,4.5v31.6l-64.9-54.7c-1.7-1.4-4.2-1.4-5.8,0L5.19,205.97c-1.9,1.6-2.1,4.5-.5,6.4.9,1,2.1,1.6,3.4,1.6h42.2v179.1h9.1v-183.6c0-2.5-2-4.5-4.5-4.5H20.49L209.59,45.27l69.3,58.6c1.9,1.6,4.8,1.4,6.4-.5.7-.8,1.1-1.9,1.1-2.9v-36.9h46v83.3c0,1.3.6,2.6,1.6,3.5l64.7,54.6h-34.4c-2.5,0-4.5,2-4.5,4.5v45.8c0,2.5,2,4.5,4.5,4.5s4.5-2,4.5-4.5v-41.3h42.2c2.5,0,4.5-2,4.5-4.5.1-1.3-.5-2.6-1.5-3.4Z"/>
    <path class="cls-4" d="M166.89,337.77c-20.9,0-36.8,8.9-36.8,20.6s15.8,20.6,36.8,20.6,36.8-8.9,36.8-20.6-15.8-20.6-36.8-20.6ZM166.89,369.97c-17.2,0-27.7-6.8-27.7-11.6s10.5-11.6,27.7-11.6,27.7,6.7,27.7,11.6-10.5,11.6-27.7,11.6Z"/>
    <path class="cls-4" d="M309.49,332.07c-2.5,0-4.5,2-4.5,4.5v27.8h9.1v-27.8c-.1-2.5-2.1-4.5-4.6-4.5Z"/>
    <path class="cls-4" d="M305.09,281.67c19.5-13.1,24.7-39.6,11.6-59.2-13.1-19.5-39.6-24.7-59.2-11.6-19.5,13.1-24.7,39.6-11.6,59.2,3.1,4.6,7,8.5,11.6,11.6-8.5,2.2-16.4,6.4-22.9,12.2-1.7-.6-3.4-.9-5.1-.9h-125c-8.7,0-15.7,7-15.7,15.7v109.8c0,2.5,2,4.5,4.5,4.5h221.9c17.7,0,32-14.3,32-32v-54.8c0-25.7-17.3-48.1-42.1-54.5ZM247.69,246.27c0-18.5,15-33.6,33.6-33.6s33.6,15,33.6,33.6-15,33.6-33.6,33.6h0c-18.6,0-33.6-15.1-33.6-33.6ZM235.99,413.87H97.79v-105.3c0-3.7,3-6.6,6.6-6.6h124.9c.7,0,1.5.1,2.2.4l.3.3c.6.6,1.4,1,2.2,1.2,1.3,1.2,2,2.9,2,4.7v105.3ZM338.19,390.97c0,12.6-10.3,22.9-22.9,22.9h-38.5c-6.4-.2-11.5-5.5-11.3-12,.2-6.2,5.1-11.1,11.3-11.3h32.7c2.5,0,4.5-2,4.5-4.5v-11.7h-9.1v7.2h-28.2c-11.4,0-20.6,9.3-20.5,20.7v.1c0,4.1,1.2,8.1,3.5,11.5h-14.7v-105.3c0-3.3-1.1-6.6-3-9.2,8.4-6.8,18.8-10.5,29.6-10.5h19.4c26,0,47.2,21.1,47.2,47.2v54.9Z"/>
  </g>
</svg>