<?xml version="1.0" encoding="UTF-8"?>
<svg id="Layer_3" data-name="Layer 3" xmlns="http://www.w3.org/2000/svg" viewBox="0 0 390.77 312.02">
  <defs>
    <style>
      .cls-1 {
        opacity: .16;
      }

      .cls-1, .cls-2, .cls-3 {
        fill: #8fc44b;
      }

      .cls-3 {
        font-family: FranklinGothic-Heavy, 'Franklin Gothic Heavy';
        font-size: 87.92px;
        font-weight: 800;
      }

      .cls-4 {
        letter-spacing: 0em;
      }
    </style>
  </defs>
  <circle class="cls-1" cx="142.75" cy="182.2" r="87.17"/>
  <path class="cls-2" d="M78.8,272.99c3.81,1.56,8.17-.27,9.73-4.09,1.56-3.81-.27-8.17-4.09-9.73C27.4,236.11-.15,171.17,22.91,114.13c16.57-40.99,55.81-68.3,100.01-69.61l-16.79,17.08c-2.91,2.91-2.91,7.63,0,10.55s7.63,2.91,10.55,0l29.71-29.71c2.91-2.89,2.93-7.59.04-10.5-.01-.01-.03-.03-.04-.04L116.68,2.18c-2.91-2.91-7.63-2.91-10.55,0-2.91,2.91-2.91,7.63,0,10.55l17.08,16.93C53.5,31.35-1.65,89.23.04,158.95c1.21,50.22,32.09,94.95,78.62,113.9l.15.15Z"/>
  <path class="cls-2" d="M167.93,52.54c57.12,22.87,84.89,87.72,62.02,144.84-16.53,41.29-56.03,68.79-100.49,69.96l16.93-16.93c2.91-2.91,2.91-7.63,0-10.55-2.91-2.91-7.63-2.91-10.55,0l-29.71,29.71c-2.91,2.89-2.93,7.59-.04,10.5.01.01.03.03.04.04l29.71,29.71c2.91,2.91,7.63,2.91,10.55,0,2.91-2.91,2.91-7.63,0-10.55l-17.23-17.08c69.72-1.68,124.87-59.57,123.18-129.28-1.21-50.22-32.09-94.95-78.62-113.9-3.81-1.52-8.14.34-9.66,4.16-1.52,3.81.34,8.14,4.16,9.66l-.3-.3Z"/>
  <text class="cls-3" transform="translate(27.13 182.84)"><tspan class="cls-4" x="0" y="0">2</tspan><tspan x="51.13" y="0">4/7</tspan></text>
</svg>