<?xml version="1.0" encoding="UTF-8"?>
<svg id="Layer_1" data-name="Layer 1" xmlns="http://www.w3.org/2000/svg" viewBox="0 0 232.01 307.02">
  <defs>
    <style>
      .cls-1 {
        opacity: .25;
      }

      .cls-1, .cls-2, .cls-3 {
        fill: #8fc44b;
      }

      .cls-3 {
        opacity: .2;
      }
    </style>
  </defs>
  <polyline class="cls-1" points="180 206.88 218.57 271.1 174.31 255.79 167.01 301.98 121.98 227.04"/>
  <polyline class="cls-1" points="52.07 206.88 13.57 271.1 57.82 255.79 65.13 301.98 110.09 227.04"/>
  <circle class="cls-3" cx="116.04" cy="115.97" r="82.44"/>
  <path class="cls-2" d="M5.62,101.95c.26.06.58.06.84.06,2.39,0,4.39-1.68,4.78-4.01.19-1.29-.06-2.58-.84-3.62-.71-1.03-1.87-1.74-3.1-1.94-2.65-.52-5.17,1.29-5.62,3.88v.06c-.45,2.58,1.36,5.1,3.94,5.56Z"/>
  <path class="cls-2" d="M116.04,203.26c48.13,0,87.29-39.15,87.29-87.29S164.17,28.69,116.04,28.69,28.75,67.84,28.75,115.97c.06,48.13,39.22,87.29,87.29,87.29ZM116.04,38.44c42.77,0,77.6,34.82,77.6,77.6s-34.82,77.6-77.6,77.6-77.6-34.82-77.6-77.6c.06-42.84,34.82-77.6,77.6-77.6Z"/>
  <path class="cls-2" d="M97.95,143.04c-2.65,0-4.85,2.2-4.85,4.85s2.2,4.85,4.85,4.85h36.25c2.65,0,4.85-2.2,4.85-4.85s-2.2-4.85-4.85-4.85h-13.31v-72.88c0-1.87-1.1-3.62-2.84-4.39s-3.75-.52-5.17.71l-16.86,14.6c-2,1.74-2.26,4.78-.52,6.85s4.85,2.26,6.85.52l8.85-7.62v62.28h-13.24v-.06Z"/>
  <path class="cls-2" d="M186.33,208.1c27.72-21.26,45.68-54.59,45.68-92.07C232.01,52.07,180,0,116.04,0c-25.59,0-49.88,8.21-70.17,23.65C26.23,38.57,11.56,59.76,4.65,83.35c-.71,2.52.71,5.23,3.3,6.01,2.52.71,5.3-.84,6.01-3.3C27.14,41.09,69.07,9.69,116.04,9.69c58.47.13,106.22,47.81,106.28,106.35-.06,58.54-47.81,106.22-106.28,106.35-58.54-.13-106.28-47.81-106.35-106.35,0-1.87.06-3.81.13-5.69.06-1.29-.39-2.52-1.23-3.49-.9-.97-2.07-1.55-3.36-1.62-2.65-.19-4.97,1.94-5.1,4.59-.13,2.2-.13,4.26-.13,6.2,0,37.54,17.96,70.88,45.68,92.07l-36.37,60.54c-1.03,1.74-.9,3.94.39,5.56,1.29,1.62,3.42,2.2,5.36,1.55l38.77-13.37,6.4,40.51c.32,2,1.87,3.62,3.88,4.01.32.06.65.06.9.06,1.68,0,3.3-.9,4.13-2.33l43.61-72.62c1.1,0,2.13.19,3.23.19,1.03,0,2.07-.13,3.17-.13l43.61,72.62c.9,1.49,2.46,2.33,4.13,2.33.32,0,.65,0,.9-.06,2-.39,3.55-2,3.88-4.01l6.4-40.51,38.77,13.37c1.94.65,4.07.06,5.36-1.55s1.42-3.81.39-5.56l-36.25-60.6ZM67.77,288.09l-5.23-33.02c-.19-1.42-1.03-2.65-2.26-3.42-1.23-.71-2.71-.9-4.07-.45l-31.66,10.92,29.14-48.52c14.28,9.17,30.69,15.25,48.33,17.44l-34.24,57.05ZM175.87,251.2c-1.36-.45-2.84-.32-4.07.45-1.23.71-2.07,2-2.26,3.42l-5.23,33.02-34.24-56.98c17.64-2.13,34.05-8.27,48.33-17.44l29.14,48.46-31.66-10.92Z"/>
</svg>