<?xml version="1.0" encoding="UTF-8"?>
<svg xmlns="http://www.w3.org/2000/svg" viewBox="0 0 549 442">
  <defs>
    <style>
      .cls-1 {
        opacity: .28;
      }

      .cls-1, .cls-2 {
        fill: #8fc44b;
      }
    </style>
  </defs>
  <g id="Layer_2" data-name="Layer 2">
    <path class="cls-1" d="M254,382H46c-6.6,0-12,5.4-12,12v1c0,6.6,5.4,12,12,12h208v-25Z"/>
    <path class="cls-1" d="M288,382h-24v25h24c6.6,0,12-5.4,12-12v-1c0-6.6-5.4-12-12-12Z"/>
    <path class="cls-1" d="M462,295.5H155.55c-6.6,0-12,5.4-12,12v1c0,6.6,5.4,12,12,12h306.45v-25Z"/>
    <path class="cls-1" d="M504,295.5h-32v25h32c6.6,0,12-5.4,12-12v-1c0-6.6-5.4-12-12-12Z"/>
  </g>
  <g id="Capa_1" data-name="Capa 1">
    <path class="cls-2" d="M520.7,0H140.9c-15.6,0-28.3,12.7-28.3,28.3v191.3H28.3c-15.6,0-28.3,12.7-28.3,28.3v165.8c0,15.7,12.7,28.3,28.3,28.3h275.6c15.6,0,28.3-12.7,28.3-28.3v-59h188.5c15.6,0,28.3-12.7,28.3-28.3V28.3c0-15.6-12.6-28.3-28.3-28.3ZM304.1,413.9H28.2v-166.1h84.5v78.7c0,15.6,12.7,28.3,28.3,28.3h163.2v59.1h-.1ZM304.1,326.6h-163.3v-78.8h163.3v78.8ZM520.9,326.6h-188.7v-78.7c0-15.6-12.7-28.3-28.3-28.3h-163.1V28.2h380.1v298.4Z"/>
    <path class="cls-2" d="M356.3,212.7l79.9-79.9,28.3,26.8c4.1,4.3,9.6,6.5,15.3,6.5,2.6,0,5.2-.5,7.7-1.5,8.3-3.2,13.7-11,13.7-19.9v-75.5c0-11.8-9.6-21.4-21.4-21.4h-79.9c-8.4,0-16.1,5-19.5,12.7s-2,16.7,3.7,23l31.6,29.9-79.3,79.3,19.9,20ZM473,76v52.9l-56-52.9h56Z"/>
  </g>
</svg>