<?xml version="1.0" encoding="utf-8"?>
<!-- Generator: Adobe Illustrator 29.3.1, SVG Export Plug-In . SVG Version: 9.03 Build 55982)  -->
<svg version="1.1" baseProfile="basic" id="Layer_1" xmlns:xlink="http://www.w3.org/1999/xlink"
	 xmlns="http://www.w3.org/2000/svg" xmlns:xlink="http://www.w3.org/1999/xlink" x="0px" y="0px" viewBox="0 0 50 50"
	 xml:space="preserve">
<style type="text/css">
	.st0{fill:url(#SVGID_1_);}
	.st1{fill:url(#SVGID_00000161633252779109223140000005705945012581275801_);}
	.st2{fill:url(#SVGID_00000077282526524200230720000008156179107599346825_);}
	.st3{fill:url(#SVGID_00000141444746668112361700000008623566900579190968_);}
	.st4{fill:url(#SVGID_00000132772224264956676650000005138835046585775798_);}
	.st5{fill:#8FC44B;}
	.st6{fill:#FFFFFF;}
	.st7{fill:#6F4FA1;}
</style>
<linearGradient id="SVGID_1_" gradientUnits="userSpaceOnUse" x1="1.3937" y1="31.5391" x2="296.7383" y2="31.5391">
	<stop  offset="1.065558e-08" style="stop-color:#9264AA"/>
	<stop  offset="3.184364e-02" style="stop-color:#D6E591"/>
	<stop  offset="1" style="stop-color:#8FC44B"/>
</linearGradient>
<rect x="1.4" y="18.9" class="st0" width="295.3" height="25.3"/>
<linearGradient id="SVGID_00000160880794186353660650000001123263426986859152_" gradientUnits="userSpaceOnUse" x1="65.3447" y1="-1.745011e-02" x2="65.3447" y2="-119.4138">
	<stop  offset="1.065558e-08" style="stop-color:#9264AA"/>
	<stop  offset="1" style="stop-color:#6F4FA1"/>
</linearGradient>
<rect x="46.4" y="-119.4" style="fill:url(#SVGID_00000160880794186353660650000001123263426986859152_);" width="37.9" height="119.4"/>
<linearGradient id="SVGID_00000033340917568386143140000000789611023201803651_" gradientUnits="userSpaceOnUse" x1="126.1179" y1="-8.067909e-02" x2="126.1179" y2="-154.1956">
	<stop  offset="1.065558e-08" style="stop-color:#9264AA"/>
	<stop  offset="3.184364e-02" style="stop-color:#D6E591"/>
	<stop  offset="1" style="stop-color:#8FC44B"/>
</linearGradient>
<rect x="107.1" y="-154.2" style="fill:url(#SVGID_00000033340917568386143140000000789611023201803651_);" width="37.9" height="154.1"/>
<linearGradient id="SVGID_00000054960933504969512360000007402193674656174480_" gradientUnits="userSpaceOnUse" x1="186.8279" y1="-1.742599e-02" x2="186.8279" y2="-110.1176">
	<stop  offset="1.065558e-08" style="stop-color:#9264AA"/>
	<stop  offset="1" style="stop-color:#6F4FA1"/>
</linearGradient>
<rect x="167.9" y="-110.1" style="fill:url(#SVGID_00000054960933504969512360000007402193674656174480_);" width="37.9" height="110.1"/>
<linearGradient id="SVGID_00000050660050000993920820000017918753021590821051_" gradientUnits="userSpaceOnUse" x1="247.6012" y1="-8.067909e-02" x2="247.6012" y2="-166.8435">
	<stop  offset="1.065558e-08" style="stop-color:#9264AA"/>
	<stop  offset="3.184364e-02" style="stop-color:#D6E591"/>
	<stop  offset="1" style="stop-color:#8FC44B"/>
</linearGradient>
<rect x="228.6" y="-166.8" style="fill:url(#SVGID_00000050660050000993920820000017918753021590821051_);" width="37.9" height="166.8"/>
<circle class="st5" cx="181.6" cy="-169.9" r="13.8"/>
<path class="st6" d="M300,15.5c-0.9-0.9-2.1-1.4-3.4-1.4H56.4c-2.6,0-4.7,2.2-4.7,4.7c0,2.7,2.2,4.7,4.7,4.7h235.6v15.8H10.5V23.6
	h20.6c2.6,0,4.7-2.1,4.7-4.7c0-2.5-2.1-4.7-4.7-4.7h-0.1H5.8c-1.3,0-2.5,0.5-3.4,1.4C1.5,16.4,1,17.6,1,18.9v25.3
	c0,1.3,0.5,2.5,1.4,3.4c0.9,0.9,2.1,1.4,3.4,1.4h290.9c1.3,0,2.5-0.4,3.4-1.4c0.9-0.9,1.4-2.1,1.4-3.4V18.9
	C301.4,17.6,300.9,16.4,300,15.5z"/>
<circle class="st6" cx="43.7" cy="18.9" r="4.7"/>
<path class="st7" d="M46.4,4.7h37.9c2.6,0,4.7-2.2,4.7-4.7v-119.3c0-2.6-2.2-4.7-4.7-4.7H46.4c-2.6,0-4.7,2.2-4.7,4.7V0
	C41.6,2.6,43.8,4.7,46.4,4.7z M51.1-114.7h28.5V-4.8H51.1V-114.7z"/>
<path class="st5" d="M107.1-158.9c-2.6,0-4.7,2.2-4.7,4.7V-0.1c0,2.6,2.2,4.7,4.7,4.7h37.9c2.6,0,4.7-2.2,4.7-4.7v-154.1
	c0-2.6-2.2-4.7-4.7-4.7H107.1z M140.3-4.8h-28.5v-144.6h28.5V-4.8z"/>
<path class="st7" d="M167.9-114.9c-2.6,0-4.7,2.2-4.7,4.7V0c0,2.6,2.2,4.7,4.7,4.7h37.9c2.6,0,4.7-2.2,4.7-4.7v-110.1
	c0-2.6-2.2-4.7-4.7-4.7H167.9z M201.1-4.8h-28.5v-100.6h28.5V-4.8z"/>
<path class="st5" d="M223.9-166.8V-0.1c0,2.6,2.2,4.7,4.7,4.7h37.9c2.6,0,4.7-2.2,4.7-4.7v-166.8c0-2.6-2.2-4.7-4.7-4.7h-37.9
	C226-171.6,223.9-169.4,223.9-166.8z M233.4-162.1h28.5V-4.8h-28.5V-162.1z"/>
<path class="st6" d="M60.2-161.1c1.3,0,2.5-0.5,3.4-1.5l48.1-49.6c2.7,1.6,5.9,2.6,9.2,2.6c3.6,0,7-1.1,9.8-2.8l34.8,33.5
	c-1.5,2.7-2.4,5.7-2.4,8.9c0,10.2,8.3,18.5,18.5,18.5c10.2,0,18.5-8.3,18.5-18.5c0-4.1-1.4-7.8-3.7-10.9l42.9-53.6l0.8,13.3
	c0.1,2.5,2.2,4.5,4.7,4.5c0.1,0,0.2,0,0.3,0c2.6-0.1,4.6-2.4,4.4-5l-1.5-24.5c-0.1-1.3-0.6-2.4-1.6-3.3c-0.9-0.9-2.2-1.3-3.4-1.2
	l-1,0.1c-0.1,0-0.3,0-0.4,0l-23.1,1.4c-2.6,0.1-4.6,2.4-4.4,5s2.4,4.6,5,4.4l12.8-0.8L189.2-187c-2.3-1-4.8-1.6-7.5-1.6
	c-3.5,0-6.8,1-9.5,2.7l-35-33.6c1.4-2.6,2.3-5.6,2.3-8.7c0-10.2-8.3-18.5-18.5-18.5c-10.2,0-18.5,8.3-18.5,18.5
	c0,3.4,0.9,6.5,2.6,9.2l-48.2,49.6c-1.8,1.9-1.8,4.9,0.1,6.7C57.8-161.5,59-161.1,60.2-161.1z M190.6-169.9c0,5-4,9-9,9
	c-5,0-9-4-9-9s4-9,9-9C186.6-179,190.6-174.9,190.6-169.9z M120.9-237c5,0,9,4,9,9s-4,9-9,9s-9-4-9-9S115.9-237,120.9-237z"/>
</svg>
