<?xml version="1.0" ?><svg style="enable-background:new 0 0 512 512;" version="1.1" viewBox="0 0 512 512" xml:space="preserve" xmlns="http://www.w3.org/2000/svg" xmlns:xlink="http://www.w3.org/1999/xlink"><style type="text/css">
	.st0{display:none;}
	.st1{fill:#DEFFFE;}
	.st2{fill:#004358;}
	.st3{fill:#04BFBF;}
	.st4{fill:#BEDB39;}
</style><g id="Layer_1"/><g class="st0" id="Layer_3"/><g class="st0" id="Layer_5"/><g id="Layer_4"><g><g><path class="st1" d="M365.172,109.043h-32.771V68.498h16.771c8.837,0,16,7.163,16,16V109.043z"/><path class="st2" d="M332.401,68.498H226.872c-11.58,0-21,9.421-21,21v66.719c0,5.527,2.145,10.741,5.957,14.646v9.978     c0,3.559,1.979,6.754,5.166,8.339c1.325,0.658,2.746,0.983,4.158,0.983c1.984,0,3.952-0.642,5.61-1.896l14.597-11.049h91.042     c11.58,0,21-9.421,21-21V89.498C353.401,77.919,343.98,68.498,332.401,68.498z"/><g><path class="st4" d="M311.248,110.229h-66.325c-2.761,0-5-2.238-5-5s2.239-5,5-5h66.325c2.761,0,5,2.238,5,5      S314.009,110.229,311.248,110.229z"/></g><g><path class="st4" d="M311.248,141.773h-12.913c-2.761,0-5-2.238-5-5s2.239-5,5-5h12.913c2.761,0,5,2.238,5,5      S314.009,141.773,311.248,141.773z"/></g><g><path class="st4" d="M269.58,141.773h-24.657c-2.761,0-5-2.238-5-5s2.239-5,5-5h24.657c2.761,0,5,2.238,5,5      S272.341,141.773,269.58,141.773z"/></g><g><path class="st3" d="M383.085,46.996H316.76c-2.761,0-5-2.238-5-5s2.239-5,5-5h66.325c2.761,0,5,2.238,5,5      S385.846,46.996,383.085,46.996z"/></g><g><path class="st3" d="M383.085,78.54h-12.913c-2.761,0-5-2.238-5-5s2.239-5,5-5h12.913c2.761,0,5,2.238,5,5      S385.846,78.54,383.085,78.54z"/></g><g><path class="st2" d="M409.958,126.928c-1.985,0-3.952-0.641-5.61-1.896l-14.597-11.049h-25.35c-2.761,0-5-2.238-5-5s2.239-5,5-5      h27.029c1.089,0,2.149,0.355,3.018,1.014l14.834,11.228V105.43c0-1.511,0.683-2.939,1.857-3.889      c2.605-2.105,4.099-5.225,4.099-8.559V26.264c0-6.065-4.935-11-11-11H298.708c-6.065,0-11,4.935-11,11v31.234      c0,2.762-2.239,5-5,5s-5-2.238-5-5V26.264c0-11.579,9.42-21,21-21h105.529c11.58,0,21,9.421,21,21v66.719      c0,5.526-2.145,10.741-5.957,14.646v9.979c0,3.559-1.979,6.754-5.167,8.339C412.791,126.604,411.37,126.928,409.958,126.928z"/></g></g><g><g><path class="st1" d="M363.081,471.845c-4.033,0.756-17.075,2.195-20.817,2.47l0.008,0.094      c-67.5,5.45-133.622-15.181-186.186-58.093c-24.294-19.833-44.497-43.468-60.009-69.803c-1.713-2.908-6.141-0.609-4.738,2.461      c12.162,26.608,28.864,51.224,49.702,72.824c47.112,48.835,110.326,77.151,177.997,79.733l0.003-0.094      c3.76,0.17,16.859,0.286,20.963,0.013c31.185-4.344,56.059-27.254,64.057-56.569      C393.941,457.723,379.791,467.452,363.081,471.845z"/></g><g><path class="st4" d="M182.576,183.453l-2.114-1.162c-1.324-0.728-2.655-1.402-3.919-1.988      c-6.153-2.91-12.664-4.932-19.352-6.009l-7.04-1.134l26.424,138.855l6.141-3.674c6.328-3.786,12.017-8.473,16.91-13.933      l1.612-1.799L182.576,183.453z"/><path class="st4" d="M400.754,417.494c-1.143-6.327-3.132-12.478-5.904-18.265c-0.647-1.364-1.351-2.727-2.088-4.048      l-1.165-2.089l-108.613-18.574l-1.795,1.593c-5.497,4.878-10.22,10.542-14.038,16.833l-3.764,6.201l138.652,25.46      L400.754,417.494z"/><g><path class="st2" d="M332.352,507.49c-1.28,0-2.718-0.002-4.311-0.007c-4.619-0.014-7.251-0.022-8.869-0.144l-0.003,0.094       c-67.67-2.582-130.884-30.897-177.997-79.733c-47.236-48.963-73.25-113.406-73.25-181.457c0-0.125,0.002-0.261,0.007-0.394       c0.064-42.74,34.855-77.489,77.61-77.489l0,0c11.573,0,22.71,2.492,33.103,7.407c2.119,0.98,4.319,2.146,6.501,3.445       c1.257,0.749,2.123,2.011,2.37,3.453l18.644,109.051c0.247,1.445-0.153,2.925-1.093,4.05       c-6.178,7.39-13.803,13.646-22.253,18.291c16.126,34.853,43.819,62.543,78.677,78.673c4.68-8.366,10.958-15.923,18.356-22.053       c1.123-0.931,2.594-1.327,4.033-1.078l108.506,18.556c1.43,0.244,2.682,1.097,3.434,2.337c1.276,2.106,2.468,4.319,3.54,6.576       c5.014,10.465,7.56,21.72,7.56,33.437c0,38.545-28.692,71.542-66.782,76.847c-0.259,0.048-0.522,0.076-0.787,0.083       C338.265,507.471,335.917,507.49,332.352,507.49z M319.503,497.437c1.014,0.012,15.641,0.105,19.25,0.01       c33.173-4.621,58.165-33.365,58.165-66.943c0-10.209-2.215-20.01-6.584-29.13c-0.608-1.279-1.256-2.535-1.938-3.757       l-103.888-17.766c-6.771,6.008-12.36,13.407-16.238,21.519c-1.158,2.42-4.018,3.496-6.482,2.439       c-40.658-17.436-72.645-49.429-90.069-90.084c-1.062-2.479,0.032-5.353,2.474-6.497c8.194-3.84,15.658-9.4,21.711-16.155       l-17.849-104.399c-1.227-0.674-2.448-1.293-3.649-1.849c-9.083-4.295-18.783-6.464-28.865-6.465       c-37.28,0-67.61,30.33-67.61,67.61c0,0.09-0.002,0.179-0.007,0.269C77.949,381.938,184.051,492.245,319.503,497.437z        M77.911,246.407c0,0.004-0.001,0.008-0.001,0.013C77.91,246.415,77.911,246.411,77.911,246.407z M77.915,246.365       c-0.001,0.013-0.002,0.026-0.003,0.039C77.912,246.391,77.914,246.378,77.915,246.365z"/></g></g></g></g></g></svg>