<?xml version="1.0" ?><svg id="Layer_1" style="enable-background:new 0 0 66 66;" version="1.1" viewBox="0 0 66 66" xml:space="preserve" xmlns="http://www.w3.org/2000/svg" xmlns:xlink="http://www.w3.org/1999/xlink"><style type="text/css">
	.st0{fill:#D4EFFC;}
	.st1{fill:#A0DFFF;}
	.st2{fill:#364DEC;}
	.st3{fill:#FABF63;}
	.st4{fill:#F5B6A3;}
	.st5{fill:#26CD9D;}
	.st6{fill:#FFFFFF;}
</style><g><g><g><path class="st1" d="M59.14,64.12c-0.4,0-0.73-0.33-0.73-0.73v-5.63c0-0.4,0.33-0.73,0.73-0.73s0.73,0.33,0.73,0.73v5.63     C59.87,63.79,59.54,64.12,59.14,64.12z"/></g><g><path class="st1" d="M62.31,56.84c0,1.75-1.42,3.17-3.17,3.17c-1.75,0-3.17-1.42-3.17-3.17c0-1.75,1.42-5.26,3.17-5.26     C60.89,51.57,62.31,55.08,62.31,56.84z"/></g></g><g><g><path class="st1" d="M6.86,64.12c-0.4,0-0.73-0.33-0.73-0.73v-5.63c0-0.4,0.33-0.73,0.73-0.73s0.73,0.33,0.73,0.73v5.63     C7.6,63.79,7.27,64.12,6.86,64.12z"/></g><g><path class="st1" d="M10.03,56.84c0,1.75-1.42,3.17-3.17,3.17c-1.75,0-3.17-1.42-3.17-3.17c0-1.75,1.42-5.26,3.17-5.26     C8.61,51.57,10.03,55.08,10.03,56.84z"/></g></g><g><path class="st2" d="M64.27,64.12H1.73c-0.4,0-0.73-0.33-0.73-0.73s0.33-0.73,0.73-0.73h62.53c0.4,0,0.73,0.33,0.73,0.73    S64.67,64.12,64.27,64.12z"/></g><g><rect class="st0" height="39.68" width="2.04" x="14.59" y="23.71"/></g><g><rect class="st0" height="39.68" width="2.04" x="49.37" y="23.71"/></g><g><path class="st2" d="M51.41,64.12H14.59c-0.4,0-0.73-0.33-0.73-0.73V23.7c0-0.4,0.33-0.73,0.73-0.73h36.82    c0.4,0,0.73,0.33,0.73,0.73v39.68C52.14,63.79,51.81,64.12,51.41,64.12z M15.32,62.66h35.35V24.44H15.32V62.66z"/></g><g><rect class="st0" height="4.26" width="2.95" x="11.64" y="19.45"/></g><g><rect class="st0" height="4.26" width="2.95" x="51.41" y="19.45"/></g><g><rect class="st0" height="13.07" width="1.99" x="19.06" y="6.37"/></g><g><rect class="st0" height="13.07" width="1.99" x="44.95" y="6.37"/></g><g><rect class="st0" height="3.76" width="2.07" x="16.63" y="2.61"/></g><g><rect class="st0" height="3.76" width="2.07" x="47.29" y="2.61"/></g><g><path class="st2" d="M54.36,24.44H11.64c-0.4,0-0.73-0.33-0.73-0.73v-4.25c0-0.4,0.33-0.73,0.73-0.73h42.71    c0.4,0,0.73,0.33,0.73,0.73v4.25C55.09,24.11,54.76,24.44,54.36,24.44z M12.38,22.97h41.25v-2.79H12.38V22.97z"/></g><g><path class="st2" d="M46.94,20.18H19.06c-0.4,0-0.73-0.33-0.73-0.73V6.37c0-0.4,0.33-0.73,0.73-0.73h27.89    c0.4,0,0.73,0.33,0.73,0.73v13.08C47.68,19.86,47.35,20.18,46.94,20.18z M19.79,18.72h26.42V7.11H19.79V18.72z"/></g><g><path class="st2" d="M49.36,7.11H16.64c-0.4,0-0.73-0.33-0.73-0.73V2.61c0-0.4,0.33-0.73,0.73-0.73h32.73    c0.4,0,0.73,0.33,0.73,0.73v3.76C50.1,6.78,49.77,7.11,49.36,7.11z M17.37,5.64h31.26v-2.3H17.37V5.64z"/></g><g><g><rect class="st5" height="5.57" width="5.36" x="26.46" y="26.65"/></g><g><rect class="st5" height="5.57" width="5.36" x="34.17" y="26.65"/></g><g><rect class="st5" height="5.57" width="5.36" x="18.75" y="26.65"/></g><g><rect class="st5" height="5.57" width="5.36" x="41.88" y="26.65"/></g></g><g><g><rect class="st5" height="5.57" width="5.36" x="26.46" y="34.48"/></g><g><rect class="st5" height="5.57" width="5.36" x="34.17" y="34.48"/></g><g><rect class="st5" height="5.57" width="5.36" x="18.75" y="34.48"/></g><g><rect class="st5" height="5.57" width="5.36" x="41.88" y="34.48"/></g></g><g><g><rect class="st5" height="5.57" width="5.36" x="26.46" y="42.31"/></g><g><rect class="st5" height="5.57" width="5.36" x="34.17" y="42.31"/></g><g><rect class="st5" height="5.57" width="5.36" x="18.75" y="42.31"/></g><g><rect class="st5" height="5.57" width="5.36" x="41.88" y="42.31"/></g></g><g><g><rect class="st1" height="8.62" width="3.66" x="22.49" y="8.6"/></g><g><rect class="st1" height="8.62" width="3.66" x="28.28" y="8.6"/></g><g><rect class="st1" height="8.62" width="3.66" x="34.07" y="8.6"/></g><g><rect class="st1" height="8.62" width="3.66" x="39.85" y="8.6"/></g></g><g><path class="st2" d="M40.31,64.12H25.69c-0.4,0-0.73-0.33-0.73-0.73V52.27c0-0.4,0.33-0.73,0.73-0.73h14.61    c0.4,0,0.73,0.33,0.73,0.73v11.12C41.04,63.79,40.71,64.12,40.31,64.12z M26.43,62.66h13.15V53H26.43V62.66z"/></g><g><path class="st2" d="M43.04,53H22.96c-0.4,0-0.73-0.33-0.73-0.73c0-0.4,0.33-0.73,0.73-0.73h20.09c0.4,0,0.73,0.33,0.73,0.73    C43.78,52.67,43.45,53,43.04,53z"/></g><g><path class="st2" d="M33,64.12c-0.4,0-0.73-0.33-0.73-0.73V52.27c0-0.4,0.33-0.73,0.73-0.73s0.73,0.33,0.73,0.73v11.12    C33.73,63.79,33.4,64.12,33,64.12z"/></g></g></svg>