<?xml version="1.0" encoding="utf-8"?>
<!-- Generator: Adobe Illustrator 29.3.1, SVG Export Plug-In . SVG Version: 9.03 Build 55982)  -->
<svg version="1.1" baseProfile="basic" id="Layer_1"
	 xmlns="http://www.w3.org/2000/svg" xmlns:xlink="http://www.w3.org/1999/xlink" x="0px" y="0px" viewBox="0 0 512 512"
	 xml:space="preserve">
<path d="M96.8,430.2v15.3c0.1,2.5,2.2,4.4,4.7,4.3c2.3-0.1,4.2-2,4.3-4.3v-15.3H96.8z"/>
<path d="M460.4,233.2L460.4,233.2l-72.5-61.3V86.1c0-2.5-2-4.5-4.5-4.5h-55c-2.5,0-4.5,2-4.5,4.5v31.6L259,63
	c-1.7-1.4-4.2-1.4-5.8,0L51.6,233.1c-1.9,1.6-2.1,4.5-0.5,6.4c0.9,1,2.1,1.6,3.4,1.6h42.2v179.1h9.1V236.6c0-2.5-2-4.5-4.5-4.5H66.9
	L256,72.4l69.3,58.6c1.9,1.6,4.8,1.4,6.4-0.5c0.7-0.8,1.1-1.9,1.1-2.9V90.7h46V174c0,1.3,0.6,2.6,1.6,3.5l64.7,54.6h-34.4
	c-2.5,0-4.5,2-4.5,4.5v45.8c0,2.5,2,4.5,4.5,4.5c2.5,0,4.5-2,4.5-4.5v-41.3h42.2c2.5,0,4.5-2,4.5-4.5
	C462,235.3,461.4,234,460.4,233.2z"/>
<path d="M213.3,364.9c-20.9,0-36.8,8.9-36.8,20.6s15.8,20.6,36.8,20.6s36.8-8.9,36.8-20.6S234.3,364.9,213.3,364.9z M213.3,397.1
	c-17.2,0-27.7-6.8-27.7-11.6s10.5-11.6,27.7-11.6s27.7,6.7,27.7,11.6S230.5,397.1,213.3,397.1z"/>
<path d="M355.9,359.2c-2.5,0-4.5,2-4.5,4.5v27.8h9.1v-27.8C360.4,361.2,358.4,359.2,355.9,359.2z"/>
<path d="M351.5,308.8c19.5-13.1,24.7-39.6,11.6-59.2c-13.1-19.5-39.6-24.7-59.2-11.6c-19.5,13.1-24.7,39.6-11.6,59.2
	c3.1,4.6,7,8.5,11.6,11.6c-8.5,2.2-16.4,6.4-22.9,12.2c-1.7-0.6-3.4-0.9-5.1-0.9H150.9c-8.7,0-15.7,7-15.7,15.7v109.8
	c0,2.5,2,4.5,4.5,4.5h221.9c17.7,0,32-14.3,32-32v-54.8C393.6,337.6,376.3,315.2,351.5,308.8z M294.1,273.4
	c0-18.5,15-33.6,33.6-33.6c18.6,0,33.6,15,33.6,33.6c0,18.6-15,33.6-33.6,33.6h0C309.1,307,294.1,291.9,294.1,273.4z M282.4,441
	H144.2V335.7c0-3.7,3-6.6,6.6-6.6h124.9c0.7,0,1.5,0.1,2.2,0.4c0.1,0.1,0.2,0.2,0.3,0.3c0.6,0.6,1.4,1,2.2,1.2c1.3,1.2,2,2.9,2,4.7
	L282.4,441z M384.6,418.1c0,12.6-10.3,22.9-22.9,22.9h-38.5c-6.4-0.2-11.5-5.5-11.3-12c0.2-6.2,5.1-11.1,11.3-11.3h32.7
	c2.5,0,4.5-2,4.5-4.5v-11.7h-9.1v7.2h-28.2c-11.4,0-20.6,9.3-20.5,20.7c0,0,0,0.1,0,0.1c0,4.1,1.2,8.1,3.5,11.5h-14.7V335.7
	c0-3.3-1.1-6.6-3-9.2c8.4-6.8,18.8-10.5,29.6-10.5h19.4c26,0,47.2,21.1,47.2,47.2L384.6,418.1z"/>
</svg>
